<?xml version="1.0" encoding="UTF-8" standalone="no"?>
<!-- Created with Inkscape (http://www.inkscape.org/) -->

<svg
   width="200mm"
   height="120mm"
   viewBox="0 0 200 120"
   version="1.1"
   id="svg1"
   inkscape:version="1.3.2 (1:1.3.2+202311252150+091e20ef0f)"
   sodipodi:docname="South America.svg"
   xml:space="preserve"
   xmlns:inkscape="http://www.inkscape.org/namespaces/inkscape"
   xmlns:sodipodi="http://sodipodi.sourceforge.net/DTD/sodipodi-0.dtd"
   xmlns:xlink="http://www.w3.org/1999/xlink"
   xmlns="http://www.w3.org/2000/svg"
   xmlns:svg="http://www.w3.org/2000/svg"><sodipodi:namedview
     id="namedview1"
     pagecolor="#ffffff"
     bordercolor="#666666"
     borderopacity="1.0"
     inkscape:showpageshadow="2"
     inkscape:pageopacity="0.0"
     inkscape:pagecheckerboard="0"
     inkscape:deskcolor="#d1d1d1"
     inkscape:document-units="mm"
     inkscape:zoom="1.1943438"
     inkscape:cx="556.79108"
     inkscape:cy="362.54216"
     inkscape:window-width="3770"
     inkscape:window-height="2096"
     inkscape:window-x="26"
     inkscape:window-y="23"
     inkscape:window-maximized="0"
     inkscape:current-layer="layer1" /><defs
     id="defs1"><radialGradient
       inkscape:collect="always"
       xlink:href="#linearGradient4609"
       id="radialGradient79285"
       gradientUnits="userSpaceOnUse"
       gradientTransform="matrix(-0.214054,1.37577,-1.24566,-0.194029,303.111,18.1685)"
       cx="99.957603"
       cy="139.3748"
       fx="99.957603"
       fy="139.3748"
       r="45.070099" /><inkscape:perspective
       sodipodi:type="inkscape:persp3d"
       inkscape:vp_x="0 : 526.18109 : 1"
       inkscape:vp_y="0 : 1000 : 0"
       inkscape:vp_z="744.09448 : 526.18109 : 1"
       inkscape:persp3d-origin="372.04724 : 350.78739 : 1"
       id="perspective2410" /><clipPath
       clipPathUnits="userSpaceOnUse"
       id="clipPath2436"><path
         d="M 0,0 L 0,0 L 0,0 L 0,0 z"
         id="path2438" /></clipPath><clipPath
       clipPathUnits="userSpaceOnUse"
       id="clipPath2462"><path
         d="M 0,0 L 0,0 L 0,0 L 0,0 z"
         id="path2464" /></clipPath><clipPath
       clipPathUnits="userSpaceOnUse"
       id="clipPath2556"><path
         d="M 0,0 L 0,0 L 0,0 L 0,0 z"
         id="path2558" /></clipPath><clipPath
       clipPathUnits="userSpaceOnUse"
       id="clipPath11306"><path
         d="M 0,0 L 0,0 L 0,0 L 0,0 z"
         id="path11308" /></clipPath><clipPath
       clipPathUnits="userSpaceOnUse"
       id="clipPath11328"><path
         d="M 0,0 L 0,0 L 0,0 L 0,0 z"
         id="path11330" /></clipPath><clipPath
       clipPathUnits="userSpaceOnUse"
       id="clipPath11362"><path
         d="M 0,0 L 0,0 L 0,0 L 0,0 z"
         id="path11364" /></clipPath><clipPath
       clipPathUnits="userSpaceOnUse"
       id="clipPath11392"><path
         d="M 0,0 L 0,0 L 0,0 L 0,0 z"
         id="path11394" /></clipPath><clipPath
       clipPathUnits="userSpaceOnUse"
       id="clipPath11418"><path
         d="M 0,0 L 0,0 L 0,0 L 0,0 z"
         id="path11420" /></clipPath><clipPath
       clipPathUnits="userSpaceOnUse"
       id="clipPath11730"><path
         d="M 0,0 L 0,0 L 0,0 L 0,0 z"
         id="path11732" /></clipPath><linearGradient
       y2="51.987099"
       x2="22.0144"
       y1="-13.238551"
       x1="52.778114"
       gradientUnits="userSpaceOnUse"
       id="linearGradient3998"
       xlink:href="#fieldGradient"
       inkscape:collect="always" /><radialGradient
       gradientUnits="userSpaceOnUse"
       r="26.5"
       fy="29.5"
       fx="32.5"
       cy="29.5"
       cx="32.5"
       id="shadowGradient"><stop
         id="stop17"
         style="stop-color: rgb(192, 192, 192); stop-opacity: 1;"
         offset="0" /><stop
         id="stop19"
         style="stop-color: rgb(192, 192, 192); stop-opacity: 1;"
         offset="0.88" /><stop
         id="stop21"
         style="stop-color: rgb(192, 192, 192); stop-opacity: 0;"
         offset="1" /></radialGradient><linearGradient
       x1="52.778114"
       y1="-13.238551"
       x2="22.0144"
       y2="51.987099"
       id="fieldGradient"
       gradientUnits="userSpaceOnUse"><stop
         id="stop7"
         style="stop-color: rgb(255, 225, 184); stop-opacity: 1;"
         offset="0" /><stop
         id="stop9"
         style="stop-color: rgb(255, 139, 0); stop-opacity: 1;"
         offset="1" /></linearGradient><linearGradient
       x1="54.509937"
       y1="41.179295"
       x2="9.5471001"
       y2="16.248501"
       id="edgeGradient"
       gradientUnits="userSpaceOnUse"
       xlink:href="#fieldGradient"
       spreadMethod="pad"><stop
         id="stop12"
         style="stop-color: rgb(249, 132, 51); stop-opacity: 1;"
         offset="0" /><stop
         id="stop14"
         style="stop-color: rgb(227, 123, 0); stop-opacity: 1;"
         offset="1" /></linearGradient><inkscape:perspective
       sodipodi:type="inkscape:persp3d"
       inkscape:vp_x="0 : 177 : 1"
       inkscape:vp_y="0 : 1000 : 0"
       inkscape:vp_z="400 : 177 : 1"
       inkscape:persp3d-origin="200 : 118 : 1"
       id="perspective2667" /><filter
       id="Gaussian_Blur"><feGaussianBlur
         id="feGaussianBlur2514"
         stdDeviation="1.5"
         in="SourceGraphic" /></filter><inkscape:perspective
       id="perspective2544"
       inkscape:persp3d-origin="24 : 16 : 1"
       inkscape:vp_z="48 : 24 : 1"
       inkscape:vp_y="0 : 1000 : 0"
       inkscape:vp_x="0 : 24 : 1"
       sodipodi:type="inkscape:persp3d" /><radialGradient
       gradientTransform="matrix(-0.214054,1.37577,-1.24566,-0.194029,303.111,18.1685)"
       gradientUnits="userSpaceOnUse"
       r="45.070099"
       fy="139.3748"
       fx="99.957603"
       cy="139.3748"
       cx="99.957603"
       id="radialGradient4615"
       xlink:href="#linearGradient4609"
       inkscape:collect="always" /><inkscape:perspective
       sodipodi:type="inkscape:persp3d"
       inkscape:vp_x="0 : 300 : 1"
       inkscape:vp_y="0 : 1000 : 0"
       inkscape:vp_z="600 : 300 : 1"
       inkscape:persp3d-origin="300 : 200 : 1"
       id="perspective13226" /><linearGradient
       x1="141.2715"
       y1="70.4282"
       x2="141.2715"
       y2="158.0706"
       id="linearGradient13229"
       gradientUnits="userSpaceOnUse"
       gradientTransform="matrix(1.68,0,0,1.68,-86.7,-86.6997)"><stop
         id="stop13231"
         style="stop-color: rgb(255, 255, 255);"
         offset="0" /><stop
         id="stop13233"
         style="stop-color: rgb(0, 162, 0);"
         offset="1" /><midPointStop
         style="stop-color:#fff"
         id="midPointStop13235" /><midPointStop
         style="stop-color:#fff"
         offset=".5"
         id="midPointStop13237" /><midPointStop
         style="stop-color:#039"
         offset=".9944"
         id="midPointStop13239" /></linearGradient><linearGradient
       x1="127.6616"
       y1="63.214802"
       x2="127.6616"
       y2="183.36752"
       id="linearGradient13241"
       gradientUnits="userSpaceOnUse"
       gradientTransform="matrix(1.68,0,0,1.68,599.333,-89.7192)"><stop
         id="stop13243"
         style="stop-color: rgb(0, 106, 0);"
         offset="0" /><stop
         id="stop13245"
         style="stop-color: rgb(0, 64, 0);"
         offset="0.2" /><stop
         id="stop13247"
         style="stop-color: rgb(0, 208, 0);"
         offset="1" /><midPointStop
         style="stop-color:#006A00"
         id="midPointStop13249" /><midPointStop
         style="stop-color:#006A00"
         offset=".5"
         id="midPointStop13251" /><midPointStop
         style="stop-color:#033"
         offset=".2"
         id="midPointStop13253" /><midPointStop
         style="stop-color:#033"
         offset=".5"
         id="midPointStop13255" /><midPointStop
         style="stop-color:#3c3"
         offset="1"
         id="midPointStop13257" /></linearGradient><linearGradient
       x1="-117.002"
       y1="397.33981"
       x2="12.9912"
       y2="397.33981"
       id="linearGradient13259"
       gradientUnits="userSpaceOnUse"
       gradientTransform="matrix(1.68,0,0,-1.68,899.209,789.763)"><stop
         id="stop13261"
         style="stop-color: rgb(0, 83, 189);"
         offset="0" /><stop
         id="stop13263"
         style="stop-color: rgb(0, 50, 164);"
         offset="0.9944" /><midPointStop
         style="stop-color:#0053bd"
         id="midPointStop13265" /><midPointStop
         style="stop-color:#0053bd"
         offset=".5"
         id="midPointStop13267" /><midPointStop
         style="stop-color:#0032a4"
         offset=".9944"
         id="midPointStop13269" /></linearGradient><radialGradient
       cx="-57.0215"
       cy="439.63181"
       r="97.988297"
       fx="-57.0215"
       fy="439.63181"
       id="radialGradient13271"
       gradientUnits="userSpaceOnUse"
       gradientTransform="matrix(1.68,0,0,-1.68,899.213,789.761)"><stop
         id="stop13273"
         style="stop-color: rgb(255, 255, 255);"
         offset="0" /><stop
         id="stop13275"
         style="stop-color: rgb(87, 173, 255);"
         offset="0.5955" /><stop
         id="stop13277"
         style="stop-color: rgb(201, 230, 255);"
         offset="0.9944" /><midPointStop
         style="stop-color:#fff"
         id="midPointStop13279" /><midPointStop
         style="stop-color:#fff"
         offset=".5"
         id="midPointStop13281" /><midPointStop
         style="stop-color:#57adff"
         offset=".5955"
         id="midPointStop13283" /><midPointStop
         style="stop-color:#57adff"
         offset=".5"
         id="midPointStop13285" /><midPointStop
         style="stop-color:#c9e6ff"
         offset=".9944"
         id="midPointStop13287" /></radialGradient><linearGradient
       x1="-52.250999"
       y1="457.0303"
       x2="-52.250999"
       y2="361.422"
       id="linearGradient13289"
       gradientUnits="userSpaceOnUse"
       gradientTransform="matrix(1.68,0,0,-1.68,899.213,789.761)"><stop
         id="stop13291"
         style="stop-color: rgb(255, 255, 255);"
         offset="0" /><stop
         id="stop13293"
         style="stop-color: rgb(148, 202, 255);"
         offset="1" /><midPointStop
         style="stop-color:#fff"
         id="midPointStop13295" /><midPointStop
         style="stop-color:#fff"
         offset=".5"
         id="midPointStop13297" /><midPointStop
         style="stop-color:#94caff"
         offset="1"
         id="midPointStop13299" /></linearGradient><linearGradient
       x1="141.2715"
       y1="70.4282"
       x2="141.2715"
       y2="158.0706"
       id="linearGradient13301"
       gradientUnits="userSpaceOnUse"
       gradientTransform="matrix(1.68,0,0,1.68,-86.7,-86.6997)"><stop
         id="stop13303"
         style="stop-color: rgb(255, 255, 255);"
         offset="0" /><stop
         id="stop13305"
         style="stop-color: rgb(0, 161, 0);"
         offset="0.4972" /><stop
         id="stop13307"
         style="stop-color: rgb(0, 0, 0);"
         offset="0.9944" /><midPointStop
         style="stop-color:#fff"
         id="midPointStop13309" /><midPointStop
         offset=".5"
         style="stop-color:#fff"
         id="midPointStop13311" /><midPointStop
         offset=".9944"
         style="stop-color:#039"
         id="midPointStop13313" /></linearGradient><linearGradient
       id="linearGradient13315"><stop
         id="stop13317"
         style="stop-color: rgb(181, 181, 181);"
         offset="0" /><stop
         id="stop13319"
         style="stop-color: rgb(181, 181, 181); stop-opacity: 0;"
         offset="1" /></linearGradient><linearGradient
       id="linearGradient13321"><stop
         id="stop13323"
         style="stop-color: rgb(103, 103, 103);"
         offset="0" /><stop
         id="stop13325"
         style="stop-color: rgb(101, 101, 101); stop-opacity: 0;"
         offset="1" /></linearGradient><radialGradient
       cx="128.72601"
       cy="228.36729"
       r="105.21568"
       fx="128.72601"
       fy="228.36729"
       id="radialGradient13327"
       xlink:href="#linearGradient13321"
       gradientUnits="userSpaceOnUse"
       gradientTransform="matrix(1.08563,0,0,0.332654,-22.9955,142.863)" /><linearGradient
       x1="-117.002"
       y1="397.33981"
       x2="12.9912"
       y2="397.33981"
       id="linearGradient13329"
       xlink:href="#linearGradient13259"
       gradientUnits="userSpaceOnUse"
       gradientTransform="matrix(1.44673,0,0,-1.44673,191.992,711.297)" /><radialGradient
       cx="-57.0215"
       cy="439.63181"
       r="97.988297"
       fx="-57.0215"
       fy="439.63181"
       id="radialGradient13331"
       xlink:href="#R0"
       gradientUnits="userSpaceOnUse"
       gradientTransform="matrix(1.44673,0,0,-1.44673,191.995,711.296)" /><linearGradient
       x1="127.6616"
       y1="63.214802"
       x2="127.6616"
       y2="183.36752"
       id="linearGradient13333"
       xlink:href="#L1"
       gradientUnits="userSpaceOnUse"
       gradientTransform="matrix(1.44673,0,0,1.44673,-66.247,-46.0691)" /><linearGradient
       x1="-52.250999"
       y1="457.0303"
       x2="-52.250999"
       y2="361.422"
       id="linearGradient13335"
       xlink:href="#linearGradient13289"
       gradientUnits="userSpaceOnUse"
       gradientTransform="matrix(1.44673,0,0,-1.44673,191.995,711.296)" /><linearGradient
       x1="141.2715"
       y1="70.4282"
       x2="141.2715"
       y2="158.0706"
       id="linearGradient13337"
       xlink:href="#linearGradient13301"
       gradientUnits="userSpaceOnUse"
       gradientTransform="matrix(1.44673,0,0,1.44673,-66.247,-46.0691)" /><linearGradient
       x1="100.5088"
       y1="70.033203"
       x2="100.5088"
       y2="130.0289"
       id="linearGradient13339"
       xlink:href="#linearGradient13301"
       gradientUnits="userSpaceOnUse"
       gradientTransform="matrix(1.44673,0,0,1.44673,-66.247,-46.0691)" /><linearGradient
       x1="120.4849"
       y1="68.116699"
       x2="120.4849"
       y2="85.320099"
       id="linearGradient13341"
       xlink:href="#linearGradient13229"
       gradientUnits="userSpaceOnUse"
       gradientTransform="matrix(1.44673,0,0,1.44673,-66.247,-46.0691)" /><linearGradient
       x1="124.5747"
       y1="73.443802"
       x2="124.5747"
       y2="79.161301"
       id="linearGradient13343"
       xlink:href="#linearGradient13229"
       gradientUnits="userSpaceOnUse" /><linearGradient
       x1="132.78419"
       y1="67.756302"
       x2="132.78419"
       y2="73.864899"
       id="linearGradient13345"
       xlink:href="#linearGradient13229"
       gradientUnits="userSpaceOnUse" /><radialGradient
       cx="128.72601"
       cy="228.36729"
       r="105.21568"
       fx="128.72601"
       fy="228.36729"
       id="radialGradient13347"
       xlink:href="#linearGradient13315"
       gradientUnits="userSpaceOnUse"
       gradientTransform="matrix(0.653853,0,0,0.20035,102.193,187.697)" /><radialGradient
       r="215.9915"
       fy="384.43198"
       fx="282.55182"
       cy="384.43198"
       cx="282.55182"
       gradientTransform="matrix(0.879865,-0.905481,0.864042,0.839599,-298.221,317.509)"
       gradientUnits="userSpaceOnUse"
       id="radialGradient12916"
       xlink:href="#linearGradient12305"
       inkscape:collect="always" /><radialGradient
       gradientTransform="matrix(0.971259,-0.653331,0.510802,0.761058,-139.073,256.98)"
       r="215.9915"
       fy="309.21631"
       fx="226.72215"
       cy="309.21631"
       cx="226.72215"
       gradientUnits="userSpaceOnUse"
       id="radialGradient12898"
       xlink:href="#linearGradient12908"
       inkscape:collect="always" /><inkscape:perspective
       sodipodi:type="inkscape:persp3d"
       inkscape:vp_x="0 : 300 : 1"
       inkscape:vp_y="0 : 1000 : 0"
       inkscape:vp_z="600 : 300 : 1"
       inkscape:persp3d-origin="300 : 200 : 1"
       id="perspective12631" /><radialGradient
       cx="-57.0215"
       cy="439.63181"
       r="97.988297"
       fx="-57.0215"
       fy="439.63181"
       id="radialGradient12676"
       gradientUnits="userSpaceOnUse"
       gradientTransform="matrix(1.68,0,0,-1.68,899.213,789.761)"><stop
         id="stop12678"
         style="stop-color: rgb(255, 255, 255);"
         offset="0" /><stop
         id="stop12680"
         style="stop-color: rgb(87, 173, 255);"
         offset="0.5955" /><stop
         id="stop12682"
         style="stop-color: rgb(201, 230, 255);"
         offset="0.9944" /><midPointStop
         style="stop-color:#fff"
         id="midPointStop12684" /><midPointStop
         style="stop-color:#fff"
         offset=".5"
         id="midPointStop12686" /><midPointStop
         style="stop-color:#57adff"
         offset=".5955"
         id="midPointStop12688" /><midPointStop
         style="stop-color:#57adff"
         offset=".5"
         id="midPointStop12690" /><midPointStop
         style="stop-color:#c9e6ff"
         offset=".9944"
         id="midPointStop12692" /></radialGradient><radialGradient
       cx="128.72601"
       cy="228.36729"
       r="105.21568"
       fx="128.72601"
       fy="228.36729"
       id="radialGradient12732"
       xlink:href="#linearGradient13321"
       gradientUnits="userSpaceOnUse"
       gradientTransform="matrix(1.08563,0,0,0.332654,-22.9955,142.863)" /><radialGradient
       cx="-57.0215"
       cy="439.63181"
       r="97.988297"
       fx="-57.0215"
       fy="439.63181"
       id="radialGradient12736"
       xlink:href="#R0"
       gradientUnits="userSpaceOnUse"
       gradientTransform="matrix(1.44673,0,0,-1.44673,191.995,711.296)" /><radialGradient
       cx="128.72601"
       cy="228.36729"
       r="105.21568"
       fx="128.72601"
       fy="228.36729"
       id="radialGradient12752"
       xlink:href="#linearGradient13315"
       gradientUnits="userSpaceOnUse"
       gradientTransform="matrix(0.653853,0,0,0.20035,102.193,187.697)" /><radialGradient
       gradientTransform="matrix(0.879865,-0.905481,0.864042,0.839599,-298.221,317.509)"
       gradientUnits="userSpaceOnUse"
       r="215.9915"
       fy="384.43198"
       fx="282.55182"
       cy="384.43198"
       cx="282.55182"
       id="radialGradient12311"
       xlink:href="#linearGradient12305"
       inkscape:collect="always" /><radialGradient
       gradientUnits="userSpaceOnUse"
       gradientTransform="matrix(0.330783,-1.66656,1.15454,0.229156,-165.223,2298.75)"
       r="269.54684"
       fy="807.86688"
       fx="1009.6029"
       cy="807.86688"
       cx="1009.6029"
       id="radialGradient12103"
       xlink:href="#linearGradient12105"
       inkscape:collect="always" /><inkscape:perspective
       sodipodi:type="inkscape:persp3d"
       inkscape:vp_x="0 : 300 : 1"
       inkscape:vp_y="0 : 1000 : 0"
       inkscape:vp_z="600 : 300 : 1"
       inkscape:persp3d-origin="300 : 200 : 1"
       id="perspective11785" /><radialGradient
       cx="-57.0215"
       cy="439.63181"
       r="97.988297"
       fx="-57.0215"
       fy="439.63181"
       id="radialGradient11830"
       gradientUnits="userSpaceOnUse"
       gradientTransform="matrix(1.68,0,0,-1.68,899.213,789.761)"><stop
         id="stop11832"
         style="stop-color: rgb(255, 255, 255);"
         offset="0" /><stop
         id="stop11834"
         style="stop-color: rgb(87, 173, 255);"
         offset="0.5955" /><stop
         id="stop11836"
         style="stop-color: rgb(201, 230, 255);"
         offset="0.9944" /><midPointStop
         style="stop-color:#fff"
         id="midPointStop11838" /><midPointStop
         style="stop-color:#fff"
         offset=".5"
         id="midPointStop11840" /><midPointStop
         style="stop-color:#57adff"
         offset=".5955"
         id="midPointStop11842" /><midPointStop
         style="stop-color:#57adff"
         offset=".5"
         id="midPointStop11844" /><midPointStop
         style="stop-color:#c9e6ff"
         offset=".9944"
         id="midPointStop11846" /></radialGradient><radialGradient
       cx="128.72601"
       cy="228.36729"
       r="105.21568"
       fx="128.72601"
       fy="228.36729"
       id="radialGradient11886"
       xlink:href="#linearGradient13321"
       gradientUnits="userSpaceOnUse"
       gradientTransform="matrix(1.08563,0,0,0.332654,-22.9955,142.863)" /><radialGradient
       cx="-57.0215"
       cy="439.63181"
       r="97.988297"
       fx="-57.0215"
       fy="439.63181"
       id="radialGradient11890"
       xlink:href="#R0"
       gradientUnits="userSpaceOnUse"
       gradientTransform="matrix(1.44673,0,0,-1.44673,191.995,711.296)" /><radialGradient
       cx="128.72601"
       cy="228.36729"
       r="105.21568"
       fx="128.72601"
       fy="228.36729"
       id="radialGradient11906"
       xlink:href="#linearGradient13315"
       gradientUnits="userSpaceOnUse"
       gradientTransform="matrix(0.653853,0,0,0.20035,102.193,187.697)" /><radialGradient
       r="97.988297"
       fy="440.66043"
       fx="-64.643402"
       cy="440.66043"
       cx="-64.643402"
       gradientTransform="matrix(3.11011,0,0,-3.11118,198.81,1487.88)"
       gradientUnits="userSpaceOnUse"
       id="radialGradient10980"
       xlink:href="#linearGradient13289"
       inkscape:collect="always" /><inkscape:perspective
       sodipodi:type="inkscape:persp3d"
       inkscape:vp_x="0 : 300 : 1"
       inkscape:vp_y="0 : 1000 : 0"
       inkscape:vp_z="600 : 300 : 1"
       inkscape:persp3d-origin="300 : 200 : 1"
       id="perspective10792" /><linearGradient
       x1="127.6616"
       y1="63.214802"
       x2="127.6616"
       y2="183.36752"
       id="L1"
       gradientUnits="userSpaceOnUse"
       gradientTransform="matrix(1.68,0,0,1.68,599.333,-89.7192)"><stop
         id="s3"
         style="stop-color: rgb(0, 106, 0);"
         offset="0" /><stop
         id="s4"
         style="stop-color: rgb(0, 152, 0); stop-opacity: 1;"
         offset="0.2" /><stop
         id="s5"
         style="stop-color: rgb(0, 208, 0);"
         offset="1" /><midPointStop
         style="stop-color:#006A00"
         id="mps17" /><midPointStop
         style="stop-color:#006A00"
         offset=".5"
         id="mps19" /><midPointStop
         style="stop-color:#033"
         offset=".2"
         id="mps21" /><midPointStop
         style="stop-color:#033"
         offset=".5"
         id="mps23" /><midPointStop
         style="stop-color:#3c3"
         offset="1"
         id="mps25" /></linearGradient><radialGradient
       cx="-57.0215"
       cy="439.63181"
       r="97.988297"
       fx="-57.0215"
       fy="439.63181"
       id="R0"
       gradientUnits="userSpaceOnUse"
       gradientTransform="matrix(1.68,0,0,-1.68,899.213,789.761)"><stop
         id="s8"
         style="stop-color: rgb(255, 255, 255);"
         offset="0" /><stop
         id="s9"
         style="stop-color: rgb(87, 173, 255);"
         offset="0.5955" /><stop
         id="s10"
         style="stop-color: rgb(201, 230, 255);"
         offset="0.9944" /><midPointStop
         style="stop-color:#fff"
         id="mps40" /><midPointStop
         style="stop-color:#fff"
         offset=".5"
         id="mps42" /><midPointStop
         style="stop-color:#57adff"
         offset=".5955"
         id="mps44" /><midPointStop
         style="stop-color:#57adff"
         offset=".5"
         id="mps46" /><midPointStop
         style="stop-color:#c9e6ff"
         offset=".9944"
         id="mps48" /></radialGradient><radialGradient
       cx="128.72601"
       cy="228.36729"
       r="105.21568"
       fx="128.72601"
       fy="228.36729"
       id="R1"
       xlink:href="#linearGradient13321"
       gradientUnits="userSpaceOnUse"
       gradientTransform="matrix(1.08563,0,0,0.332654,-246.885,200.026)" /><radialGradient
       cx="-57.0215"
       cy="439.63181"
       r="97.988297"
       fx="-57.0215"
       fy="439.63181"
       id="R2"
       xlink:href="#R0"
       gradientUnits="userSpaceOnUse"
       gradientTransform="matrix(3.11011,0,0,-3.05727,-209.282,1466.09)" /><linearGradient
       x1="127.6616"
       y1="63.214802"
       x2="127.6616"
       y2="183.36752"
       id="L8"
       xlink:href="#L1"
       gradientUnits="userSpaceOnUse"
       gradientTransform="matrix(1.44673,0,0,1.44673,-33.5738,87.986)" /><radialGradient
       cx="128.72601"
       cy="228.36729"
       r="105.21568"
       fx="128.72601"
       fy="228.36729"
       id="R3"
       xlink:href="#linearGradient13315"
       gradientUnits="userSpaceOnUse"
       gradientTransform="matrix(0.653853,0,0,0.20035,-121.697,244.86)" /><clipPath
       id="clipPath9314"
       clipPathUnits="userSpaceOnUse"><path
         id="path15106"
         d="M 0,0 L 0,0 L 0,0 L 0,0 z" /></clipPath><clipPath
       id="clipPath9002"
       clipPathUnits="userSpaceOnUse"><path
         id="path9004"
         d="M 0,0 L 0,0 L 0,0 L 0,0 z" /></clipPath><clipPath
       id="clipPath8976"
       clipPathUnits="userSpaceOnUse"><path
         id="path8978"
         d="M 0,0 L 0,0 L 0,0 L 0,0 z" /></clipPath><clipPath
       id="clipPath8946"
       clipPathUnits="userSpaceOnUse"><path
         id="path8948"
         d="M 0,0 L 0,0 L 0,0 L 0,0 z" /></clipPath><clipPath
       id="clipPath8912"
       clipPathUnits="userSpaceOnUse"><path
         id="path8914"
         d="M 0,0 L 0,0 L 0,0 L 0,0 z" /></clipPath><clipPath
       id="clipPath8890"
       clipPathUnits="userSpaceOnUse"><path
         id="path8892"
         d="M 0,0 L 0,0 L 0,0 L 0,0 z" /></clipPath><clipPath
       id="clipPath15091"
       clipPathUnits="userSpaceOnUse"><path
         id="path15093"
         d="M 0,0 L 0,0 L 0,0 L 0,0 z" /></clipPath><clipPath
       id="clipPath15087"
       clipPathUnits="userSpaceOnUse"><path
         id="path15089"
         d="M 0,0 L 0,0 L 0,0 L 0,0 z" /></clipPath><clipPath
       id="clipPath15083"
       clipPathUnits="userSpaceOnUse"><path
         id="path15085"
         d="M 0,0 L 0,0 L 0,0 L 0,0 z" /></clipPath><inkscape:perspective
       id="perspective15081"
       inkscape:persp3d-origin="372.04724 : 350.78739 : 1"
       inkscape:vp_z="744.09448 : 526.18109 : 1"
       inkscape:vp_y="0 : 1000 : 0"
       inkscape:vp_x="0 : 526.18109 : 1"
       sodipodi:type="inkscape:persp3d" /><linearGradient
       gradientTransform="matrix(1.68,0,0,1.68,599.333,-89.7192)"
       gradientUnits="userSpaceOnUse"
       id="linearGradient12105"
       y2="183.36752"
       x2="127.6616"
       y1="63.214802"
       x1="127.6616"><stop
         offset="0"
         style="stop-color: rgb(106, 0, 0); stop-opacity: 1;"
         id="stop12107" /><stop
         offset="0.57332683"
         style="stop-color: rgb(86, 155, 15); stop-opacity: 1;"
         id="stop12109" /><stop
         offset="1"
         style="stop-color: rgb(76, 231, 44); stop-opacity: 1;"
         id="stop12111" /><midPointStop
         id="midPointStop12113"
         style="stop-color:#006A00" /><midPointStop
         id="midPointStop12115"
         offset=".5"
         style="stop-color:#006A00" /><midPointStop
         id="midPointStop12117"
         offset=".2"
         style="stop-color:#033" /><midPointStop
         id="midPointStop12119"
         offset=".5"
         style="stop-color:#033" /><midPointStop
         id="midPointStop12121"
         offset="1"
         style="stop-color:#3c3" /></linearGradient><radialGradient
       gradientTransform="matrix(1.68,0,0,-1.68,899.213,789.761)"
       gradientUnits="userSpaceOnUse"
       id="radialGradient12123"
       fy="439.63181"
       fx="-57.0215"
       r="97.988297"
       cy="439.63181"
       cx="-57.0215"><stop
         offset="0"
         style="stop-color: rgb(255, 255, 255);"
         id="stop12125" /><stop
         offset="0.74371558"
         style="stop-color: rgb(87, 173, 255);"
         id="stop12127" /><stop
         offset="0.9944"
         style="stop-color: rgb(201, 230, 255);"
         id="stop12129" /><midPointStop
         id="midPointStop12131"
         style="stop-color:#fff" /><midPointStop
         id="midPointStop12133"
         offset=".5"
         style="stop-color:#fff" /><midPointStop
         id="midPointStop12135"
         offset=".5955"
         style="stop-color:#57adff" /><midPointStop
         id="midPointStop12137"
         offset=".5"
         style="stop-color:#57adff" /><midPointStop
         id="midPointStop12139"
         offset=".9944"
         style="stop-color:#c9e6ff" /></radialGradient><linearGradient
       id="linearGradient12305"><stop
         id="stop12307"
         offset="0"
         style="stop-color: rgb(0, 0, 0); stop-opacity: 0;" /><stop
         style="stop-color: rgb(0, 0, 0); stop-opacity: 0.176471;"
         offset="0.56742632"
         id="stop12313" /><stop
         id="stop12309"
         offset="1"
         style="stop-color: rgb(0, 0, 0); stop-opacity: 0.319149;" /></linearGradient><linearGradient
       id="linearGradient12317"><stop
         style="stop-color: rgb(0, 0, 0); stop-opacity: 0;"
         offset="0"
         id="stop12319" /><stop
         id="stop12321"
         offset="0.8522501"
         style="stop-color: rgb(0, 0, 0); stop-opacity: 0.176471;" /><stop
         style="stop-color: rgb(0, 0, 0); stop-opacity: 0.319149;"
         offset="1"
         id="stop12323" /></linearGradient><linearGradient
       id="linearGradient12908"><stop
         id="stop12910"
         offset="0"
         style="stop-color: rgb(0, 0, 0); stop-opacity: 0;" /><stop
         style="stop-color: rgb(0, 0, 0); stop-opacity: 0.00392157;"
         offset="0.41499513"
         id="stop12922" /><stop
         style="stop-color: rgb(0, 0, 0); stop-opacity: 0.027451;"
         offset="0.56763166"
         id="stop12920" /><stop
         style="stop-color: rgb(0, 0, 0); stop-opacity: 0.0784314;"
         offset="0.77244782"
         id="stop12918" /><stop
         style="stop-color: rgb(0, 0, 0); stop-opacity: 0.176471;"
         offset="0.88867211"
         id="stop12912" /><stop
         id="stop12914"
         offset="1"
         style="stop-color: rgb(0, 0, 0); stop-opacity: 0.319149;" /></linearGradient><linearGradient
       id="linearGradient4609"><stop
         id="stop4611"
         offset="0"
         style="stop-color: rgb(0, 0, 0); stop-opacity: 0;" /><stop
         style="stop-color: rgb(0, 0, 0); stop-opacity: 0.0235294;"
         offset="0.49269524"
         id="stop4623" /><stop
         style="stop-color: rgb(0, 0, 0); stop-opacity: 0.0352941;"
         offset="0.5708732"
         id="stop4621" /><stop
         style="stop-color: rgb(0, 0, 0); stop-opacity: 0.0666667;"
         offset="0.63645512"
         id="stop4619" /><stop
         style="stop-color: rgb(0, 0, 0); stop-opacity: 0.148936;"
         offset="0.69579047"
         id="stop4617" /><stop
         id="stop4625"
         offset="0.73030394"
         style="stop-color: rgb(0, 0, 0); stop-opacity: 0.212766;" /><stop
         id="stop4613"
         offset="1"
         style="stop-color: rgb(0, 0, 0); stop-opacity: 0.546099;" /></linearGradient><radialGradient
       inkscape:collect="always"
       xlink:href="#linearGradient4609"
       id="radialGradient15681"
       gradientUnits="userSpaceOnUse"
       gradientTransform="matrix(-0.214054,1.37577,-1.24566,-0.194029,303.111,18.1685)"
       cx="99.957603"
       cy="139.3748"
       fx="99.957603"
       fy="139.3748"
       r="45.070099" /><radialGradient
       inkscape:collect="always"
       xlink:href="#linearGradient4609"
       id="radialGradient15958"
       gradientUnits="userSpaceOnUse"
       gradientTransform="matrix(-0.214054,1.37577,-1.24566,-0.194029,303.111,18.1685)"
       cx="99.957603"
       cy="139.3748"
       fx="99.957603"
       fy="139.3748"
       r="45.070099" /><radialGradient
       inkscape:collect="always"
       xlink:href="#linearGradient4609"
       id="radialGradient15966"
       gradientUnits="userSpaceOnUse"
       gradientTransform="matrix(-0.214054,1.37577,-1.24566,-0.194029,303.111,18.1685)"
       cx="99.957603"
       cy="139.3748"
       fx="99.957603"
       fy="139.3748"
       r="45.070099" /><inkscape:perspective
       id="perspective19473"
       inkscape:persp3d-origin="469.87363 : 158.9092 : 1"
       inkscape:vp_z="939.74725 : 238.3638 : 1"
       inkscape:vp_y="0 : 1000 : 0"
       inkscape:vp_x="0 : 238.3638 : 1"
       sodipodi:type="inkscape:persp3d" /><radialGradient
       inkscape:collect="always"
       xlink:href="#linearGradient4609"
       id="radialGradient25714"
       gradientUnits="userSpaceOnUse"
       gradientTransform="matrix(-0.214054,1.37577,-1.24566,-0.194029,303.111,18.1685)"
       cx="99.957603"
       cy="139.3748"
       fx="99.957603"
       fy="139.3748"
       r="45.070099" /></defs><g
     inkscape:label="Layer 1"
     inkscape:groupmode="layer"
     id="layer1"
     transform="translate(-8.5858889,-79.12252)"><rect
       style="fill:#4e2178;fill-opacity:1;stroke:none;stroke-width:0.681055"
       id="rect1"
       width="200"
       height="120"
       x="8.2725973"
       y="78.965874" /><path
       id="path69"
       style="fill:#ffffff;stroke-width:0.107102"
       d="m 90.341108,93.96579 c -0.0641,0.005 -0.12307,0.0297 -0.22338,0.0768 -0.11927,0.0561 -0.21685,0.12166 -0.21685,0.14589 0,0.0242 -0.0585,0.0509 -0.13006,0.0591 -0.0869,0.01 -0.13515,0.0465 -0.14512,0.10992 -0.0474,0.30123 -0.21263,0.45244 -0.57284,0.52402 -0.0879,0.0175 -0.22459,0.0935 -0.30363,0.16903 -0.079,0.0755 -0.16885,0.13737 -0.19958,0.13737 -0.0307,0 -0.10439,0.0516 -0.16372,0.11479 -0.21275,0.22646 -0.38386,0.24801 -1.14667,0.1439 -0.25154,-0.0343 -0.36147,0.0395 -0.40846,0.27441 -0.0311,0.15544 0.008,0.15177 -0.58789,0.0553 -0.14979,-0.0242 -0.19683,-0.004 -0.39429,0.16648 -0.12333,0.10675 -0.25573,0.19416 -0.29411,0.19416 -0.0384,0 -0.0837,0.0373 -0.10073,0.083 -0.017,0.0457 -0.069,0.11043 -0.11546,0.1439 -0.0465,0.0335 -0.13324,0.16689 -0.19271,0.29655 -0.0686,0.14944 -0.13797,0.23577 -0.18973,0.23577 -0.0449,0 -0.10467,0.043 -0.13284,0.0956 -0.0452,0.0845 -0.0343,0.0991 0.0932,0.12464 0.14772,0.0295 0.16965,0.0843 0.11512,0.28769 -0.0228,0.0852 -0.0525,0.0997 -0.15973,0.0783 -0.14566,-0.0291 -0.20698,0.0276 -0.16051,0.14878 0.0194,0.0505 0.0642,0.0705 0.12343,0.055 0.14352,-0.0375 0.22615,0.0153 0.22615,0.14457 0,0.11144 -0.0104,0.11598 -0.19372,0.085 -0.16545,-0.0279 -0.20859,-0.0167 -0.29621,0.0774 -0.0917,0.0984 -0.10429,0.10114 -0.11878,0.0259 -0.0232,-0.1207 -0.12584,-0.068 -0.13194,0.0677 -0.0139,0.30992 -0.022,0.33146 -0.14014,0.37636 -0.0668,0.0254 -0.10938,0.0657 -0.0947,0.0895 0.0349,0.0565 -0.43605,0.43137 -0.54195,0.43137 -0.0448,0 -0.11893,0.0416 -0.16493,0.0924 -0.0805,0.0889 -0.0789,0.0969 0.0437,0.21054 0.0838,0.0777 0.12194,0.1557 0.11136,0.22792 -0.0152,0.10405 -0.0267,0.0992 -0.21906,-0.092 -0.11164,-0.11092 -0.22353,-0.20157 -0.24862,-0.20157 -0.0251,0 -0.0456,-0.0288 -0.0456,-0.0639 0,-0.096 -0.17631,-0.23628 -0.2578,-0.20501 -0.17414,0.0668 -0.13953,0.35019 0.0786,0.64302 0.10157,0.13637 0.10574,0.28158 0.0116,0.40603 -0.0383,0.0507 -0.0696,0.12949 -0.0696,0.17522 0,0.0457 -0.0481,0.11708 -0.10682,0.15851 -0.0994,0.0701 -0.11222,0.0686 -0.18553,-0.021 -0.12491,-0.1528 -0.22968,-0.12369 -0.22968,0.0639 0,0.0881 -0.0315,0.18637 -0.07,0.21829 -0.0385,0.0319 -0.0839,0.13295 -0.10107,0.22448 -0.027,0.14403 -0.0136,0.1805 0.0997,0.27087 0.0988,0.0787 0.123,0.12934 0.0987,0.20578 -0.0243,0.0766 -0.003,0.12044 0.087,0.17943 0.0655,0.0429 0.13206,0.11883 0.14789,0.1687 0.0158,0.0499 0.0701,0.0907 0.12054,0.0907 0.11065,0 0.12167,0.13204 0.022,0.26378 -0.10291,0.13606 -0.0874,0.3281 0.0388,0.47997 0.0613,0.0738 0.12562,0.1924 0.14301,0.26367 0.0281,0.1152 0.0131,0.1373 -0.13516,0.19924 -0.1258,0.0526 -0.16681,0.098 -0.16681,0.18497 0,0.0634 0.0299,0.14002 0.0663,0.17025 0.041,0.034 0.0784,0.20324 0.0982,0.44465 0.0577,0.7028 0.0491,0.833 -0.0625,0.95186 -0.056,0.0596 -0.10195,0.14543 -0.10195,0.19072 0,0.11875 0.11419,0.3208 0.25648,0.45373 0.11607,0.10844 0.17161,0.33574 0.082,0.33574 -0.0226,0 -0.14091,0.14872 -0.2629,0.33053 -0.12198,0.18181 -0.24228,0.34328 -0.26732,0.35875 -0.025,0.0155 -0.0455,0.0812 -0.0455,0.14612 0,0.17725 -0.20688,0.36029 -0.39285,0.34758 -0.38638,-0.0264 -0.47179,-0.001 -0.65851,0.19515 -0.10036,0.10549 -0.18243,0.22442 -0.18243,0.26433 0,0.0399 -0.032,0.10462 -0.0712,0.14379 -0.0797,0.0797 -0.0533,0.27652 0.0538,0.40027 0.0925,0.10691 0.0818,0.1243 -0.0656,0.10605 -0.12678,-0.0157 -0.24342,0.0552 -0.384,0.23323 -0.055,0.0697 -0.0475,0.0956 0.0557,0.19116 l 0.11922,0.11048 -0.17889,0.19969 c -0.132,0.14731 -0.21497,0.19969 -0.31658,0.19991 -0.0757,1.7e-4 -0.1987,0.0321 -0.27319,0.071 -0.0745,0.0388 -0.15204,0.0604 -0.17235,0.0478 -0.0203,-0.0126 -0.0875,0.0166 -0.14932,0.0649 -0.10615,0.0829 -0.2674,0.15181 -0.41599,0.17777 -0.12105,0.0211 -0.20262,0.27878 -0.11578,0.36562 0.0172,0.0172 0.0263,0.18574 0.0202,0.37448 l -0.0111,0.34315 -0.28127,0.2743 c -0.29598,0.28872 -0.311,0.31916 -0.23157,0.46756 0.0371,0.0694 0.0312,0.11883 -0.0237,0.19726 -0.0403,0.0576 -0.0733,0.13981 -0.0733,0.18287 0,0.0546 -0.0574,0.0875 -0.18984,0.1087 -0.1044,0.0167 -0.18984,0.0499 -0.18984,0.0738 0,0.0239 -0.0327,0.0762 -0.0727,0.11623 -0.0765,0.0765 -0.0475,0.16976 0.11612,0.37348 0.056,0.0697 0.0568,0.10265 0.005,0.19958 -0.0505,0.0943 -0.0511,0.1683 -0.003,0.39362 0.0857,0.40372 0.0607,0.50627 -0.12807,0.52447 -0.0904,0.009 -0.1542,0.0413 -0.1542,0.0788 0,0.087 0.26328,0.30247 0.41654,0.34094 0.0685,0.0172 0.21518,0.11861 0.32577,0.22537 0.16007,0.15452 0.20404,0.2329 0.21574,0.38399 0.0131,0.16946 0.0293,0.19147 0.15055,0.20534 0.10569,0.0121 0.16587,-0.0195 0.27097,-0.14235 0.0878,-0.10261 0.13568,-0.13217 0.13693,-0.0843 0.003,0.12307 -0.11161,0.32828 -0.19969,0.35677 -0.0457,0.0147 -0.083,0.0468 -0.083,0.0712 0,0.0243 -0.0539,0.0442 -0.11966,0.0442 -0.0816,0 -0.13683,0.0378 -0.17368,0.11866 -0.0327,0.0717 -0.0935,0.11866 -0.15375,0.11866 -0.0548,0 -0.15262,0.0641 -0.21729,0.14236 -0.0647,0.0783 -0.14636,0.14235 -0.18154,0.14235 -0.0352,0 -0.0881,0.0641 -0.11766,0.14235 -0.0296,0.0783 -0.0806,0.14235 -0.11346,0.14235 -0.0328,0 -0.0966,0.0587 -0.1418,0.13051 -0.0452,0.0718 -0.14289,0.18381 -0.21707,0.24906 -0.1174,0.10326 -0.13815,0.16173 -0.1604,0.45085 -0.0247,0.32121 -0.0208,0.33742 0.12099,0.48938 0.16507,0.17697 0.17392,0.19869 0.0809,0.19869 -0.0361,0 -0.0764,0.0567 -0.0897,0.12608 -0.0198,0.10329 0.0178,0.16791 0.20799,0.35809 0.27615,0.27615 0.31637,0.46492 0.0992,0.46492 -0.17389,0 -0.24673,0.0788 -0.24673,0.26699 0,0.15635 0.13944,0.31238 0.3344,0.37425 0.0684,0.0217 0.0868,0.0682 0.079,0.19848 -0.0113,0.19048 0.0978,0.27909 0.14092,0.11434 0.0347,-0.13272 0.0974,-0.12618 0.35488,0.0371 0.11882,0.0754 0.26194,0.15157 0.31802,0.16937 0.13983,0.0444 0.3861,0.25753 0.3861,0.33418 0,0.0345 0.0587,0.11411 0.13051,0.17689 0.16157,0.14131 0.29666,0.38654 0.29666,0.53874 0,0.0631 0.0178,0.11479 0.0397,0.11479 0.0726,0 0.15101,0.24072 0.11944,0.3665 -0.0248,0.0989 -0.0165,0.11803 0.0418,0.0957 0.0487,-0.0187 0.17155,0.0751 0.36872,0.28127 0.27976,0.29256 0.2944,0.31919 0.27086,0.49469 -0.027,0.20153 0.0255,0.27405 0.13361,0.1843 0.0545,-0.0453 0.0746,-0.0413 0.098,0.0196 0.0162,0.0421 0.0183,0.10549 0.005,0.14091 -0.0136,0.0354 0.0143,0.12388 0.062,0.19659 0.0477,0.0727 0.0756,0.16118 0.062,0.19659 -0.0136,0.0354 -0.003,0.0644 0.0227,0.0644 0.0261,0 0.0599,0.0501 0.0753,0.11124 0.0154,0.0612 0.0785,0.16257 0.14036,0.22538 0.0618,0.0628 0.127,0.17829 0.1449,0.25658 0.0288,0.12622 0.0972,0.2944 0.22614,0.5569 0.0223,0.0453 0.0404,0.11406 0.0404,0.15276 0,0.0686 0.17155,0.42912 0.24928,0.52402 0.0597,0.0729 0.33571,0.49988 0.41056,0.63505 0.0367,0.0662 0.0653,0.21113 0.0636,0.3219 -0.003,0.1886 0.011,0.21055 0.21806,0.34602 0.22272,0.14574 0.43409,0.38167 0.34193,0.38167 -0.0273,0 -0.0497,0.032 -0.0497,0.0712 0,0.0392 0.0189,0.0712 0.042,0.0712 0.0797,0 0.10165,0.21146 0.0277,0.26678 -0.0977,0.0731 -0.0374,0.21898 0.0757,0.18308 0.0581,-0.0184 0.13216,0.0201 0.22493,0.11723 0.0761,0.0796 0.1627,0.14467 0.1925,0.14467 0.0298,0 0.0541,0.0494 0.0541,0.1097 0,0.0603 0.0427,0.15551 0.0949,0.21154 0.0522,0.056 0.095,0.12156 0.095,0.14556 0,0.024 0.032,0.0701 0.0712,0.10261 0.0391,0.0325 0.0712,0.10138 0.0712,0.15309 0,0.0517 0.10672,0.22184 0.23721,0.37802 0.24912,0.29813 0.30282,0.4944 0.16615,0.60781 -0.0595,0.0494 -0.0712,0.0425 -0.0712,-0.0416 0,-0.0579 -0.0303,-0.10073 -0.0712,-0.10073 -0.0403,0 -0.0712,0.0425 -0.0712,0.098 0,0.0539 -0.0236,0.14213 -0.0524,0.19592 -0.0437,0.0816 -0.0326,0.11605 0.0672,0.20855 0.0794,0.0736 0.11107,0.14313 0.0944,0.20677 -0.0185,0.0707 0.0377,0.15615 0.21353,0.32566 0.13119,0.12644 0.26992,0.30521 0.30839,0.39728 0.0532,0.12725 0.122,0.18891 0.2867,0.25703 0.15404,0.0637 0.25348,0.14808 0.34425,0.29168 0.0702,0.1111 0.15201,0.2019 0.18165,0.2019 0.0296,0 0.0778,0.0633 0.10693,0.14058 0.0531,0.14067 0.15353,0.20556 0.77386,0.4999 0.14324,0.068 0.27781,0.15455 0.29898,0.19238 0.0212,0.0378 0.0815,0.0688 0.13416,0.0688 0.12772,0 0.27335,0.0817 0.43669,0.24508 0.074,0.074 0.18638,0.14751 0.24961,0.16338 0.0632,0.0159 0.1149,0.0455 0.1149,0.0659 0,0.0204 0.0801,0.0518 0.17799,0.0699 0.0979,0.0181 0.31605,0.1059 0.48484,0.19515 0.16879,0.0892 0.33627,0.16228 0.37215,0.16228 0.0359,0 0.11727,0.0408 0.18087,0.0909 0.0636,0.05 0.19513,0.10462 0.29224,0.12121 0.1054,0.018 0.25296,0.0987 0.36628,0.20046 0.1044,0.0937 0.25558,0.19811 0.33595,0.23202 0.0804,0.0339 0.17414,0.0954 0.20833,0.13659 0.0342,0.0412 0.15668,0.0988 0.27219,0.12785 0.24395,0.0614 0.3589,0.20355 0.36762,0.45462 0.003,0.10058 0.0343,0.18168 0.0753,0.19814 0.10562,0.0424 0.53256,0.30239 0.61413,0.37392 0.17465,0.15319 0.44377,0.34065 0.52701,0.36706 0.0498,0.0158 0.10003,0.0753 0.11157,0.13228 0.0251,0.12394 0.081,0.86395 0.0772,1.02192 -10e-4,0.0614 0.0284,0.16807 0.0665,0.23722 0.11389,0.20669 0.1599,0.78559 0.1066,1.34193 -0.0266,0.27739 -0.0318,0.54425 -0.0116,0.5931 0.0202,0.0488 0.0436,0.14219 0.052,0.20744 0.0695,0.5376 0.0752,0.68233 0.0309,0.77463 -0.0273,0.0568 -0.0746,0.33811 -0.10527,0.6252 -0.0306,0.28708 -0.0677,0.55405 -0.0824,0.5932 -0.0419,0.11208 -0.0656,0.24731 -0.0749,0.42706 -0.007,0.13581 -0.0279,0.16709 -0.11446,0.17146 -0.11339,0.006 -0.26089,0.10429 -0.23069,0.1542 0.01,0.0166 2.1e-4,0.14353 -0.0218,0.28193 -0.0513,0.32206 -0.0211,0.40513 0.13327,0.3664 0.10943,-0.0275 0.11551,-0.0201 0.0847,0.10272 -0.0183,0.0728 -0.0497,0.14332 -0.0699,0.15663 -0.0201,0.0133 -0.0508,0.21641 -0.0683,0.4513 -0.0174,0.23489 -0.0405,0.51101 -0.0512,0.61368 -0.0108,0.10268 0.01,0.27211 0.0458,0.37647 0.036,0.10436 0.0537,0.20849 0.0395,0.23146 -0.0142,0.023 0.008,0.0787 0.0484,0.12375 0.0669,0.0739 0.0669,0.0958 0.001,0.22239 -0.0401,0.0772 -0.10157,0.15651 -0.1366,0.17611 -0.035,0.0196 -0.0781,0.12099 -0.0958,0.22537 -0.0176,0.10438 -0.0515,0.18984 -0.0753,0.18984 -0.0685,0 -0.0504,0.12483 0.0276,0.18951 0.0423,0.0351 0.0626,0.10919 0.0504,0.18375 -0.0112,0.0687 -0.0255,0.22106 -0.0318,0.3385 -0.006,0.11745 -0.0315,0.24024 -0.0562,0.27286 -0.0247,0.0326 -0.0326,0.0593 -0.0177,0.0593 0.0149,0 -0.004,0.0741 -0.0417,0.1646 -0.0378,0.0905 -0.0687,0.21862 -0.0687,0.28471 0,0.0661 -0.0472,0.16726 -0.10482,0.22493 -0.12015,0.12014 -0.15547,0.45875 -0.052,0.49845 0.0955,0.0366 0.074,0.1284 -0.0567,0.24197 -0.0652,0.0567 -0.11873,0.13003 -0.11889,0.16283 -1.7e-4,0.0328 -0.0308,0.11809 -0.0681,0.18951 -0.0373,0.0714 -0.0763,0.24654 -0.0869,0.3892 -0.0106,0.14267 -0.0467,0.2925 -0.0802,0.33296 -0.0336,0.0405 -0.0611,0.12734 -0.0611,0.19305 0,0.0774 -0.048,0.15367 -0.13638,0.21663 -0.075,0.0534 -0.13649,0.13842 -0.13649,0.18884 0,0.0504 -0.0214,0.0917 -0.0475,0.0917 -0.0261,0 -0.0474,0.0427 -0.0474,0.0949 0,0.0522 0.0208,0.095 0.0463,0.095 0.0261,0 0.0338,0.062 0.0177,0.14235 -0.0256,0.12791 -0.0163,0.14235 0.0907,0.14235 0.14152,0 0.17595,0.0935 0.17689,0.48052 4.3e-4,0.18535 -0.0221,0.28597 -0.0738,0.32887 -0.041,0.034 -0.0656,0.096 -0.0547,0.1377 0.0226,0.0866 -0.0714,0.19172 -0.17147,0.19172 -0.19645,0 -0.25576,0.37553 -0.17611,1.11535 0.0308,0.28586 0.0732,0.54151 0.0943,0.56819 0.055,0.0696 0.10921,0.48012 0.10306,0.77928 -0.003,0.14091 0.0204,0.28702 0.0516,0.32466 0.0645,0.0777 0.0565,0.39235 -0.0117,0.4606 -0.0249,0.0248 -0.0453,0.12131 -0.0453,0.2143 0,0.12981 -0.0247,0.17988 -0.10671,0.21585 -0.091,0.0399 -0.10756,0.0854 -0.11213,0.30784 -0.003,0.14355 0.0174,0.3104 0.0453,0.37082 0.0325,0.0704 0.0343,0.13128 0.005,0.16947 -0.27887,0.36701 -0.44645,0.68203 -0.42263,0.79445 0.0168,0.0792 -4.3e-4,0.15147 -0.0472,0.19825 -0.0405,0.0405 -0.0745,0.15519 -0.0754,0.25493 -8.5e-4,0.0997 -0.0322,0.23473 -0.0695,0.29998 -0.0373,0.0652 -0.0686,0.17395 -0.0695,0.24153 -0.001,0.0843 -0.0392,0.13993 -0.12098,0.17722 -0.0656,0.0299 -0.14378,0.10816 -0.17368,0.17379 -0.0299,0.0656 -0.0723,0.11933 -0.0942,0.11933 -0.0219,0 -0.0399,0.0293 -0.0399,0.0653 0,0.036 -0.0339,0.0935 -0.0753,0.12786 -0.0501,0.0416 -0.0675,0.11074 -0.0524,0.20743 0.0178,0.11371 -0.007,0.17654 -0.11579,0.2908 -0.10149,0.10684 -0.15056,0.22054 -0.18397,0.42583 -0.0405,0.24866 -0.0707,0.30283 -0.26898,0.4823 -0.21989,0.19903 -0.22336,0.20667 -0.22615,0.49944 -0.003,0.28477 -0.008,0.29733 -0.12143,0.29733 -0.0909,0 -0.11588,-0.0222 -0.10693,-0.0949 0.0167,-0.13536 -0.0589,-0.23286 -0.15254,-0.19692 -0.0525,0.0202 -0.0695,0.0611 -0.0503,0.12165 0.0205,0.0648 0.002,0.10003 -0.0646,0.1211 -0.11979,0.038 -0.17345,0.27009 -0.0924,0.39982 0.0482,0.0771 0.0487,0.10999 0.003,0.15586 -0.0867,0.0867 -0.0705,0.21657 0.041,0.32798 0.15257,0.15257 0.24479,0.40736 0.18674,0.51583 -0.10322,0.19287 -0.0557,0.55262 0.12243,0.92795 0.23201,0.48879 0.2503,0.66237 0.0942,0.89119 -0.0676,0.099 -0.12276,0.20724 -0.12276,0.24043 0,0.0332 -0.0826,0.10677 -0.18353,0.16349 -0.19944,0.11209 -0.24936,0.25205 -0.26445,0.74153 -0.004,0.13084 -0.0318,0.24223 -0.0629,0.25261 -0.0306,0.0102 -0.0694,0.0919 -0.0862,0.18164 -0.0168,0.0897 -0.0495,0.17488 -0.0726,0.18918 -0.0585,0.0361 -0.0527,0.24415 0.0101,0.36141 0.0287,0.0536 0.0523,0.16686 0.0523,0.25161 0,0.0967 0.0422,0.19965 0.11335,0.2764 0.13131,0.14161 0.11281,0.29927 -0.025,0.2132 -0.0459,-0.0287 -0.14013,-0.038 -0.20932,-0.0206 -0.11354,0.0285 -0.12586,0.0531 -0.12586,0.25238 0,0.12941 -0.0293,0.25321 -0.0709,0.29921 -0.0662,0.0732 -0.0783,0.18982 -0.0761,0.73566 6.4e-4,0.11925 -0.0398,0.25155 -0.10826,0.35588 -0.22632,0.34476 -0.22838,0.35602 -0.0901,0.50465 0.0696,0.0748 0.14911,0.12769 0.17667,0.11756 0.0938,-0.0345 0.37751,-0.001 0.44133,0.0518 0.0469,0.0389 0.0781,0.0383 0.11855,-0.002 0.0302,-0.0302 0.088,-0.0553 0.12841,-0.0558 0.0781,-8.6e-4 0.382,-0.3374 0.382,-0.42296 0,-0.0279 0.0415,-0.0507 0.0922,-0.0507 0.0507,0 0.10417,-0.0196 0.11899,-0.0436 0.0266,-0.043 -0.0732,-0.16994 -0.15829,-0.20124 -0.0241,-0.009 -0.0512,-0.0695 -0.0602,-0.13472 -0.0131,-0.0952 0.002,-0.11639 0.0785,-0.10737 0.15925,0.0189 0.3085,-0.033 0.3085,-0.10715 0,-0.0387 -0.0214,-0.0702 -0.0475,-0.0702 -0.0261,0 -0.0474,-0.0519 -0.0474,-0.11534 0,-0.0816 0.0297,-0.11978 0.10184,-0.13051 0.11106,-0.0165 0.22361,-0.15629 0.16947,-0.21043 -0.0185,-0.0185 -0.10928,-0.0308 -0.20168,-0.0273 -0.13618,0.005 -0.17605,-0.0151 -0.21076,-0.10637 -0.0236,-0.062 -0.0655,-0.12667 -0.0932,-0.14379 -0.0277,-0.0171 -0.0505,-0.0757 -0.0505,-0.13007 0,-0.0938 0.0173,-0.0972 0.33219,-0.068 0.225,0.0209 0.33219,0.0143 0.33219,-0.0204 0,-0.0281 0.0328,-0.0839 0.0728,-0.12397 0.0567,-0.0567 0.0605,-0.0877 0.0169,-0.14014 -0.0796,-0.0959 -0.0221,-0.13026 0.0954,-0.0569 0.13035,0.0814 0.12695,0.0995 -0.0525,0.27895 l -0.15198,0.15198 0.1098,0.089 c 0.0604,0.0489 0.13942,0.0889 0.17568,0.0889 0.0362,0 0.066,0.032 0.066,0.0712 0,0.0392 -0.0401,0.0712 -0.0891,0.0712 -0.14395,0 -0.21295,0.11629 -0.14468,0.24386 0.0426,0.0796 0.0435,0.11225 0.003,0.12563 -0.0298,0.01 -0.0567,0.0856 -0.0598,0.16826 -0.003,0.0827 -0.0149,0.11473 -0.0265,0.0713 -0.0234,-0.0884 -0.14295,-0.14927 -0.21076,-0.10737 -0.10671,0.0659 0.0391,0.39994 0.17457,0.39994 0.0344,0 0.0735,0.0178 0.087,0.0396 0.0336,0.0543 -0.14506,0.40568 -0.25847,0.50831 -0.10966,0.0992 -0.11896,0.2474 -0.0239,0.38311 0.0956,0.13643 0.047,0.26634 -0.13106,0.35023 -0.15836,0.0746 -0.18731,0.1641 -0.17246,0.53377 0.006,0.13961 -0.0319,0.25356 -0.11634,0.35311 -0.10216,0.1205 -0.17346,0.10635 -0.13847,-0.0275 0.0129,-0.0492 2.1e-4,-0.10389 -0.0281,-0.12143 -0.0968,-0.0598 -0.0556,-0.20478 0.067,-0.23555 0.0652,-0.0164 0.11866,-0.0479 0.11866,-0.07 0,-0.0734 -0.1956,-0.29013 -0.26179,-0.29013 -0.0358,0 -0.0936,-0.0587 -0.1284,-0.13051 -0.0592,-0.12215 -0.0811,-0.12995 -0.34194,-0.12176 -0.27253,0.009 -0.38186,0.0689 -0.33883,0.18696 0.0107,0.0293 -0.0355,0.0826 -0.10272,0.11856 -0.12704,0.0679 -0.27376,0.34421 -0.22482,0.4234 0.0155,0.025 -0.029,0.0671 -0.0987,0.0937 -0.0943,0.0358 -0.12045,0.0724 -0.10217,0.14235 0.0271,0.10371 -0.0568,0.12722 -0.14368,0.0403 -0.092,-0.092 -0.21051,-0.009 -0.19382,0.13648 0.0129,0.11241 0.039,0.13274 0.18552,0.14501 0.14385,0.0121 0.18603,0.0436 0.27054,0.20191 l 0.10017,0.18762 -0.12264,0.11368 c -0.11043,0.1024 -0.11736,0.12871 -0.0701,0.26434 0.0425,0.12181 0.0381,0.17271 -0.0229,0.26578 -0.0845,0.12894 -0.11644,0.13904 -0.19415,0.0613 -0.0758,-0.0758 -0.20257,-0.0149 -0.20257,0.0973 0,0.0517 0.0373,0.11586 0.083,0.14246 0.0918,0.0535 0.0667,0.0634 -0.17789,0.0703 -0.16323,0.005 -0.16613,0.008 -0.1677,0.20987 -8.5e-4,0.11288 0.0161,0.21627 0.0379,0.22969 0.0539,0.0333 -0.0555,0.15829 -0.13848,0.15829 -0.0368,0 -0.0792,0.032 -0.0942,0.0712 -0.015,0.0391 -0.0577,0.0712 -0.0949,0.0712 -0.0372,0 -0.0798,0.032 -0.0949,0.0712 -0.015,0.0392 -0.0581,0.0712 -0.0957,0.0712 -0.11733,0 -0.30119,0.22391 -0.30119,0.36684 0,0.14813 0.23433,0.3924 0.37647,0.3924 0.0451,0 0.17428,-0.0827 0.28714,-0.18386 l 0.20522,-0.18397 0.16084,0.0949 c 0.0884,0.0522 0.17389,0.0818 0.18995,0.0658 0.0161,-0.0161 0.0525,-0.0111 0.081,0.0111 0.10811,0.0842 0.34578,0.0966 0.4503,0.0234 0.0821,-0.0575 0.1182,-0.0608 0.1729,-0.0154 0.10827,0.0899 0.0829,0.1215 -0.10184,0.12674 -0.0941,0.003 -0.18945,0.0233 -0.21198,0.0458 -0.0528,0.0528 -10e-4,0.25282 0.0652,0.25282 0.0279,0 -0.0106,0.0641 -0.0856,0.14235 -0.075,0.0783 -0.11802,0.14235 -0.0955,0.14235 0.0225,0 -0.003,0.0481 -0.0568,0.10682 -0.0537,0.0587 -0.11236,0.1548 -0.13017,0.21353 -0.0396,0.13047 -0.0814,0.13411 -0.18818,0.0161 -0.11359,-0.12552 -0.31896,-0.1716 -0.38178,-0.0857 -0.0272,0.0373 -0.10292,0.0654 -0.16804,0.0627 -0.0886,-0.004 -0.12215,0.0219 -0.13349,0.10172 -0.0105,0.0738 0.009,0.10682 0.0632,0.10682 0.12261,0 0.055,0.11338 -0.0991,0.16604 -0.24115,0.0824 -0.26008,0.10911 -0.22659,0.31858 0.0247,0.15433 0.014,0.20669 -0.0521,0.25504 -0.0648,0.0474 -0.0795,0.11375 -0.0665,0.30119 0.009,0.13224 0.003,0.24045 -0.0137,0.24043 -0.0523,-6e-5 -0.10004,0.35194 -0.05,0.36861 0.0256,0.009 0.0353,0.0584 0.0216,0.11091 -0.0179,0.0685 0.003,0.10271 0.0725,0.12099 0.0826,0.0216 0.0934,0.0518 0.0708,0.1988 -0.0146,0.0954 -0.0431,0.19474 -0.0632,0.22084 -0.0201,0.0261 -0.0511,0.12507 -0.0689,0.21995 -0.0384,0.20569 0.0291,0.26944 0.19272,0.18186 0.0918,-0.0491 0.12667,-0.0485 0.18951,0.004 0.0699,0.058 0.0676,0.0674 -0.0256,0.10183 -0.065,0.024 -0.0958,0.0685 -0.0838,0.12121 0.0104,0.0458 -0.005,0.13666 -0.0345,0.20191 -0.044,0.0977 -0.0579,0.4166 -0.0304,0.69892 0.009,0.0898 0.21996,0.20856 0.30971,0.17412 0.0441,-0.0169 0.10948,-0.0975 0.14523,-0.17899 0.0633,-0.14426 0.0651,-0.14508 0.0689,-0.0273 0.002,0.0665 0.0306,0.14938 0.0632,0.18397 0.0475,0.0503 0.0475,0.0672 0,0.0846 -0.0721,0.0264 -0.0791,0.1891 -0.009,0.21242 0.0761,0.0254 0.003,0.1685 -0.0997,0.19537 -0.0498,0.013 -0.11727,0.0845 -0.14999,0.15885 -0.0327,0.0744 -0.0777,0.14827 -0.0999,0.16415 -0.0222,0.0159 -0.0333,0.0906 -0.0247,0.16604 0.0131,0.11462 0.0352,0.13522 0.13427,0.12498 0.0652,-0.007 0.15379,-0.0544 0.1967,-0.10583 0.0686,-0.0823 0.0852,-0.0849 0.13726,-0.0221 0.0326,0.0393 0.0509,0.0761 0.0406,0.082 -0.0102,0.006 -0.0614,0.0344 -0.11357,0.0633 -0.0522,0.0289 -0.10241,0.0911 -0.11169,0.13836 -0.0212,0.10805 0.0859,0.4577 0.15951,0.52081 0.0305,0.0261 0.0805,0.0948 0.11125,0.15254 0.0315,0.0591 0.0845,0.094 0.12121,0.0799 0.0359,-0.0138 0.14294,0.0432 0.23788,0.12652 0.16699,0.14663 0.17573,0.14885 0.26622,0.067 0.0514,-0.0465 0.0935,-0.11115 0.0935,-0.14346 0,-0.099 0.13506,-0.11916 0.16505,-0.0247 0.0152,0.0478 0.0964,0.10362 0.18043,0.12409 0.15117,0.0368 0.15135,0.0373 0.0262,0.0558 -0.15958,0.0235 -0.20814,0.14284 -0.10471,0.25714 0.0595,0.0657 0.0954,0.0748 0.14213,0.036 0.0465,-0.0386 0.0911,-0.0294 0.17445,0.0362 0.16263,0.12793 0.11596,0.20797 -0.0885,0.15154 -0.0903,-0.0249 -0.1855,-0.0323 -0.21142,-0.0163 -0.0259,0.016 -0.10902,-0.0149 -0.18464,-0.0687 -0.0756,-0.0538 -0.16237,-0.098 -0.19282,-0.098 -0.0305,0 -0.0874,-0.032 -0.12653,-0.0712 -0.0912,-0.0912 -0.2493,-0.0917 -0.28415,-8.6e-4 -0.0325,0.0848 0.24646,0.45174 0.34349,0.45174 0.0376,0 0.0888,0.0539 0.1139,0.11977 0.0251,0.0659 0.0766,0.13179 0.11446,0.14634 0.0379,0.0145 0.0581,0.0548 0.0448,0.0894 -0.0449,0.11696 0.17258,0.13677 0.31835,0.029 0.0743,-0.0549 0.14651,-0.0999 0.16062,-0.0999 0.0141,0 0.0257,0.10416 0.0257,0.23146 0,0.2429 0.0758,0.36056 0.20135,0.31238 0.0394,-0.0151 0.0831,0.004 0.0981,0.043 0.0162,0.0422 0.0638,0.0606 0.11933,0.046 0.0508,-0.0133 0.10772,4.2e-4 0.1263,0.0304 0.0239,0.0387 0.0621,0.0296 0.13117,-0.0314 0.0963,-0.0851 0.0971,-0.0843 0.068,0.0666 -0.0162,0.084 -0.0729,0.19604 -0.12586,0.24906 -0.053,0.053 -0.0964,0.11826 -0.0964,0.14501 0,0.0678 0.21094,0.1409 0.43159,0.14954 0.10195,0.004 0.1853,0.0251 0.1853,0.0469 0,0.056 0.17812,0.0494 0.21353,-0.008 0.0161,-0.0261 0.0841,-0.0474 0.15098,-0.0474 0.10232,0 0.11239,0.0112 0.0631,0.0706 -0.0476,0.0573 -0.0438,0.0763 0.0199,0.10073 0.0432,0.0166 0.0918,0.017 0.10792,8.6e-4 0.0161,-0.0161 0.053,0.0186 0.082,0.0771 0.0331,0.0669 0.10537,0.11245 0.19404,0.12254 0.0777,0.009 0.16607,0.0366 0.19637,0.0617 0.0356,0.0294 0.066,0.0279 0.0859,-0.004 0.0169,-0.0274 0.0775,-0.0481 0.13472,-0.046 0.0572,0.002 0.0772,0.0145 0.0446,0.0277 -0.0819,0.0331 -0.076,0.25327 0.007,0.25327 0.0364,0 0.0788,0.0331 0.0943,0.0735 0.0194,0.0507 0.0908,0.0729 0.23046,0.0721 0.35158,-0.002 0.41587,0.013 0.41587,0.0978 0,0.0944 0.39386,0.30162 0.49768,0.26178 0.0378,-0.0145 0.0813,-0.006 0.0968,0.019 0.0154,0.025 0.0802,0.0454 0.14401,0.0454 0.0638,0 0.19572,0.0427 0.29311,0.0949 0.23866,0.12791 0.42206,0.11938 0.61601,-0.0286 0.18531,-0.14134 0.27477,-0.11789 0.10306,0.027 l -0.11346,0.0959 0.15497,0.14269 c 0.18238,0.16791 0.22756,0.17515 0.29577,0.0477 0.0711,-0.13281 0.14235,-0.11822 0.14235,0.0291 0,0.11058 0.0153,0.12176 0.14125,0.10328 0.0777,-0.0114 0.14715,-0.003 0.15441,0.0189 0.007,0.0218 0.13574,0.0447 0.28548,0.0509 0.22318,0.009 0.27231,0.0263 0.27264,0.0944 4.3e-4,0.10949 0.30855,0.11744 0.36894,0.01 0.0386,-0.069 0.0851,-0.0779 0.31946,-0.0611 0.0522,0.004 0.17584,-0.01 0.27474,-0.0298 0.13744,-0.028 0.17666,-0.0221 0.16615,0.0252 -0.008,0.0341 0.061,0.0996 0.15232,0.14568 0.20194,0.10182 0.17706,0.0985 0.2878,0.0392 0.135,-0.0722 0.11288,-0.25818 -0.0506,-0.42539 -0.0783,-0.0801 -0.14235,-0.15166 -0.14235,-0.15896 0,-0.0408 0.81438,0.0221 0.92219,0.0712 0.0999,0.0455 0.16163,0.0461 0.27695,0.003 0.10366,-0.0391 0.15779,-0.0408 0.17955,-0.006 0.0171,0.0277 0.10366,0.0434 0.19227,0.035 0.14095,-0.0134 0.16093,-0.0317 0.15929,-0.1459 -10e-4,-0.0718 0.0149,-0.1305 0.0355,-0.1305 0.0206,0 0.0374,-0.0343 0.0374,-0.0763 0,-0.05 0.0259,-0.0663 0.0752,-0.0474 0.0413,0.0159 0.0999,0.0294 0.13039,0.0302 0.0305,8.6e-4 0.0181,0.0232 -0.0276,0.0498 -0.10208,0.0595 -0.10898,0.2265 -0.011,0.26412 0.0396,0.0152 0.13601,0.001 0.2143,-0.0313 0.11342,-0.047 0.13974,-0.0843 0.12962,-0.18342 -0.0121,-0.11878 -4.3e-4,-0.12539 0.25825,-0.14844 0.14898,-0.0133 0.2955,-0.0488 0.32555,-0.0788 0.0379,-0.0379 0.0946,-0.0407 0.18485,-0.009 0.0716,0.025 0.23954,0.0368 0.37315,0.0262 0.25575,-0.0202 0.35375,-0.0936 0.51185,-0.38311 0.10388,-0.19026 0.029,-0.22582 -0.39673,-0.18862 -0.31649,0.0277 -0.89631,-0.0458 -0.96115,-0.12176 -0.013,-0.0153 -0.14781,-0.069 -0.29954,-0.11933 -0.15171,-0.0504 -0.29467,-0.12656 -0.31757,-0.16936 -0.0229,-0.0428 -0.17628,-0.11865 -0.34094,-0.16847 -0.36913,-0.1117 -0.79766,-0.33877 -0.79766,-0.42274 0,-0.0344 -0.0562,-0.0765 -0.12475,-0.0938 -0.20349,-0.0511 -0.45145,-0.2456 -0.55955,-0.4389 -0.0891,-0.15927 -0.12489,-0.18251 -0.30153,-0.19537 -0.1283,-0.009 -0.20047,-0.0374 -0.20047,-0.0779 0,-0.0814 0.10579,-0.12162 0.23268,-0.0884 0.11939,0.0312 0.12135,0.0158 0.0239,-0.1852 -0.0416,-0.0857 -0.22736,-0.278 -0.41289,-0.42738 -0.29211,-0.23519 -0.34722,-0.26285 -0.41089,-0.20678 -0.12506,0.11015 -0.45163,0.14092 -0.54151,0.051 -0.0427,-0.0427 -0.0777,-0.0961 -0.0777,-0.11855 0,-0.0225 -0.0469,-0.0557 -0.10427,-0.0739 l -0.10427,-0.0331 0.10958,-0.0888 c 0.13139,-0.10639 0.25438,-0.11226 0.42385,-0.0204 0.0693,0.0376 0.28554,0.0899 0.48063,0.11634 0.30478,0.0413 0.36665,0.0372 0.43934,-0.0286 0.0801,-0.0725 0.0685,-0.0933 -0.21464,-0.38919 -0.35708,-0.37312 -0.50812,-0.58094 -0.50852,-0.69959 -1.7e-4,-0.0482 -0.0287,-0.14208 -0.0635,-0.20876 -0.22451,-0.43022 -0.24193,-0.86276 -0.0454,-1.12742 0.14114,-0.19007 0.51555,-0.34768 1.21253,-0.51062 0.0718,-0.0168 0.13051,-0.0481 0.13051,-0.0696 0,-0.0215 0.0442,-0.0532 0.0982,-0.0703 0.12662,-0.0402 0.28105,-0.29397 0.28128,-0.46226 1.1e-4,-0.0721 0.0215,-0.17352 0.0476,-0.22537 0.0261,-0.0518 0.0691,-0.13732 0.0956,-0.18984 0.0265,-0.0525 0.0352,-0.14761 0.0191,-0.21142 -0.0349,-0.13915 0.13981,-0.3244 0.38112,-0.40403 0.085,-0.028 0.17726,-0.10103 0.20512,-0.16217 0.0279,-0.0611 0.10965,-0.12602 0.18175,-0.14412 0.0721,-0.0181 0.19291,-0.0849 0.26844,-0.14844 0.0755,-0.0636 0.19243,-0.11556 0.25979,-0.11556 0.0698,0 0.22641,-0.0801 0.36407,-0.18608 0.15062,-0.11601 0.30428,-0.19199 0.4078,-0.20168 0.12553,-0.0118 0.16607,-0.0373 0.16626,-0.10505 1.1e-4,-0.0493 0.0452,-0.1063 0.10018,-0.12663 0.14406,-0.0533 0.18477,-0.18974 0.0659,-0.22084 -0.11328,-0.0296 -0.11243,-0.0228 -0.0281,-0.22459 0.0656,-0.15706 0.096,-0.3725 0.0822,-0.58302 -0.01,-0.14788 -0.2095,-0.2638 -0.44731,-0.25947 -0.43755,0.008 -0.90476,-0.0843 -1.10074,-0.21718 -0.10498,-0.0712 -0.21692,-0.16421 -0.24884,-0.20678 -0.0319,-0.0426 -0.1419,-0.1109 -0.2443,-0.15187 -0.33083,-0.13237 -0.50021,-0.49984 -0.35997,-0.78094 0.042,-0.0841 0.11462,-0.17344 0.16139,-0.19847 0.0468,-0.025 0.0976,-0.10862 0.11302,-0.18575 0.0165,-0.0823 0.0671,-0.15255 0.12253,-0.17013 0.0519,-0.0165 0.10764,-0.0718 0.12387,-0.12298 0.0439,-0.13849 0.24769,-0.22277 0.61767,-0.25548 0.26847,-0.0237 0.35094,-0.0511 0.43923,-0.14634 0.12758,-0.13757 0.13686,-0.13943 0.23068,-0.0456 0.0394,0.0394 0.0908,0.0598 0.11424,0.0453 0.0944,-0.0583 0.77965,-0.10863 0.81005,-0.0594 0.034,0.055 0.13616,0.01 0.13616,-0.0602 0,-0.0246 -0.032,-0.0447 -0.0712,-0.0447 -0.0392,0 -0.0666,-0.016 -0.0611,-0.0355 0.0193,-0.0682 -0.10879,-0.24917 -0.17634,-0.24917 -0.0448,0 -0.0576,-0.0283 -0.0374,-0.083 0.0384,-0.10396 0.10772,-0.1526 0.21895,-0.15353 0.0866,-6.5e-4 0.22194,-0.1054 0.22194,-0.17158 0,-0.0194 0.0338,-0.0724 0.075,-0.118 0.0605,-0.0669 0.0642,-0.10291 0.0193,-0.18685 -0.0402,-0.0752 -0.0413,-0.11825 -0.004,-0.15575 0.072,-0.0721 0.0647,-0.22444 -0.0151,-0.31381 -0.0368,-0.0412 -0.0727,-0.139 -0.0798,-0.21729 -0.0108,-0.11912 0.0348,-0.18977 0.27917,-0.43248 0.22579,-0.22423 0.34361,-0.30316 0.51882,-0.34769 0.28644,-0.0728 0.450782,-0.16005 0.511292,-0.27142 0.0368,-0.0678 0.11115,-0.0896 0.33219,-0.0973 0.1566,-0.005 0.33239,-0.0217 0.39064,-0.0362 0.14797,-0.0368 0.24995,-0.26107 0.24995,-0.54959 0,-0.20299 -0.0254,-0.27694 -0.14977,-0.43392 -0.13093,-0.16532 -0.16788,-0.18557 -0.29212,-0.16072 -0.0782,0.0156 -0.1739,0.055 -0.21264,0.0874 -0.30909,0.259 -1.348782,0.11235 -1.263572,-0.17822 0.0153,-0.0522 0.0469,-0.20098 0.0702,-0.33053 0.0375,-0.20877 0.0306,-0.24784 -0.0596,-0.34382 -0.0822,-0.0875 -0.10244,-0.16963 -0.10549,-0.42871 -0.004,-0.36058 -0.0462,-0.33663 0.44709,-0.25482 0.32525,0.0539 0.47949,0.0992 0.564202,0.16593 0.1403,0.11044 0.52537,0.18647 1.04063,0.20534 0.45718,0.0168 0.58779,0.004 0.8778,-0.0856 0.1874,-0.0578 0.37285,-0.12089 0.412,-0.14013 0.0392,-0.0193 0.12846,-0.0576 0.19847,-0.0851 0.0882,-0.0347 0.17201,-0.14163 0.27286,-0.34835 0.17552,-0.35977 0.1771,-0.3868 0.0299,-0.49757 -0.0705,-0.053 -0.12855,-0.15845 -0.14866,-0.27009 -0.0297,-0.16475 -0.024,-0.18033 0.0563,-0.1553 0.1468,0.0457 0.19262,-0.0255 0.22072,-0.34326 0.0147,-0.16614 0.0498,-0.32526 0.0781,-0.35355 0.0283,-0.0283 0.0515,-0.0873 0.0515,-0.13129 0,-0.0439 0.0427,-0.0911 0.0949,-0.10471 0.0641,-0.0168 0.0949,-0.0647 0.0949,-0.14789 0,-0.0677 -0.0213,-0.12309 -0.0474,-0.12309 -0.0261,0 -0.0475,-0.017 -0.0475,-0.0377 0,-0.0475 0.21709,-0.0457 0.265,0.002 0.0926,0.0926 0.72542,0.0371 2.29744,-0.20146 2.00862,-0.30484 3.26879,-0.78658 3.27575,-1.25228 0.002,-0.11265 0.1505,-0.29755 0.33595,-0.41731 0.0678,-0.0438 0.20263,-0.19904 0.29954,-0.34503 0.0969,-0.14599 0.22856,-0.32202 0.29267,-0.39119 0.15109,-0.16303 0.17949,-0.28803 0.14966,-0.65973 -0.0306,-0.38141 -0.0787,-0.44414 -0.31581,-0.41234 -0.15919,0.0214 -0.20554,0.003 -0.37237,-0.14777 -0.27928,-0.25232 -0.29151,-0.49973 -0.0348,-0.70169 0.19651,-0.15457 0.16006,-0.3361 -0.12276,-0.61158 -0.13251,-0.12906 -0.34074,-0.2799 -0.4627,-0.33518 -0.12196,-0.0553 -0.23235,-0.11461 -0.2454,-0.13194 -0.0131,-0.0173 -0.11988,-0.0598 -0.23733,-0.0943 -0.30222,-0.0888 -0.39214,-0.13746 -0.48362,-0.26178 -0.10505,-0.14279 -0.0618,-0.2946 0.10007,-0.35101 0.17502,-0.061 0.35241,0.0372 0.38432,0.21286 l 0.0245,0.13449 0.54594,-0.0172 0.54594,-0.0173 0.14589,0.14921 c 0.1115,0.11405 0.21484,0.16207 0.43801,0.20357 0.16063,0.0299 0.29201,0.0791 0.29201,0.10948 0,0.0754 0.34784,0.18477 0.47875,0.15054 0.0583,-0.0152 0.1469,-0.006 0.19681,0.0208 0.0741,0.0397 0.0954,0.0305 0.11645,-0.0499 0.0146,-0.0557 0.0646,-0.0984 0.11512,-0.0984 0.0492,0 0.0893,-0.0221 0.0893,-0.0491 0,-0.0339 0.0286,-0.0339 0.0919,0 0.0505,0.027 0.15188,0.0498 0.22537,0.0506 0.0735,8.6e-4 0.17449,0.0324 0.22438,0.0702 0.0499,0.0378 0.1362,0.0572 0.19183,0.0433 0.0623,-0.0157 0.15025,0.0132 0.22913,0.0753 0.12067,0.0949 0.2574,0.0924 0.19804,-0.004 -0.015,-0.0243 -0.004,-0.0442 0.0256,-0.0442 0.0291,0 0.18024,-0.0632 0.33584,-0.14036 0.15561,-0.0772 0.35655,-0.15424 0.44654,-0.17113 0.0968,-0.0181 0.17457,-0.0653 0.1905,-0.11545 0.0148,-0.0467 0.0957,-0.11199 0.17965,-0.14512 0.19473,-0.0768 0.36547,-0.2286 0.33795,-0.30031 -0.0117,-0.0305 0.0646,-0.13939 0.16958,-0.24187 0.10495,-0.10248 0.19073,-0.22362 0.19073,-0.26931 0,-0.0479 0.16381,-0.2097 0.38654,-0.3819 0.63889,-0.49391 0.70164,-0.57297 0.99037,-1.24784 0.0223,-0.0522 0.0835,-0.19638 0.13593,-0.32035 0.0524,-0.12397 0.11553,-0.22537 0.14036,-0.22537 0.0248,0 0.14705,-0.0962 0.27153,-0.21375 0.12448,-0.11758 0.3354,-0.26543 0.46879,-0.32854 0.13338,-0.0631 0.28269,-0.1591 0.33175,-0.2133 0.0491,-0.0542 0.10809,-0.0985 0.13117,-0.0985 0.0527,0 0.74896,-0.70044 0.84492,-0.85001 0.0392,-0.061 0.16194,-0.22942 0.27286,-0.37426 0.11092,-0.14485 0.20168,-0.28305 0.20168,-0.30717 0,-0.0452 0.0337,-0.1234 0.28039,-0.65143 0.2,-0.42806 0.3193,-0.62735 0.43082,-0.7194 0.0525,-0.0433 0.0957,-0.0968 0.096,-0.11866 0.002,-0.11566 0.58919,-0.63223 0.92706,-0.81493 0.16311,-0.0882 0.2647,-0.18549 0.33595,-0.32167 0.0866,-0.1655 0.18187,-0.52454 0.1625,-0.61247 -0.009,-0.0417 0.12822,-0.16515 0.18397,-0.16515 0.0682,0 0.0643,-0.0623 -0.008,-0.13604 -0.0475,-0.0482 -0.043,-0.0723 0.0231,-0.1211 0.0458,-0.0338 0.0908,-0.14327 0.10128,-0.24596 0.0103,-0.10173 0.0341,-0.22177 0.0527,-0.26677 0.0339,-0.0819 -0.0658,-0.22659 -0.15608,-0.22659 -0.0829,0 -0.16055,-0.13772 -0.17688,-0.31349 -0.009,-0.0958 -0.0372,-0.19514 -0.0629,-0.22083 -0.0511,-0.0511 -0.0277,-0.14254 0.0795,-0.30994 0.10346,-0.16162 0.12131,-0.48481 0.0304,-0.55125 -0.0666,-0.0487 -0.0648,-0.0749 0.0178,-0.25936 0.0505,-0.11285 0.10093,-0.17786 0.11202,-0.14456 0.0117,0.0353 0.0451,0.0451 0.0799,0.0236 0.0328,-0.0203 0.0482,-0.067 0.0341,-0.10383 -0.0293,-0.0764 0.26223,-0.39805 0.36086,-0.39805 0.0357,0 0.10274,-0.064 0.14899,-0.14235 0.0462,-0.0783 0.10423,-0.14235 0.12885,-0.14235 0.0246,0 0.0448,-0.0496 0.0448,-0.11014 0,-0.11931 0.17279,-0.29298 0.40779,-0.40979 0.22782,-0.11323 0.73004,-0.49399 0.73058,-0.55391 2.1e-4,-0.0295 0.0645,-0.08 0.14279,-0.11246 0.0783,-0.0324 0.14236,-0.0769 0.14236,-0.0988 0,-0.0581 0.46445,-0.18682 0.55236,-0.15309 0.0485,0.0186 0.13034,-0.032 0.23334,-0.14446 0.16197,-0.1768 0.2913,-0.216 0.3892,-0.11811 0.0405,0.0405 0.0716,0.0411 0.11866,0.002 0.0736,-0.0611 0.26611,-0.0223 0.36152,0.0729 0.036,0.0359 0.0941,0.0544 0.12907,0.041 0.0349,-0.0134 0.0761,-0.004 0.0915,0.021 0.0441,0.0714 0.11735,0.0532 0.15175,-0.0376 0.045,-0.11874 0.13672,-0.20168 0.22316,-0.20168 0.0429,0 0.0746,-0.0403 0.0746,-0.095 0,-0.0527 -0.0316,-0.0949 -0.0712,-0.0949 -0.0392,0 -0.0712,0.0195 -0.0712,0.0433 0,0.0583 -0.15666,0.0324 -0.17722,-0.0292 -0.009,-0.0269 0.0458,-0.0613 0.12176,-0.0765 0.0859,-0.0172 0.14777,-0.0649 0.16383,-0.1263 0.0142,-0.0543 0.0437,-0.0938 0.0655,-0.0878 0.0402,0.0111 0.3539,-0.0416 0.4979,-0.0837 0.11738,-0.0343 0.14741,-0.16422 0.0602,-0.26057 -0.0967,-0.10686 -0.0512,-0.18596 0.10704,-0.18596 0.10228,0 0.11235,0.0113 0.0631,0.0706 -0.0322,0.0388 -0.0462,0.10281 -0.0311,0.14224 0.0331,0.0864 0.35888,0.0607 0.43391,-0.0342 0.0282,-0.0357 0.19199,-0.0669 0.40337,-0.077 0.19574,-0.009 0.37831,-0.0351 0.4058,-0.0573 0.0809,-0.0653 1.28118,-0.14507 1.66295,-0.11047 0.31902,0.0289 0.35134,0.0239 0.35134,-0.054 0,-0.0472 0.037,-0.1268 0.0824,-0.17688 0.0782,-0.0865 0.0782,-0.0941 0,-0.15132 -0.0453,-0.0331 -0.0824,-0.0799 -0.0824,-0.10383 0,-0.0922 0.32882,-0.3763 0.50421,-0.43569 0.23798,-0.0806 0.32592,-0.11553 0.59907,-0.23821 0.25241,-0.11336 0.26434,-0.15341 0.17301,-0.57926 -0.0382,-0.17806 -0.0382,-0.25836 0,-0.29655 0.0288,-0.0288 0.0524,-0.0875 0.0524,-0.13051 0,-0.043 0.0418,-0.12632 0.0929,-0.18519 0.0511,-0.0589 0.11601,-0.17422 0.14435,-0.25636 0.0509,-0.14753 0.32043,-0.36296 0.45417,-0.36296 0.0373,0 0.0679,-0.0421 0.0679,-0.0936 0,-0.0515 0.0747,-0.23219 0.16604,-0.40138 0.0913,-0.16917 0.16615,-0.35348 0.16615,-0.40956 0,-0.12292 0.25344,-0.45521 0.37713,-0.49447 0.17392,-0.0552 0.24048,-0.35196 0.20766,-0.92562 -0.029,-0.50638 0.0379,-1.0445 0.12984,-1.0445 0.0194,0 0.0793,-0.0747 0.13317,-0.16604 0.0539,-0.0913 0.13027,-0.16604 0.16969,-0.16604 0.0394,0 0.10908,-0.0587 0.15475,-0.13051 0.0457,-0.0718 0.0983,-0.14166 0.11689,-0.1553 0.0186,-0.0136 0.0103,-0.17747 -0.0186,-0.36407 -0.0442,-0.28581 -0.0405,-0.3716 0.0237,-0.54461 0.0419,-0.11295 0.0907,-0.33356 0.10859,-0.49015 0.0178,-0.15659 0.0484,-0.30609 0.0678,-0.33219 0.0195,-0.0261 0.0496,-0.12661 0.0671,-0.22338 0.0174,-0.0968 0.0628,-0.23552 0.10084,-0.30839 0.0875,-0.16774 0.0871,-0.24535 -0.002,-0.45927 -0.1125,-0.26924 -0.18099,-1.32366 -0.11656,-1.79423 0.0296,-0.21649 0.0738,-0.41759 0.0981,-0.44687 0.0285,-0.0343 0.0187,-0.0744 -0.0276,-0.11279 -0.0918,-0.0762 -0.0921,-0.18537 -6.4e-4,-0.22051 0.088,-0.0338 0.099,-0.44486 0.0142,-0.52966 -0.0313,-0.0313 -0.036,-0.057 -0.0105,-0.057 0.0255,0 0.11651,-0.0641 0.20224,-0.14235 0.11058,-0.101 0.20383,-0.14235 0.3209,-0.14235 0.13281,0 0.20192,-0.0394 0.35422,-0.20169 0.10406,-0.11092 0.24195,-0.25577 0.30651,-0.322 0.0645,-0.0662 0.11744,-0.14146 0.11744,-0.16715 0,-0.0257 0.0623,-0.12243 0.13848,-0.21486 0.13594,-0.16492 0.4835,-0.8178 0.54727,-1.028 0.0178,-0.0587 0.0521,-0.10671 0.0763,-0.10671 0.0241,0 0.0814,-0.0711 0.1273,-0.15796 0.0905,-0.17133 0.36249,-0.59587 0.43082,-0.67247 0.15282,-0.17131 0.52293,-0.40336 0.64335,-0.40336 0.041,0 0.10747,-0.0636 0.14767,-0.14136 0.0402,-0.0777 0.18925,-0.27161 0.3313,-0.43081 0.14206,-0.15921 0.27027,-0.3273 0.28492,-0.37348 0.0147,-0.0462 0.0797,-0.1081 0.14446,-0.1376 0.0647,-0.0295 0.11767,-0.0776 0.11767,-0.10682 0,-0.0292 0.0648,-0.12043 0.14412,-0.20268 0.0793,-0.0822 0.19456,-0.20285 0.25603,-0.26809 0.12756,-0.13538 0.40658,-0.64512 0.40658,-0.74276 0,-0.0358 0.0397,-0.15558 0.0882,-0.26622 0.19567,-0.44619 0.24414,-0.71929 0.25161,-1.41598 0.006,-0.60648 -0.005,-0.71256 -0.0982,-0.94422 -0.058,-0.14354 -0.11315,-0.31443 -0.12265,-0.37968 -0.0312,-0.21455 -0.16609,-0.69226 -0.26123,-0.92528 -0.0213,-0.0522 -0.0647,-0.19548 -0.0963,-0.31836 -0.0316,-0.12287 -0.12788,-0.30566 -0.21396,-0.40624 -0.13544,-0.15823 -0.19702,-0.18992 -0.45706,-0.23511 -0.16528,-0.0287 -0.52328,-0.0432 -0.79555,-0.0322 -0.46988,0.019 -0.50393,0.0139 -0.66992,-0.10118 -0.0962,-0.0666 -0.1937,-0.1177 -0.21673,-0.11346 -0.14132,0.026 -0.24514,-0.0206 -0.31736,-0.1429 -0.0806,-0.13646 -0.11129,-0.15387 -0.37614,-0.21276 -0.0786,-0.0175 -0.15846,-0.0845 -0.2029,-0.17046 -0.0403,-0.0779 -0.0994,-0.14197 -0.13139,-0.14224 -0.0654,-6.5e-4 -0.38995,-0.30464 -0.67501,-0.63251 -0.1044,-0.12007 -0.25378,-0.24419 -0.33208,-0.27584 -0.13655,-0.0552 -0.34307,-0.19862 -0.50233,-0.34891 -0.0413,-0.039 -0.0992,-0.0708 -0.12873,-0.0708 -0.0295,0 -0.12393,-0.061 -0.20966,-0.13549 -0.0857,-0.0745 -0.2413,-0.17466 -0.34569,-0.22261 -0.1044,-0.0479 -0.2705,-0.13718 -0.36916,-0.19825 -0.3105,-0.19219 -0.7925,-0.24591 -1.41024,-0.15718 -0.19574,0.0281 -0.51261,0.0522 -0.70412,0.0537 -0.29589,0.002 -0.37434,-0.0152 -0.52203,-0.116 -0.19261,-0.13143 -0.70682,-0.2229 -0.7609,-0.13538 -0.037,0.0598 -0.53977,-0.0969 -0.56631,-0.17656 -0.009,-0.0281 -0.0419,-0.0512 -0.0724,-0.0514 -0.066,-2.1e-4 -0.59011,-0.21021 -0.63383,-0.25393 -0.0478,-0.0478 -0.24306,-0.0358 -0.27563,0.0169 -0.0473,0.0765 -0.16651,0.0561 -0.13604,-0.0233 0.0153,-0.0399 -0.005,-0.0831 -0.0464,-0.099 -0.0797,-0.0306 -0.40851,0.26332 -0.41378,0.36982 -0.002,0.0335 -0.0232,0.0105 -0.0479,-0.0511 -0.0409,-0.1021 -0.0639,-0.10925 -0.25802,-0.0801 -0.19572,0.0293 -0.21309,0.0236 -0.21309,-0.0691 0,-0.13624 -0.084,-0.28448 -0.16117,-0.28448 -0.0403,0 -0.0553,-0.0397 -0.0417,-0.11059 0.0116,-0.0608 -0.0158,-0.19425 -0.061,-0.29654 -0.0452,-0.10229 -0.0877,-0.21183 -0.0944,-0.24342 -0.007,-0.0316 -0.063,-0.10639 -0.12508,-0.16615 -0.062,-0.0598 -0.14996,-0.16732 -0.19538,-0.2391 -0.11312,-0.17876 -0.26415,-0.17283 -0.30108,0.0118 -0.022,0.11022 -0.0539,0.14235 -0.14114,0.14235 -0.0807,0 -0.11279,-0.0267 -0.11279,-0.094 0,-0.0635 -0.0423,-0.104 -0.1304,-0.12475 -0.0718,-0.0169 -0.18799,-0.0842 -0.25825,-0.14955 -0.0837,-0.0778 -0.16152,-0.10993 -0.22548,-0.0932 -0.0537,0.014 -0.0976,0.009 -0.0976,-0.0122 0,-0.0207 -0.0748,-0.0518 -0.16626,-0.069 -0.0914,-0.0172 -0.20763,-0.0755 -0.25814,-0.12973 -0.0671,-0.0721 -0.1245,-0.0904 -0.21331,-0.0681 -0.0708,0.0178 -0.12154,0.0103 -0.12154,-0.0179 0,-0.0266 -0.0493,-0.0483 -0.10958,-0.0483 -0.0603,0 -0.15088,-0.0303 -0.20147,-0.0673 -0.0644,-0.0471 -0.10965,-0.0526 -0.15087,-0.0184 -0.042,0.0349 -0.0669,0.0279 -0.0869,-0.0241 -0.0227,-0.0592 -0.25914,-0.13324 -0.43513,-0.13626 -0.0199,-4.3e-4 -0.0782,-0.023 -0.12951,-0.0505 -0.0513,-0.0274 -0.19412,-0.0559 -0.31747,-0.0633 -0.12335,-0.007 -0.26697,-0.0363 -0.31913,-0.0642 -0.0595,-0.0318 -0.10534,-0.0339 -0.12298,-0.005 -0.0155,0.025 -0.056,0.0348 -0.0901,0.0217 -0.0341,-0.0131 -0.0895,0.009 -0.12297,0.0496 -0.0335,0.0403 -0.0876,0.0733 -0.12022,0.0733 -0.0529,0 -0.2459,0.19971 -0.55911,0.57827 -0.058,0.0701 -0.12072,0.1288 -0.13947,0.1305 -0.0437,0.004 0.008,-0.14177 0.0825,-0.23422 0.0317,-0.0391 0.0718,-0.19839 0.0892,-0.35389 0.0174,-0.1555 0.0629,-0.31734 0.10118,-0.35964 0.0852,-0.0942 0.09,-0.21703 0.0103,-0.26755 -0.0326,-0.0207 -0.18744,-0.0524 -0.34404,-0.0706 -0.15659,-0.0182 -0.34876,-0.0456 -0.42705,-0.0609 -0.0783,-0.0153 -0.23224,-0.0309 -0.34216,-0.0345 -0.10991,-0.004 -0.18862,-0.0248 -0.17489,-0.047 0.0553,-0.0894 -0.0382,-0.21947 -0.17788,-0.2474 -0.14051,-0.0281 -0.14363,-0.0337 -0.0752,-0.13815 0.13541,-0.20664 -0.0732,-0.33579 -0.36395,-0.22526 -0.0724,0.0275 -0.13076,0.0283 -0.14701,0.002 -0.0148,-0.024 -0.0547,-0.033 -0.0887,-0.0199 -0.0449,0.0172 -0.056,-0.0157 -0.0405,-0.1211 0.0117,-0.0796 -0.003,-0.17452 -0.0334,-0.21076 -0.043,-0.0518 -0.0249,-0.0984 0.0842,-0.21784 0.14219,-0.15567 0.18056,-0.30226 0.19361,-0.73921 0.01,-0.31972 -0.0531,-0.46714 -0.22947,-0.54018 -0.0802,-0.0332 -0.13552,-0.0769 -0.12309,-0.097 0.0289,-0.0467 -0.11133,-0.1654 -0.14988,-0.12686 -0.0159,0.0159 -0.0903,-0.0559 -0.16527,-0.15939 -0.12849,-0.17738 -0.32555,-0.25905 -0.32555,-0.13494 0,0.0368 -0.022,0.0351 -0.0712,-0.006 -0.0392,-0.0325 -0.0712,-0.10129 -0.0712,-0.15287 0,-0.0516 -0.032,-0.16638 -0.0712,-0.25515 -0.0392,-0.0888 -0.10693,-0.24151 -0.15054,-0.33938 -0.12173,-0.27314 -0.20184,-0.7097 -0.20368,-1.10937 -0.001,-0.255 -0.0218,-0.37859 -0.0698,-0.41842 -0.0375,-0.0311 -0.0822,-0.1203 -0.0993,-0.19826 -0.0748,-0.34041 -0.59251,-0.68436 -0.65187,-0.43303 -0.0139,0.0589 -0.0306,0.0417 -0.0572,-0.0593 -0.0447,-0.1695 -0.20306,-0.35588 -0.30242,-0.35588 -0.0885,0 -0.24463,-0.13732 -0.24463,-0.21519 0,-0.0621 -0.23836,-0.17922 -0.31581,-0.15519 -0.0256,0.008 -0.12592,-0.055 -0.22293,-0.1398 -0.10712,-0.0937 -0.14773,-0.1542 -0.1035,-0.1542 0.0401,0 0.0728,-0.0297 0.0728,-0.0661 0,-0.0801 -0.12826,-0.13748 -0.16704,-0.0747 -0.0248,0.0402 -0.24499,-0.0667 -0.30751,-0.14933 -0.0506,-0.0668 -0.41282,-0.19556 -0.60029,-0.2133 -0.10831,-0.0103 -0.28983,-0.0718 -0.40336,-0.13671 -0.11353,-0.0649 -0.24741,-0.11824 -0.29755,-0.11855 -0.0501,-4.3e-4 -0.12551,-0.0317 -0.16748,-0.0696 -0.18181,-0.16454 -1.3948,-0.33998 -1.53664,-0.22227 -0.0472,0.0392 -0.1349,0.0411 -0.31592,0.007 -0.41043,-0.0778 -0.60789,-0.0614 -0.73036,0.0611 -0.10148,0.10149 -0.12422,0.10509 -0.34193,0.0538 -0.64383,-0.15168 -0.78678,-0.17391 -0.96513,-0.14999 -0.11727,0.0157 -0.19338,0.007 -0.19338,-0.0227 0,-0.0691 -0.42141,-0.46436 -0.49514,-0.46436 -0.0337,0 -0.20838,-0.13819 -0.38809,-0.30718 -0.23151,-0.2177 -0.36373,-0.30765 -0.45362,-0.3085 -0.0698,-6.4e-4 -0.19256,-0.0564 -0.27286,-0.12398 -0.12284,-0.10337 -0.146,-0.15642 -0.146,-0.33451 0,-0.20594 -0.0137,-0.22546 -0.51008,-0.71984 -0.28056,-0.27946 -0.59562,-0.5506 -0.70002,-0.60261 -0.1044,-0.052 -0.20068,-0.10894 -0.21397,-0.12642 -0.0133,-0.0175 -0.13853,-0.0769 -0.27828,-0.13194 -0.13977,-0.0551 -0.29118,-0.14593 -0.33651,-0.20191 -0.0635,-0.0785 -0.14922,-0.1066 -0.37414,-0.12287 -0.19632,-0.0142 -0.29179,-0.004 -0.29179,0.032 0,0.0774 -0.1721,-0.10693 -0.2619,-0.2806 -0.0716,-0.13837 -0.0713,-0.15327 0.003,-0.20767 0.0743,-0.0543 0.0745,-0.0694 0.003,-0.20699 -0.0422,-0.0816 -0.0767,-0.17786 -0.0767,-0.21375 0,-0.0966 -0.19463,-0.26204 -0.38167,-0.32444 -0.0902,-0.0301 -0.26013,-0.13342 -0.37757,-0.22958 -0.11745,-0.0962 -0.25232,-0.18916 -0.29965,-0.20678 -0.15166,-0.0565 -0.045,-0.11096 0.2381,-0.12165 0.51347,-0.0194 0.56711,-0.0781 0.5393,-0.59011 -0.007,-0.12549 0.0139,-0.29166 0.046,-0.36927 0.0322,-0.0776 0.0462,-0.15327 0.0313,-0.16814 -0.0793,-0.0793 -0.80035,0.0147 -1.13161,0.14755 -0.043,0.0173 -0.0924,0.009 -0.10959,-0.0194 -0.041,-0.0663 -0.24824,-0.0653 -0.28946,0.001 -0.0196,0.0317 -0.0996,0.0405 -0.20457,0.0225 -0.61555,-0.10548 -0.69622,-0.10987 -0.83186,-0.0453 -0.0832,0.0396 -0.15825,0.0489 -0.18983,0.0233 -0.0312,-0.0253 -0.17659,-0.0161 -0.36064,0.0228 -0.40497,0.0856 -0.6409,0.0838 -0.73014,-0.005 -0.0747,-0.0747 -0.056,-0.21209 0.0288,-0.21209 0.0263,0 0.0384,-0.0642 0.0269,-0.14246 -0.0143,-0.0971 -8.5e-4,-0.14235 0.0421,-0.14235 0.0346,0 0.063,-0.0427 0.063,-0.0949 0,-0.0633 -0.0317,-0.0949 -0.095,-0.0949 -0.0522,0 -0.0949,0.0226 -0.0949,0.0502 0,0.0276 -0.0231,0.0359 -0.0514,0.0185 -0.0282,-0.0174 -0.11118,0.0257 -0.18442,0.0959 -0.11404,0.10926 -0.14651,0.11921 -0.22625,0.0694 -0.12284,-0.0767 -0.330392,-0.0215 -0.368282,0.0978 -0.04,0.12607 0.006,0.19006 0.13715,0.19006 0.110132,0 0.136452,0.10153 0.0589,0.22703 -0.0202,0.0326 -0.0298,0.11426 -0.0215,0.18143 0.013,0.10485 -0.0117,0.13147 -0.174674,0.18829 -0.1044,0.0364 -0.23527,0.0665 -0.29079,0.0669 -0.12043,8.6e-4 -0.22932,0.11683 -0.18187,0.19361 0.0242,0.0391 -0.008,0.0453 -0.11468,0.022 -0.10641,-0.0234 -0.15545,-0.0139 -0.17368,0.0336 -0.0192,0.0501 -0.0798,0.0587 -0.24906,0.0353 -0.53229,-0.0735 -1.00325,-0.30528 -1.05358,-0.51849 -0.0178,-0.0756 -0.0741,-0.12776 -0.16382,-0.15176 -0.19036,-0.0509 -1.03653,-0.008 -1.68741,0.0866 -0.88429,0.12779 -1.09715,0.0831 -0.9875,-0.20744 0.0518,-0.13721 0.0425,-0.16802 -0.12309,-0.40846 -0.12541,-0.18209 -0.23832,-0.28555 -0.37658,-0.34525 -0.10858,-0.0469 -0.24014,-0.1212 -0.29234,-0.16515 -0.12645,-0.10648 -0.58578,-0.17216 -0.94853,-0.1356 -0.16445,0.0166 -0.19655,0.004 -0.24541,-0.0993 -0.0309,-0.0651 -0.07,-0.21217 -0.0869,-0.32677 -0.0359,-0.24424 -0.13706,-0.41659 -0.2691,-0.45849 -0.15954,-0.0506 -0.35943,0.0685 -0.4617,0.27518 -0.0868,0.17549 -0.089,0.20423 -0.0245,0.32898 0.0389,0.0752 0.0594,0.15496 0.0456,0.17733 -0.0138,0.0224 0.005,0.066 0.0426,0.097 0.1572,0.13047 -0.0306,0.25237 -0.52015,0.33761 -0.17135,0.0298 -0.33741,0.0795 -0.36905,0.11025 -0.0923,0.0898 -0.5384,0.26578 -0.67368,0.26578 -0.26334,0 -0.54634,-0.24493 -0.61944,-0.5362 -0.0219,-0.0874 -0.0118,-0.13394 0.0324,-0.14877 0.0354,-0.0119 0.22028,-0.0667 0.4109,-0.12187 0.21977,-0.0636 0.35661,-0.12964 0.37392,-0.18055 0.015,-0.0442 0.0917,-0.13562 0.17047,-0.20334 0.11483,-0.0987 0.13719,-0.14742 0.11257,-0.24552 -0.0575,-0.22895 -0.24452,-0.39356 -0.52302,-0.46037 -0.12045,-0.0289 -0.18953,-0.0426 -0.2536,-0.0373 z m 16.732962,83.94607 c -0.0108,-0.002 -0.0191,1.7e-4 -0.0255,0.005 -0.0126,0.01 -0.0173,0.0331 -0.0173,0.0726 0,0.0981 -0.18536,0.21664 -0.23733,0.15176 -0.0933,-0.11649 -0.39612,-0.16911 -0.94897,-0.16493 -0.5175,0.004 -0.59232,0.0144 -0.58657,0.0818 0.009,0.10501 -0.0616,0.0973 -0.15995,-0.0176 -0.0845,-0.0987 -0.25006,-0.13015 -0.25006,-0.0475 0,0.0261 -0.0427,0.0475 -0.0949,0.0475 -0.0522,0 -0.0949,0.0166 -0.0949,0.0369 0,0.0757 0.15014,0.24785 0.21618,0.24785 0.0377,0 0.0685,0.0181 0.0685,0.0402 0,0.0221 0.048,0.0653 0.10671,0.0961 0.10013,0.0524 0.0979,0.0545 -0.0378,0.0341 -0.19656,-0.0296 -0.29951,0.0368 -0.23024,0.14855 0.0288,0.0464 0.0985,0.0913 0.15497,0.0997 0.16806,0.025 0.0631,0.10328 -0.13837,0.10328 -0.16507,0 -0.18512,-0.0122 -0.17512,-0.10671 0.0105,-0.0991 -0.006,-0.10629 -0.23378,-0.10051 -0.20312,0.005 -0.24906,-0.009 -0.26843,-0.0832 -0.0345,-0.13207 -0.2356,-0.0469 -0.2474,0.10482 -0.0132,0.17001 0.0238,0.23309 0.13726,0.2339 0.12589,8.6e-4 0.19444,0.0458 0.23412,0.15331 0.0168,0.0456 0.17245,0.14792 0.34591,0.22736 0.2936,0.13448 0.32309,0.13934 0.42695,0.0713 0.0614,-0.0402 0.15381,-0.0731 0.20544,-0.0731 0.0516,0 0.12656,-0.0467 0.16649,-0.10372 0.0399,-0.057 0.12123,-0.10972 0.18065,-0.11722 0.0594,-0.008 0.18816,-0.0252 0.28603,-0.0393 0.17427,-0.0251 0.25287,0.0446 0.11147,0.0988 -0.0869,0.0333 -0.0717,0.39004 0.019,0.4461 0.0861,0.0532 0.23721,-0.0281 0.23721,-0.12763 0,-0.0706 0.007,-0.0706 0.0856,6.4e-4 0.0471,0.0426 0.1378,0.0832 0.20157,0.0903 0.0901,0.0101 0.11951,-0.0117 0.13184,-0.098 0.0137,-0.0957 0.0332,-0.10603 0.14246,-0.0749 0.19905,0.0566 0.40485,0.0302 0.48251,-0.0619 0.0398,-0.0471 0.11837,-0.0776 0.178,-0.0692 0.0746,0.0106 0.10671,-0.009 0.10671,-0.0652 0,-0.0657 0.0129,-0.0696 0.0706,-0.0217 0.096,0.0797 0.20352,0.0297 0.22238,-0.10338 0.0103,-0.0725 0.0527,-0.11492 0.1252,-0.1252 0.0603,-0.009 0.12124,-0.0459 0.13549,-0.083 0.015,-0.0392 0.0906,-0.0675 0.17987,-0.0675 0.16468,0 0.44946,-0.084 0.45805,-0.13516 0.0405,-0.24102 0.0192,-0.32298 -0.11147,-0.4296 -0.10755,-0.0878 -0.20693,-0.11707 -0.43192,-0.12752 -0.40909,-0.019 -0.98823,-0.091 -1.08712,-0.13504 -0.0162,-0.007 -0.0295,-0.0118 -0.0403,-0.0133 z" /></g><style
     id="style_css_sheet"
     type="text/css">

/*
 * Below are Cascading Style Sheet (CSS) definitions in use in this file,
 * which allow easily changing how countries are displayed.
 *
 * The styles are applied in the order in which they are defined (and re-defined) here in the preamble.
 */

/*
 * Circles around small countries and territories
 *
 * Change opacity to 1 to display all circles
 */
.circlexx
{
	opacity: 0;
	fill: #c0c0c0;
	stroke: #000000;
	stroke-width: 0.5;
}

/*
 * Smaller circles around subnational territories: Australian external territories, Chinese SARs, Dutch special municipalities, and French DOMs (overseas regions/departments) [but not French COMs (overseas collectivities)]
 *
 * Change opacity to 1 to display all circles
 */
.subxx
{
	opacity: 0;
	fill: #c0c0c0;
	stroke: #000000;
	stroke-width: 0.3;
}


/*
 * Land
 * (all land, as opposed to water, should belong to this class; in order to modify the coastline for land pieces with no borders on them a special class &quot;coastxx&quot; has been added below)
 */
.landxx
{
	fill: #c0c0c0;
	stroke: #ffffff;
	stroke-width: 0.5;
	fill-rule: evenodd;
}

/*
 * Styles for coastlines of islands and continents with no borders on them
 * (all of them should also belong to the class &quot;landxx&quot; - to allow for all land to be modified at once by refining &quot;landxx&quot; style's definition further down)
 */
.coastxx
{
	stroke-width: 0.2;
}


/*
 * Styles for territories without permanent population (the largest of which is Antarctica)
 *
 * Change opacity to 0 to hide all territories
 */
.antxx
{
	opacity: 1;
	fill: #c0c0c0;
}

/*
 * Circles around small countries without permanent population
 *
 * Change opacity to 1 to display all circles
 */
.noxx
{
	opacity: 0;
	fill: #c0c0c0;
	stroke: #000000;
	stroke-width: 0.5;
}


/*
 * Styles for territories with limited or no recognition
 * (all of them - including Taiwan - are overlays (i.e. duplicate layers) over their &quot;host&quot; countries, and so not showing them doesn't leave any gaps on the map)
 *
 * Change opacity to 1 to display all territories
 */
.limitxx
{
	opacity: 0;
	fill: #c0c0c0;
	stroke: #ffffff;
	stroke-width: 0.2;
	fill-rule: evenodd;
}

/*
 * Smaller circles around small territories with limited or no recognition
 *
 * Change opacity to 1 to display all circles
 */
.unxx
{
	opacity: 0;
	fill: #c0c0c0;
	stroke: #000000;
	stroke-width: 0.3;
}


/*
 * Oceans, seas, and large lakes
 */
.oceanxx
{
	opacity: 1;
	fill: #ffffff;
	stroke: #000000;
	stroke-width: 0.5;
}

/*
 * Reserved class names:
 *
 * .eu - for members of European Union
 * .eaeu - for members of Eurasian Economic Union
 */


/*
 * Additional style rules
 *
 * The following are examples of colouring countries.
 * These can be substituted with custom styles to colour the countries on the map.
 *
 * Colour a few countries:
 *
 * .gb, .au, .nc
 * {
 * 	fill: #ff0000;
 * }
 *
 * Colour a few small-country circles (along with the countries):
 *
 * .ms, .ky
 * {
 * 	opacity: 1;
 * 	fill: #ff0000;
 * }
 *
 */


	</style></svg>
