<?xml version="1.0" encoding="UTF-8" standalone="no"?>
<!-- Created with Inkscape (http://www.inkscape.org/) -->

<svg
   width="200mm"
   height="120mm"
   viewBox="0 0 200 120"
   version="1.1"
   id="svg1"
   inkscape:version="1.3.2 (1:1.3.2+202311252150+091e20ef0f)"
   sodipodi:docname="Oceania.svg"
   xml:space="preserve"
   xmlns:inkscape="http://www.inkscape.org/namespaces/inkscape"
   xmlns:sodipodi="http://sodipodi.sourceforge.net/DTD/sodipodi-0.dtd"
   xmlns:xlink="http://www.w3.org/1999/xlink"
   xmlns="http://www.w3.org/2000/svg"
   xmlns:svg="http://www.w3.org/2000/svg"><sodipodi:namedview
     id="namedview1"
     pagecolor="#ffffff"
     bordercolor="#666666"
     borderopacity="1.0"
     inkscape:showpageshadow="2"
     inkscape:pageopacity="0.0"
     inkscape:pagecheckerboard="0"
     inkscape:deskcolor="#d1d1d1"
     inkscape:document-units="mm"
     inkscape:zoom="1.6890572"
     inkscape:cx="330.95386"
     inkscape:cy="351.08343"
     inkscape:window-width="3770"
     inkscape:window-height="2096"
     inkscape:window-x="26"
     inkscape:window-y="23"
     inkscape:window-maximized="0"
     inkscape:current-layer="layer1" /><defs
     id="defs1"><radialGradient
       inkscape:collect="always"
       xlink:href="#linearGradient4609"
       id="radialGradient79285"
       gradientUnits="userSpaceOnUse"
       gradientTransform="matrix(-0.214054,1.37577,-1.24566,-0.194029,303.111,18.1685)"
       cx="99.957603"
       cy="139.3748"
       fx="99.957603"
       fy="139.3748"
       r="45.070099" /><inkscape:perspective
       sodipodi:type="inkscape:persp3d"
       inkscape:vp_x="0 : 526.18109 : 1"
       inkscape:vp_y="0 : 1000 : 0"
       inkscape:vp_z="744.09448 : 526.18109 : 1"
       inkscape:persp3d-origin="372.04724 : 350.78739 : 1"
       id="perspective2410" /><clipPath
       clipPathUnits="userSpaceOnUse"
       id="clipPath2436"><path
         d="M 0,0 L 0,0 L 0,0 L 0,0 z"
         id="path2438" /></clipPath><clipPath
       clipPathUnits="userSpaceOnUse"
       id="clipPath2462"><path
         d="M 0,0 L 0,0 L 0,0 L 0,0 z"
         id="path2464" /></clipPath><clipPath
       clipPathUnits="userSpaceOnUse"
       id="clipPath2556"><path
         d="M 0,0 L 0,0 L 0,0 L 0,0 z"
         id="path2558" /></clipPath><clipPath
       clipPathUnits="userSpaceOnUse"
       id="clipPath11306"><path
         d="M 0,0 L 0,0 L 0,0 L 0,0 z"
         id="path11308" /></clipPath><clipPath
       clipPathUnits="userSpaceOnUse"
       id="clipPath11328"><path
         d="M 0,0 L 0,0 L 0,0 L 0,0 z"
         id="path11330" /></clipPath><clipPath
       clipPathUnits="userSpaceOnUse"
       id="clipPath11362"><path
         d="M 0,0 L 0,0 L 0,0 L 0,0 z"
         id="path11364" /></clipPath><clipPath
       clipPathUnits="userSpaceOnUse"
       id="clipPath11392"><path
         d="M 0,0 L 0,0 L 0,0 L 0,0 z"
         id="path11394" /></clipPath><clipPath
       clipPathUnits="userSpaceOnUse"
       id="clipPath11418"><path
         d="M 0,0 L 0,0 L 0,0 L 0,0 z"
         id="path11420" /></clipPath><clipPath
       clipPathUnits="userSpaceOnUse"
       id="clipPath11730"><path
         d="M 0,0 L 0,0 L 0,0 L 0,0 z"
         id="path11732" /></clipPath><linearGradient
       y2="51.987099"
       x2="22.0144"
       y1="-13.238551"
       x1="52.778114"
       gradientUnits="userSpaceOnUse"
       id="linearGradient3998"
       xlink:href="#fieldGradient"
       inkscape:collect="always" /><radialGradient
       gradientUnits="userSpaceOnUse"
       r="26.5"
       fy="29.5"
       fx="32.5"
       cy="29.5"
       cx="32.5"
       id="shadowGradient"><stop
         id="stop17"
         style="stop-color: rgb(192, 192, 192); stop-opacity: 1;"
         offset="0" /><stop
         id="stop19"
         style="stop-color: rgb(192, 192, 192); stop-opacity: 1;"
         offset="0.88" /><stop
         id="stop21"
         style="stop-color: rgb(192, 192, 192); stop-opacity: 0;"
         offset="1" /></radialGradient><linearGradient
       x1="52.778114"
       y1="-13.238551"
       x2="22.0144"
       y2="51.987099"
       id="fieldGradient"
       gradientUnits="userSpaceOnUse"><stop
         id="stop7"
         style="stop-color: rgb(255, 225, 184); stop-opacity: 1;"
         offset="0" /><stop
         id="stop9"
         style="stop-color: rgb(255, 139, 0); stop-opacity: 1;"
         offset="1" /></linearGradient><linearGradient
       x1="54.509937"
       y1="41.179295"
       x2="9.5471001"
       y2="16.248501"
       id="edgeGradient"
       gradientUnits="userSpaceOnUse"
       xlink:href="#fieldGradient"
       spreadMethod="pad"><stop
         id="stop12"
         style="stop-color: rgb(249, 132, 51); stop-opacity: 1;"
         offset="0" /><stop
         id="stop14"
         style="stop-color: rgb(227, 123, 0); stop-opacity: 1;"
         offset="1" /></linearGradient><inkscape:perspective
       sodipodi:type="inkscape:persp3d"
       inkscape:vp_x="0 : 177 : 1"
       inkscape:vp_y="0 : 1000 : 0"
       inkscape:vp_z="400 : 177 : 1"
       inkscape:persp3d-origin="200 : 118 : 1"
       id="perspective2667" /><filter
       id="Gaussian_Blur"><feGaussianBlur
         id="feGaussianBlur2514"
         stdDeviation="1.5"
         in="SourceGraphic" /></filter><inkscape:perspective
       id="perspective2544"
       inkscape:persp3d-origin="24 : 16 : 1"
       inkscape:vp_z="48 : 24 : 1"
       inkscape:vp_y="0 : 1000 : 0"
       inkscape:vp_x="0 : 24 : 1"
       sodipodi:type="inkscape:persp3d" /><radialGradient
       gradientTransform="matrix(-0.214054,1.37577,-1.24566,-0.194029,303.111,18.1685)"
       gradientUnits="userSpaceOnUse"
       r="45.070099"
       fy="139.3748"
       fx="99.957603"
       cy="139.3748"
       cx="99.957603"
       id="radialGradient4615"
       xlink:href="#linearGradient4609"
       inkscape:collect="always" /><inkscape:perspective
       sodipodi:type="inkscape:persp3d"
       inkscape:vp_x="0 : 300 : 1"
       inkscape:vp_y="0 : 1000 : 0"
       inkscape:vp_z="600 : 300 : 1"
       inkscape:persp3d-origin="300 : 200 : 1"
       id="perspective13226" /><linearGradient
       x1="141.2715"
       y1="70.4282"
       x2="141.2715"
       y2="158.0706"
       id="linearGradient13229"
       gradientUnits="userSpaceOnUse"
       gradientTransform="matrix(1.68,0,0,1.68,-86.7,-86.6997)"><stop
         id="stop13231"
         style="stop-color: rgb(255, 255, 255);"
         offset="0" /><stop
         id="stop13233"
         style="stop-color: rgb(0, 162, 0);"
         offset="1" /><midPointStop
         style="stop-color:#fff"
         id="midPointStop13235" /><midPointStop
         style="stop-color:#fff"
         offset=".5"
         id="midPointStop13237" /><midPointStop
         style="stop-color:#039"
         offset=".9944"
         id="midPointStop13239" /></linearGradient><linearGradient
       x1="127.6616"
       y1="63.214802"
       x2="127.6616"
       y2="183.36752"
       id="linearGradient13241"
       gradientUnits="userSpaceOnUse"
       gradientTransform="matrix(1.68,0,0,1.68,599.333,-89.7192)"><stop
         id="stop13243"
         style="stop-color: rgb(0, 106, 0);"
         offset="0" /><stop
         id="stop13245"
         style="stop-color: rgb(0, 64, 0);"
         offset="0.2" /><stop
         id="stop13247"
         style="stop-color: rgb(0, 208, 0);"
         offset="1" /><midPointStop
         style="stop-color:#006A00"
         id="midPointStop13249" /><midPointStop
         style="stop-color:#006A00"
         offset=".5"
         id="midPointStop13251" /><midPointStop
         style="stop-color:#033"
         offset=".2"
         id="midPointStop13253" /><midPointStop
         style="stop-color:#033"
         offset=".5"
         id="midPointStop13255" /><midPointStop
         style="stop-color:#3c3"
         offset="1"
         id="midPointStop13257" /></linearGradient><linearGradient
       x1="-117.002"
       y1="397.33981"
       x2="12.9912"
       y2="397.33981"
       id="linearGradient13259"
       gradientUnits="userSpaceOnUse"
       gradientTransform="matrix(1.68,0,0,-1.68,899.209,789.763)"><stop
         id="stop13261"
         style="stop-color: rgb(0, 83, 189);"
         offset="0" /><stop
         id="stop13263"
         style="stop-color: rgb(0, 50, 164);"
         offset="0.9944" /><midPointStop
         style="stop-color:#0053bd"
         id="midPointStop13265" /><midPointStop
         style="stop-color:#0053bd"
         offset=".5"
         id="midPointStop13267" /><midPointStop
         style="stop-color:#0032a4"
         offset=".9944"
         id="midPointStop13269" /></linearGradient><radialGradient
       cx="-57.0215"
       cy="439.63181"
       r="97.988297"
       fx="-57.0215"
       fy="439.63181"
       id="radialGradient13271"
       gradientUnits="userSpaceOnUse"
       gradientTransform="matrix(1.68,0,0,-1.68,899.213,789.761)"><stop
         id="stop13273"
         style="stop-color: rgb(255, 255, 255);"
         offset="0" /><stop
         id="stop13275"
         style="stop-color: rgb(87, 173, 255);"
         offset="0.5955" /><stop
         id="stop13277"
         style="stop-color: rgb(201, 230, 255);"
         offset="0.9944" /><midPointStop
         style="stop-color:#fff"
         id="midPointStop13279" /><midPointStop
         style="stop-color:#fff"
         offset=".5"
         id="midPointStop13281" /><midPointStop
         style="stop-color:#57adff"
         offset=".5955"
         id="midPointStop13283" /><midPointStop
         style="stop-color:#57adff"
         offset=".5"
         id="midPointStop13285" /><midPointStop
         style="stop-color:#c9e6ff"
         offset=".9944"
         id="midPointStop13287" /></radialGradient><linearGradient
       x1="-52.250999"
       y1="457.0303"
       x2="-52.250999"
       y2="361.422"
       id="linearGradient13289"
       gradientUnits="userSpaceOnUse"
       gradientTransform="matrix(1.68,0,0,-1.68,899.213,789.761)"><stop
         id="stop13291"
         style="stop-color: rgb(255, 255, 255);"
         offset="0" /><stop
         id="stop13293"
         style="stop-color: rgb(148, 202, 255);"
         offset="1" /><midPointStop
         style="stop-color:#fff"
         id="midPointStop13295" /><midPointStop
         style="stop-color:#fff"
         offset=".5"
         id="midPointStop13297" /><midPointStop
         style="stop-color:#94caff"
         offset="1"
         id="midPointStop13299" /></linearGradient><linearGradient
       x1="141.2715"
       y1="70.4282"
       x2="141.2715"
       y2="158.0706"
       id="linearGradient13301"
       gradientUnits="userSpaceOnUse"
       gradientTransform="matrix(1.68,0,0,1.68,-86.7,-86.6997)"><stop
         id="stop13303"
         style="stop-color: rgb(255, 255, 255);"
         offset="0" /><stop
         id="stop13305"
         style="stop-color: rgb(0, 161, 0);"
         offset="0.4972" /><stop
         id="stop13307"
         style="stop-color: rgb(0, 0, 0);"
         offset="0.9944" /><midPointStop
         style="stop-color:#fff"
         id="midPointStop13309" /><midPointStop
         offset=".5"
         style="stop-color:#fff"
         id="midPointStop13311" /><midPointStop
         offset=".9944"
         style="stop-color:#039"
         id="midPointStop13313" /></linearGradient><linearGradient
       id="linearGradient13315"><stop
         id="stop13317"
         style="stop-color: rgb(181, 181, 181);"
         offset="0" /><stop
         id="stop13319"
         style="stop-color: rgb(181, 181, 181); stop-opacity: 0;"
         offset="1" /></linearGradient><linearGradient
       id="linearGradient13321"><stop
         id="stop13323"
         style="stop-color: rgb(103, 103, 103);"
         offset="0" /><stop
         id="stop13325"
         style="stop-color: rgb(101, 101, 101); stop-opacity: 0;"
         offset="1" /></linearGradient><radialGradient
       cx="128.72601"
       cy="228.36729"
       r="105.21568"
       fx="128.72601"
       fy="228.36729"
       id="radialGradient13327"
       xlink:href="#linearGradient13321"
       gradientUnits="userSpaceOnUse"
       gradientTransform="matrix(1.08563,0,0,0.332654,-22.9955,142.863)" /><linearGradient
       x1="-117.002"
       y1="397.33981"
       x2="12.9912"
       y2="397.33981"
       id="linearGradient13329"
       xlink:href="#linearGradient13259"
       gradientUnits="userSpaceOnUse"
       gradientTransform="matrix(1.44673,0,0,-1.44673,191.992,711.297)" /><radialGradient
       cx="-57.0215"
       cy="439.63181"
       r="97.988297"
       fx="-57.0215"
       fy="439.63181"
       id="radialGradient13331"
       xlink:href="#R0"
       gradientUnits="userSpaceOnUse"
       gradientTransform="matrix(1.44673,0,0,-1.44673,191.995,711.296)" /><linearGradient
       x1="127.6616"
       y1="63.214802"
       x2="127.6616"
       y2="183.36752"
       id="linearGradient13333"
       xlink:href="#L1"
       gradientUnits="userSpaceOnUse"
       gradientTransform="matrix(1.44673,0,0,1.44673,-66.247,-46.0691)" /><linearGradient
       x1="-52.250999"
       y1="457.0303"
       x2="-52.250999"
       y2="361.422"
       id="linearGradient13335"
       xlink:href="#linearGradient13289"
       gradientUnits="userSpaceOnUse"
       gradientTransform="matrix(1.44673,0,0,-1.44673,191.995,711.296)" /><linearGradient
       x1="141.2715"
       y1="70.4282"
       x2="141.2715"
       y2="158.0706"
       id="linearGradient13337"
       xlink:href="#linearGradient13301"
       gradientUnits="userSpaceOnUse"
       gradientTransform="matrix(1.44673,0,0,1.44673,-66.247,-46.0691)" /><linearGradient
       x1="100.5088"
       y1="70.033203"
       x2="100.5088"
       y2="130.0289"
       id="linearGradient13339"
       xlink:href="#linearGradient13301"
       gradientUnits="userSpaceOnUse"
       gradientTransform="matrix(1.44673,0,0,1.44673,-66.247,-46.0691)" /><linearGradient
       x1="120.4849"
       y1="68.116699"
       x2="120.4849"
       y2="85.320099"
       id="linearGradient13341"
       xlink:href="#linearGradient13229"
       gradientUnits="userSpaceOnUse"
       gradientTransform="matrix(1.44673,0,0,1.44673,-66.247,-46.0691)" /><linearGradient
       x1="124.5747"
       y1="73.443802"
       x2="124.5747"
       y2="79.161301"
       id="linearGradient13343"
       xlink:href="#linearGradient13229"
       gradientUnits="userSpaceOnUse" /><linearGradient
       x1="132.78419"
       y1="67.756302"
       x2="132.78419"
       y2="73.864899"
       id="linearGradient13345"
       xlink:href="#linearGradient13229"
       gradientUnits="userSpaceOnUse" /><radialGradient
       cx="128.72601"
       cy="228.36729"
       r="105.21568"
       fx="128.72601"
       fy="228.36729"
       id="radialGradient13347"
       xlink:href="#linearGradient13315"
       gradientUnits="userSpaceOnUse"
       gradientTransform="matrix(0.653853,0,0,0.20035,102.193,187.697)" /><radialGradient
       r="215.9915"
       fy="384.43198"
       fx="282.55182"
       cy="384.43198"
       cx="282.55182"
       gradientTransform="matrix(0.879865,-0.905481,0.864042,0.839599,-298.221,317.509)"
       gradientUnits="userSpaceOnUse"
       id="radialGradient12916"
       xlink:href="#linearGradient12305"
       inkscape:collect="always" /><radialGradient
       gradientTransform="matrix(0.971259,-0.653331,0.510802,0.761058,-139.073,256.98)"
       r="215.9915"
       fy="309.21631"
       fx="226.72215"
       cy="309.21631"
       cx="226.72215"
       gradientUnits="userSpaceOnUse"
       id="radialGradient12898"
       xlink:href="#linearGradient12908"
       inkscape:collect="always" /><inkscape:perspective
       sodipodi:type="inkscape:persp3d"
       inkscape:vp_x="0 : 300 : 1"
       inkscape:vp_y="0 : 1000 : 0"
       inkscape:vp_z="600 : 300 : 1"
       inkscape:persp3d-origin="300 : 200 : 1"
       id="perspective12631" /><radialGradient
       cx="-57.0215"
       cy="439.63181"
       r="97.988297"
       fx="-57.0215"
       fy="439.63181"
       id="radialGradient12676"
       gradientUnits="userSpaceOnUse"
       gradientTransform="matrix(1.68,0,0,-1.68,899.213,789.761)"><stop
         id="stop12678"
         style="stop-color: rgb(255, 255, 255);"
         offset="0" /><stop
         id="stop12680"
         style="stop-color: rgb(87, 173, 255);"
         offset="0.5955" /><stop
         id="stop12682"
         style="stop-color: rgb(201, 230, 255);"
         offset="0.9944" /><midPointStop
         style="stop-color:#fff"
         id="midPointStop12684" /><midPointStop
         style="stop-color:#fff"
         offset=".5"
         id="midPointStop12686" /><midPointStop
         style="stop-color:#57adff"
         offset=".5955"
         id="midPointStop12688" /><midPointStop
         style="stop-color:#57adff"
         offset=".5"
         id="midPointStop12690" /><midPointStop
         style="stop-color:#c9e6ff"
         offset=".9944"
         id="midPointStop12692" /></radialGradient><radialGradient
       cx="128.72601"
       cy="228.36729"
       r="105.21568"
       fx="128.72601"
       fy="228.36729"
       id="radialGradient12732"
       xlink:href="#linearGradient13321"
       gradientUnits="userSpaceOnUse"
       gradientTransform="matrix(1.08563,0,0,0.332654,-22.9955,142.863)" /><radialGradient
       cx="-57.0215"
       cy="439.63181"
       r="97.988297"
       fx="-57.0215"
       fy="439.63181"
       id="radialGradient12736"
       xlink:href="#R0"
       gradientUnits="userSpaceOnUse"
       gradientTransform="matrix(1.44673,0,0,-1.44673,191.995,711.296)" /><radialGradient
       cx="128.72601"
       cy="228.36729"
       r="105.21568"
       fx="128.72601"
       fy="228.36729"
       id="radialGradient12752"
       xlink:href="#linearGradient13315"
       gradientUnits="userSpaceOnUse"
       gradientTransform="matrix(0.653853,0,0,0.20035,102.193,187.697)" /><radialGradient
       gradientTransform="matrix(0.879865,-0.905481,0.864042,0.839599,-298.221,317.509)"
       gradientUnits="userSpaceOnUse"
       r="215.9915"
       fy="384.43198"
       fx="282.55182"
       cy="384.43198"
       cx="282.55182"
       id="radialGradient12311"
       xlink:href="#linearGradient12305"
       inkscape:collect="always" /><radialGradient
       gradientUnits="userSpaceOnUse"
       gradientTransform="matrix(0.330783,-1.66656,1.15454,0.229156,-165.223,2298.75)"
       r="269.54684"
       fy="807.86688"
       fx="1009.6029"
       cy="807.86688"
       cx="1009.6029"
       id="radialGradient12103"
       xlink:href="#linearGradient12105"
       inkscape:collect="always" /><inkscape:perspective
       sodipodi:type="inkscape:persp3d"
       inkscape:vp_x="0 : 300 : 1"
       inkscape:vp_y="0 : 1000 : 0"
       inkscape:vp_z="600 : 300 : 1"
       inkscape:persp3d-origin="300 : 200 : 1"
       id="perspective11785" /><radialGradient
       cx="-57.0215"
       cy="439.63181"
       r="97.988297"
       fx="-57.0215"
       fy="439.63181"
       id="radialGradient11830"
       gradientUnits="userSpaceOnUse"
       gradientTransform="matrix(1.68,0,0,-1.68,899.213,789.761)"><stop
         id="stop11832"
         style="stop-color: rgb(255, 255, 255);"
         offset="0" /><stop
         id="stop11834"
         style="stop-color: rgb(87, 173, 255);"
         offset="0.5955" /><stop
         id="stop11836"
         style="stop-color: rgb(201, 230, 255);"
         offset="0.9944" /><midPointStop
         style="stop-color:#fff"
         id="midPointStop11838" /><midPointStop
         style="stop-color:#fff"
         offset=".5"
         id="midPointStop11840" /><midPointStop
         style="stop-color:#57adff"
         offset=".5955"
         id="midPointStop11842" /><midPointStop
         style="stop-color:#57adff"
         offset=".5"
         id="midPointStop11844" /><midPointStop
         style="stop-color:#c9e6ff"
         offset=".9944"
         id="midPointStop11846" /></radialGradient><radialGradient
       cx="128.72601"
       cy="228.36729"
       r="105.21568"
       fx="128.72601"
       fy="228.36729"
       id="radialGradient11886"
       xlink:href="#linearGradient13321"
       gradientUnits="userSpaceOnUse"
       gradientTransform="matrix(1.08563,0,0,0.332654,-22.9955,142.863)" /><radialGradient
       cx="-57.0215"
       cy="439.63181"
       r="97.988297"
       fx="-57.0215"
       fy="439.63181"
       id="radialGradient11890"
       xlink:href="#R0"
       gradientUnits="userSpaceOnUse"
       gradientTransform="matrix(1.44673,0,0,-1.44673,191.995,711.296)" /><radialGradient
       cx="128.72601"
       cy="228.36729"
       r="105.21568"
       fx="128.72601"
       fy="228.36729"
       id="radialGradient11906"
       xlink:href="#linearGradient13315"
       gradientUnits="userSpaceOnUse"
       gradientTransform="matrix(0.653853,0,0,0.20035,102.193,187.697)" /><radialGradient
       r="97.988297"
       fy="440.66043"
       fx="-64.643402"
       cy="440.66043"
       cx="-64.643402"
       gradientTransform="matrix(3.11011,0,0,-3.11118,198.81,1487.88)"
       gradientUnits="userSpaceOnUse"
       id="radialGradient10980"
       xlink:href="#linearGradient13289"
       inkscape:collect="always" /><inkscape:perspective
       sodipodi:type="inkscape:persp3d"
       inkscape:vp_x="0 : 300 : 1"
       inkscape:vp_y="0 : 1000 : 0"
       inkscape:vp_z="600 : 300 : 1"
       inkscape:persp3d-origin="300 : 200 : 1"
       id="perspective10792" /><linearGradient
       x1="127.6616"
       y1="63.214802"
       x2="127.6616"
       y2="183.36752"
       id="L1"
       gradientUnits="userSpaceOnUse"
       gradientTransform="matrix(1.68,0,0,1.68,599.333,-89.7192)"><stop
         id="s3"
         style="stop-color: rgb(0, 106, 0);"
         offset="0" /><stop
         id="s4"
         style="stop-color: rgb(0, 152, 0); stop-opacity: 1;"
         offset="0.2" /><stop
         id="s5"
         style="stop-color: rgb(0, 208, 0);"
         offset="1" /><midPointStop
         style="stop-color:#006A00"
         id="mps17" /><midPointStop
         style="stop-color:#006A00"
         offset=".5"
         id="mps19" /><midPointStop
         style="stop-color:#033"
         offset=".2"
         id="mps21" /><midPointStop
         style="stop-color:#033"
         offset=".5"
         id="mps23" /><midPointStop
         style="stop-color:#3c3"
         offset="1"
         id="mps25" /></linearGradient><radialGradient
       cx="-57.0215"
       cy="439.63181"
       r="97.988297"
       fx="-57.0215"
       fy="439.63181"
       id="R0"
       gradientUnits="userSpaceOnUse"
       gradientTransform="matrix(1.68,0,0,-1.68,899.213,789.761)"><stop
         id="s8"
         style="stop-color: rgb(255, 255, 255);"
         offset="0" /><stop
         id="s9"
         style="stop-color: rgb(87, 173, 255);"
         offset="0.5955" /><stop
         id="s10"
         style="stop-color: rgb(201, 230, 255);"
         offset="0.9944" /><midPointStop
         style="stop-color:#fff"
         id="mps40" /><midPointStop
         style="stop-color:#fff"
         offset=".5"
         id="mps42" /><midPointStop
         style="stop-color:#57adff"
         offset=".5955"
         id="mps44" /><midPointStop
         style="stop-color:#57adff"
         offset=".5"
         id="mps46" /><midPointStop
         style="stop-color:#c9e6ff"
         offset=".9944"
         id="mps48" /></radialGradient><radialGradient
       cx="128.72601"
       cy="228.36729"
       r="105.21568"
       fx="128.72601"
       fy="228.36729"
       id="R1"
       xlink:href="#linearGradient13321"
       gradientUnits="userSpaceOnUse"
       gradientTransform="matrix(1.08563,0,0,0.332654,-246.885,200.026)" /><radialGradient
       cx="-57.0215"
       cy="439.63181"
       r="97.988297"
       fx="-57.0215"
       fy="439.63181"
       id="R2"
       xlink:href="#R0"
       gradientUnits="userSpaceOnUse"
       gradientTransform="matrix(3.11011,0,0,-3.05727,-209.282,1466.09)" /><linearGradient
       x1="127.6616"
       y1="63.214802"
       x2="127.6616"
       y2="183.36752"
       id="L8"
       xlink:href="#L1"
       gradientUnits="userSpaceOnUse"
       gradientTransform="matrix(1.44673,0,0,1.44673,-33.5738,87.986)" /><radialGradient
       cx="128.72601"
       cy="228.36729"
       r="105.21568"
       fx="128.72601"
       fy="228.36729"
       id="R3"
       xlink:href="#linearGradient13315"
       gradientUnits="userSpaceOnUse"
       gradientTransform="matrix(0.653853,0,0,0.20035,-121.697,244.86)" /><clipPath
       id="clipPath9314"
       clipPathUnits="userSpaceOnUse"><path
         id="path15106"
         d="M 0,0 L 0,0 L 0,0 L 0,0 z" /></clipPath><clipPath
       id="clipPath9002"
       clipPathUnits="userSpaceOnUse"><path
         id="path9004"
         d="M 0,0 L 0,0 L 0,0 L 0,0 z" /></clipPath><clipPath
       id="clipPath8976"
       clipPathUnits="userSpaceOnUse"><path
         id="path8978"
         d="M 0,0 L 0,0 L 0,0 L 0,0 z" /></clipPath><clipPath
       id="clipPath8946"
       clipPathUnits="userSpaceOnUse"><path
         id="path8948"
         d="M 0,0 L 0,0 L 0,0 L 0,0 z" /></clipPath><clipPath
       id="clipPath8912"
       clipPathUnits="userSpaceOnUse"><path
         id="path8914"
         d="M 0,0 L 0,0 L 0,0 L 0,0 z" /></clipPath><clipPath
       id="clipPath8890"
       clipPathUnits="userSpaceOnUse"><path
         id="path8892"
         d="M 0,0 L 0,0 L 0,0 L 0,0 z" /></clipPath><clipPath
       id="clipPath15091"
       clipPathUnits="userSpaceOnUse"><path
         id="path15093"
         d="M 0,0 L 0,0 L 0,0 L 0,0 z" /></clipPath><clipPath
       id="clipPath15087"
       clipPathUnits="userSpaceOnUse"><path
         id="path15089"
         d="M 0,0 L 0,0 L 0,0 L 0,0 z" /></clipPath><clipPath
       id="clipPath15083"
       clipPathUnits="userSpaceOnUse"><path
         id="path15085"
         d="M 0,0 L 0,0 L 0,0 L 0,0 z" /></clipPath><inkscape:perspective
       id="perspective15081"
       inkscape:persp3d-origin="372.04724 : 350.78739 : 1"
       inkscape:vp_z="744.09448 : 526.18109 : 1"
       inkscape:vp_y="0 : 1000 : 0"
       inkscape:vp_x="0 : 526.18109 : 1"
       sodipodi:type="inkscape:persp3d" /><linearGradient
       gradientTransform="matrix(1.68,0,0,1.68,599.333,-89.7192)"
       gradientUnits="userSpaceOnUse"
       id="linearGradient12105"
       y2="183.36752"
       x2="127.6616"
       y1="63.214802"
       x1="127.6616"><stop
         offset="0"
         style="stop-color: rgb(106, 0, 0); stop-opacity: 1;"
         id="stop12107" /><stop
         offset="0.57332683"
         style="stop-color: rgb(86, 155, 15); stop-opacity: 1;"
         id="stop12109" /><stop
         offset="1"
         style="stop-color: rgb(76, 231, 44); stop-opacity: 1;"
         id="stop12111" /><midPointStop
         id="midPointStop12113"
         style="stop-color:#006A00" /><midPointStop
         id="midPointStop12115"
         offset=".5"
         style="stop-color:#006A00" /><midPointStop
         id="midPointStop12117"
         offset=".2"
         style="stop-color:#033" /><midPointStop
         id="midPointStop12119"
         offset=".5"
         style="stop-color:#033" /><midPointStop
         id="midPointStop12121"
         offset="1"
         style="stop-color:#3c3" /></linearGradient><radialGradient
       gradientTransform="matrix(1.68,0,0,-1.68,899.213,789.761)"
       gradientUnits="userSpaceOnUse"
       id="radialGradient12123"
       fy="439.63181"
       fx="-57.0215"
       r="97.988297"
       cy="439.63181"
       cx="-57.0215"><stop
         offset="0"
         style="stop-color: rgb(255, 255, 255);"
         id="stop12125" /><stop
         offset="0.74371558"
         style="stop-color: rgb(87, 173, 255);"
         id="stop12127" /><stop
         offset="0.9944"
         style="stop-color: rgb(201, 230, 255);"
         id="stop12129" /><midPointStop
         id="midPointStop12131"
         style="stop-color:#fff" /><midPointStop
         id="midPointStop12133"
         offset=".5"
         style="stop-color:#fff" /><midPointStop
         id="midPointStop12135"
         offset=".5955"
         style="stop-color:#57adff" /><midPointStop
         id="midPointStop12137"
         offset=".5"
         style="stop-color:#57adff" /><midPointStop
         id="midPointStop12139"
         offset=".9944"
         style="stop-color:#c9e6ff" /></radialGradient><linearGradient
       id="linearGradient12305"><stop
         id="stop12307"
         offset="0"
         style="stop-color: rgb(0, 0, 0); stop-opacity: 0;" /><stop
         style="stop-color: rgb(0, 0, 0); stop-opacity: 0.176471;"
         offset="0.56742632"
         id="stop12313" /><stop
         id="stop12309"
         offset="1"
         style="stop-color: rgb(0, 0, 0); stop-opacity: 0.319149;" /></linearGradient><linearGradient
       id="linearGradient12317"><stop
         style="stop-color: rgb(0, 0, 0); stop-opacity: 0;"
         offset="0"
         id="stop12319" /><stop
         id="stop12321"
         offset="0.8522501"
         style="stop-color: rgb(0, 0, 0); stop-opacity: 0.176471;" /><stop
         style="stop-color: rgb(0, 0, 0); stop-opacity: 0.319149;"
         offset="1"
         id="stop12323" /></linearGradient><linearGradient
       id="linearGradient12908"><stop
         id="stop12910"
         offset="0"
         style="stop-color: rgb(0, 0, 0); stop-opacity: 0;" /><stop
         style="stop-color: rgb(0, 0, 0); stop-opacity: 0.00392157;"
         offset="0.41499513"
         id="stop12922" /><stop
         style="stop-color: rgb(0, 0, 0); stop-opacity: 0.027451;"
         offset="0.56763166"
         id="stop12920" /><stop
         style="stop-color: rgb(0, 0, 0); stop-opacity: 0.0784314;"
         offset="0.77244782"
         id="stop12918" /><stop
         style="stop-color: rgb(0, 0, 0); stop-opacity: 0.176471;"
         offset="0.88867211"
         id="stop12912" /><stop
         id="stop12914"
         offset="1"
         style="stop-color: rgb(0, 0, 0); stop-opacity: 0.319149;" /></linearGradient><linearGradient
       id="linearGradient4609"><stop
         id="stop4611"
         offset="0"
         style="stop-color: rgb(0, 0, 0); stop-opacity: 0;" /><stop
         style="stop-color: rgb(0, 0, 0); stop-opacity: 0.0235294;"
         offset="0.49269524"
         id="stop4623" /><stop
         style="stop-color: rgb(0, 0, 0); stop-opacity: 0.0352941;"
         offset="0.5708732"
         id="stop4621" /><stop
         style="stop-color: rgb(0, 0, 0); stop-opacity: 0.0666667;"
         offset="0.63645512"
         id="stop4619" /><stop
         style="stop-color: rgb(0, 0, 0); stop-opacity: 0.148936;"
         offset="0.69579047"
         id="stop4617" /><stop
         id="stop4625"
         offset="0.73030394"
         style="stop-color: rgb(0, 0, 0); stop-opacity: 0.212766;" /><stop
         id="stop4613"
         offset="1"
         style="stop-color: rgb(0, 0, 0); stop-opacity: 0.546099;" /></linearGradient><radialGradient
       inkscape:collect="always"
       xlink:href="#linearGradient4609"
       id="radialGradient15681"
       gradientUnits="userSpaceOnUse"
       gradientTransform="matrix(-0.214054,1.37577,-1.24566,-0.194029,303.111,18.1685)"
       cx="99.957603"
       cy="139.3748"
       fx="99.957603"
       fy="139.3748"
       r="45.070099" /><radialGradient
       inkscape:collect="always"
       xlink:href="#linearGradient4609"
       id="radialGradient15958"
       gradientUnits="userSpaceOnUse"
       gradientTransform="matrix(-0.214054,1.37577,-1.24566,-0.194029,303.111,18.1685)"
       cx="99.957603"
       cy="139.3748"
       fx="99.957603"
       fy="139.3748"
       r="45.070099" /><radialGradient
       inkscape:collect="always"
       xlink:href="#linearGradient4609"
       id="radialGradient15966"
       gradientUnits="userSpaceOnUse"
       gradientTransform="matrix(-0.214054,1.37577,-1.24566,-0.194029,303.111,18.1685)"
       cx="99.957603"
       cy="139.3748"
       fx="99.957603"
       fy="139.3748"
       r="45.070099" /><inkscape:perspective
       id="perspective19473"
       inkscape:persp3d-origin="469.87363 : 158.9092 : 1"
       inkscape:vp_z="939.74725 : 238.3638 : 1"
       inkscape:vp_y="0 : 1000 : 0"
       inkscape:vp_x="0 : 238.3638 : 1"
       sodipodi:type="inkscape:persp3d" /><radialGradient
       inkscape:collect="always"
       xlink:href="#linearGradient4609"
       id="radialGradient25714"
       gradientUnits="userSpaceOnUse"
       gradientTransform="matrix(-0.214054,1.37577,-1.24566,-0.194029,303.111,18.1685)"
       cx="99.957603"
       cy="139.3748"
       fx="99.957603"
       fy="139.3748"
       r="45.070099" /></defs><g
     inkscape:label="Layer 1"
     inkscape:groupmode="layer"
     id="layer1"
     transform="translate(-8.5858889,-79.12252)"><g
       id="g3"
       transform="matrix(0.02083333,0,0,0.025,8.2726133,78.965874)"><path
         fill="#d52b1e"
         d="m 0,0 h 2400 l 99,99 H 7101 L 7200,0 H 9600 V 4800 H 7200 l -99,-99 H 2499 l -99,99 H 0 Z"
         id="path1" /><path
         fill="#ffffff"
         d="M 2400,0 H 7200 V 4800 H 2400 Z m 2490,4430 -45,-863 a 95,95 0 0 1 111,-98 l 859,151 -116,-320 a 65,65 0 0 1 20,-73 l 941,-762 -212,-99 a 65,65 0 0 1 -34,-79 l 186,-572 -542,115 a 65,65 0 0 1 -73,-38 l -105,-247 -423,454 a 65,65 0 0 1 -111,-57 l 204,-1052 -327,189 a 65,65 0 0 1 -91,-27 l -332,-652 -332,652 a 65,65 0 0 1 -91,27 l -327,-189 204,1052 a 65,65 0 0 1 -111,57 l -423,-454 -105,247 a 65,65 0 0 1 -73,38 l -542,-115 186,572 a 65,65 0 0 1 -34,79 l -212,99 941,762 a 65,65 0 0 1 20,73 l -116,320 859,-151 a 95,95 0 0 1 111,98 l -45,863 z"
         id="path2" /></g><rect
       style="fill:#213678;fill-opacity:1;stroke:none;stroke-width:0.681055"
       id="rect1"
       width="200"
       height="120"
       x="8.2725973"
       y="78.965874" /><g
       id="g252"
       transform="matrix(0.32249708,0,0,0.32249708,180.75416,-21.776112)"
       style="fill:#ffffff"><path
         style="fill:#ffffff;stroke-width:0.499999"
         d="m -68.064213,599.86438 c -0.689333,0.0232 -1.489494,0.23672 -2.052588,0.6289 -2.075614,1.44563 -2.439644,1.89642 -2.439644,3.0179 0,1.84764 -1.228983,3.38675 -2.969845,3.71967 -0.805848,0.1541 -0.912146,0.30239 -1.423685,1.98024 -0.790998,2.59448 -2.514997,4.57489 -4.766118,5.47564 -0.715242,0.28617 -1.802419,0.89824 -2.415873,1.36012 -1.451664,1.09302 -2.190461,1.55312 -3.149162,1.96061 -0.430775,0.18311 -1.453131,0.67526 -2.271696,1.09399 -0.818567,0.41873 -1.699649,0.76171 -1.95802,0.76171 -0.25837,0 -0.469738,0.12473 -0.469738,0.2775 0,0.15272 -0.614864,0.36995 -1.366325,0.48266 -1.065595,0.15978 -1.752239,0.56397 -3.120223,1.83709 -0.964715,0.89781 -2.280947,1.91432 -2.924886,2.25878 -0.643974,0.34444 -2.024024,1.47927 -3.066994,2.52181 -4.209,4.20727 -4.48169,4.76515 -3.08974,6.32881 0.7843,0.88104 1.08354,0.99521 2.75952,1.05162 1.03386,0.0348 2.25591,-0.0416 2.7156,-0.1695 0.667685,-0.18576 0.906364,-0.10084 1.185976,0.42168 0.282807,0.52843 0.648701,0.65422 1.90531,0.65422 1.346555,0 1.55546,0.0839 1.55546,0.62632 0,0.46337 0.209178,0.62684 0.802019,0.62684 0.454709,0 0.717522,0.13546 0.607714,0.31316 -0.263852,0.4269 0.129943,1.00287 0.577226,0.84439 0.199599,-0.0707 0.343295,-0.36037 0.31936,-0.64337 -0.04916,-0.5814 0.978941,-0.71503 1.315166,-0.17105 0.50515,0.81735 5.790508,-0.62161 6.552055,-1.78387 0.271123,-0.41378 0.669596,-0.75241 0.885734,-0.75241 0.216108,0 0.764401,-0.42308 1.218013,-0.93999 0.559194,-0.63728 1.116173,-0.94 1.730127,-0.94 1.097144,0 1.780444,-0.57077 1.331185,-1.11208 -0.366268,-0.44135 1.011201,-3.30355 2.126485,-4.41885 0.44406,-0.44405 0.707341,-1.0897 0.710034,-1.73891 0.0084,-2.02268 0.242053,-2.30689 2.919719,-3.55275 2.281447,-1.06151 2.837226,-1.1933 5.131986,-1.21492 1.952615,-0.0182 2.69862,-0.14889 3.091801,-0.54208 0.64707,-0.64707 0.356204,-1.14263 -1.004073,-1.71101 -0.779059,-0.32552 -1.058333,-0.63762 -1.058333,-1.18287 0,-0.85683 0.438413,-1.27535 1.635559,-1.56115 0.967503,-0.23098 2.265425,-1.50462 2.833419,-2.78071 0.210909,-0.47384 0.503845,-0.86196 0.651123,-0.86196 0.33284,0 2.08566,-1.85185 2.08566,-2.20348 0,-0.14158 0.324074,-0.51432 0.719853,-0.82838 1.102409,-0.87465 1.191505,-1.19462 0.641305,-2.29753 -0.470752,-0.94361 -0.470024,-1.04096 0.0098,-1.30948 0.285094,-0.15954 0.797572,-0.58912 1.138432,-0.95498 0.61455,-0.65966 0.614605,-0.67016 0.0083,-1.23507 -0.336319,-0.31329 -0.811709,-0.56947 -1.056266,-0.56947 -0.574042,0 -1.258024,-0.82215 -1.013375,-1.21802 0.307932,-0.49821 -0.384281,-0.7182 -1.083138,-0.34416 -0.35643,0.19074 -0.776678,0.68487 -0.933793,1.09812 -0.325884,0.85717 -2.64025,2.16514 -3.349666,1.89291 -0.264763,-0.1016 -0.392804,-0.388 -0.291455,-0.65216 0.09941,-0.25905 0.02002,-0.82341 -0.176217,-1.25418 -0.265983,-0.58373 -0.562971,-0.76242 -1.166337,-0.70125 -0.547224,0.0554 -0.80977,-0.0704 -0.80977,-0.38809 0,-0.33007 0.266059,-0.44149 0.893486,-0.37466 0.622823,0.0664 0.852739,-0.0284 0.759126,-0.31316 -0.121321,-0.36911 -0.700245,-0.53638 -1.389579,-0.51314 z"
         id="path246" /><path
         style="fill:#ffffff;stroke-width:0.499999"
         d="m -234.81062,599.24374 c -0.40423,0.11932 -0.56212,0.73776 -1.12862,3.0918 -0.28476,1.18333 0.98435,4.25977 2.3828,5.77691 1.03218,1.1198 1.17659,1.45205 1.03353,2.37505 -0.12367,0.79793 0.0795,1.57553 0.79168,3.03134 0.52686,1.07693 1.14934,1.95802 1.38338,1.95802 0.23405,0 1.02897,0.75597 1.7663,1.68 1.30497,1.63542 1.37585,1.67627 2.67219,1.53014 0.73246,-0.0826 1.59506,0.003 1.9172,0.19017 0.91662,0.53255 1.94232,0.41795 2.30373,-0.25735 0.26125,-0.48815 0.48106,-0.55934 1.05524,-0.34106 0.39894,0.15171 0.88102,0.17956 1.07125,0.062 0.50381,-0.31139 1.02393,-1.84105 0.81287,-2.39107 -0.11169,-0.29104 -0.002,-0.47284 0.28525,-0.47284 0.25681,0 0.54309,0.29121 0.63614,0.64699 0.13942,0.53314 0.37547,0.62962 1.34152,0.54829 1.14226,-0.0961 1.17318,-0.13155 1.20148,-1.38493 0.016,-0.70744 0.22647,-1.52426 0.46767,-1.81488 0.33217,-0.40023 0.35014,-0.61618 0.0755,-0.8909 -0.44488,-0.44487 -0.47855,-2.00836 -0.0491,-2.27376 0.17231,-0.1065 0.31316,0.0969 0.31316,0.45165 0,0.42265 0.20347,0.64492 0.58963,0.64492 0.55161,0 0.5857,-0.28156 0.53382,-4.39353 l -0.0553,-4.39353 -1.19114,-0.84749 c -1.14249,-0.81291 -1.20794,-0.82389 -1.6154,-0.26665 -0.2642,0.36134 -0.62286,0.50507 -0.9493,0.37982 -0.28858,-0.11076 -0.70805,-0.0491 -0.93224,0.13694 -0.22419,0.18606 -1.08732,0.40248 -1.91823,0.48111 -0.83091,0.0787 -2.39189,0.43379 -3.46852,0.7891 -1.87407,0.61844 -2.02405,0.6237 -3.52072,0.12661 -0.85982,-0.28562 -1.63588,-0.63726 -1.72496,-0.78135 -0.0891,-0.14415 -0.71422,-0.35519 -1.38906,-0.46922 -0.67484,-0.11401 -1.30783,-0.41795 -1.40663,-0.67541 -0.11385,-0.29668 -0.4,-0.39853 -0.78135,-0.27751 -0.33097,0.10504 -0.69274,0.0444 -0.80357,-0.13487 -0.11083,-0.17931 -0.51027,-0.33479 -0.8878,-0.34572 -0.67749,-0.0196 -0.67668,-0.0238 0.045,-0.31316 0.9267,-0.37142 0.72717,-1.04697 -0.34675,-1.1746 -0.21382,-0.0254 -0.37582,-0.0408 -0.51056,-10e-4 z"
         id="path245" /><path
         style="fill:#ffffff;fill-opacity:1;stroke-width:0.499999"
         d="m -216.25258,595.48325 c -0.81728,0.16092 -1.29669,1.15308 -0.73123,1.5136 0.40099,0.25562 0.38979,0.30028 -0.078,0.30438 -0.30154,0.003 -0.54828,0.21643 -0.54828,0.4749 0,0.54586 0.49322,0.62547 0.79995,0.12919 0.14885,-0.24085 0.31497,-0.23123 0.56689,0.0326 0.26811,0.28078 0.22261,0.46024 -0.18397,0.72554 -0.48576,0.31694 -0.42285,0.45411 0.62632,1.36115 0.7361,0.63638 1.27675,0.89905 1.46451,0.71159 0.16369,-0.16346 0.5557,-0.29714 0.87126,-0.29714 0.81137,0 0.96973,-0.67176 0.41083,-1.74356 -0.26366,-0.50559 -0.48005,-1.07891 -0.48111,-1.27383 -0.003,-0.53199 -2.13504,-2.05297 -2.71714,-1.93838 z"
         id="path244" /><path
         style="fill:#ffffff;fill-opacity:1;stroke-width:0.499999"
         d="m -239.54315,594.17325 c -0.6544,0 -1.29008,1.65915 -1.08986,2.84427 0.17341,1.02637 0.33026,1.22835 0.9524,1.22835 0.43832,0 0.89075,-0.27319 1.10019,-0.66456 0.54764,-1.02327 -0.12603,-3.40806 -0.96273,-3.40806 z"
         id="path243" /><path
         style="fill:#ffffff;stroke-width:0.499999"
         d="m -67.43376,563.54515 c -1.989493,0.18542 -2.119452,0.4505 -0.853695,1.74408 1.701952,1.73931 2.136464,2.49128 1.725993,2.98586 -0.257495,0.31028 -0.207415,0.56776 0.197921,1.01699 3.868233,4.2872 5.085477,5.72593 5.085477,6.01152 0,0.18701 0.355943,0.61987 0.791166,0.96222 1.158456,0.91125 3.999989,6.53882 3.958415,7.83983 -0.01855,0.58002 -0.160634,1.21488 -0.315743,1.41025 -0.155112,0.19537 -0.436526,1.25162 -0.625285,2.34766 -0.350665,2.03605 -0.799846,2.92266 -1.422135,2.80603 -1.020672,-0.19129 -3.95273,1.58547 -3.95273,2.3952 0,0.61635 1.811666,2.04846 2.591573,2.04846 0.365204,0 1.187538,0.3623 1.827278,0.80563 0.639709,0.44334 1.633981,0.87692 2.209685,0.96325 1.821535,0.27326 2.647173,2.10871 1.792138,3.98529 -0.193299,0.42428 -0.616364,0.84091 -0.939994,0.92552 -0.323627,0.0847 -0.588595,0.39767 -0.588595,0.69557 0,0.29792 -0.352122,0.86839 -0.782898,1.26762 -0.936301,0.8677 -1.021883,1.6955 -0.175183,1.6955 0.334439,0 0.700148,0.14936 0.812871,0.33177 0.117578,0.19026 0.593141,0.24644 1.115177,0.13177 0.661325,-0.14523 0.910022,-0.082 0.910022,0.23203 0,0.44775 0.596026,1.18442 0.958598,1.18442 0.113786,0 0.685103,-0.31769 1.269173,-0.70538 0.584035,-0.38769 1.427708,-0.89299 1.875338,-1.12345 0.4476,-0.23047 1.561322,-1.46416 2.474784,-2.74143 0.913462,-1.27725 1.848879,-2.32234 2.078426,-2.32234 0.229518,0 0.503248,-0.34237 0.608232,-0.76068 0.104984,-0.4183 0.395777,-0.83914 0.646472,-0.93534 0.391832,-0.15036 1.328484,-1.89924 1.397847,-2.61018 0.01265,-0.13009 0.163916,-0.4066 0.336414,-0.61443 0.344744,-0.41537 0.05655,-1.13726 -0.35295,-0.88418 -0.140824,0.087 -0.326911,-0.11214 -0.413411,-0.44287 -0.266862,-1.02055 1.094859,-1.98278 3.033406,-2.14354 1.595812,-0.13232 1.705494,-0.096 1.804024,0.60048 0.132522,0.93649 0.533287,0.87523 1.172022,-0.17932 0.380023,-0.62738 0.408601,-0.88021 0.119372,-1.05936 -0.478522,-0.29642 -0.160874,-1.62264 0.388607,-1.62264 0.223062,0 0.770371,-0.43362 1.216463,-0.96377 0.600329,-0.71345 0.81132,-1.31751 0.81132,-2.32544 0,-0.9871 0.210758,-1.61253 0.765845,-2.27221 l 0.765328,-0.90951 -1.400431,-0.68057 c -0.77035,-0.37431 -1.578849,-0.68058 -1.796273,-0.68058 -0.667249,0 -2.517905,1.06678 -3.411161,1.96629 -0.98063,0.98745 -2.86927,1.19925 -3.192054,0.35811 -0.135688,-0.35359 -0.435843,-0.44303 -1.051615,-0.31367 -0.967099,0.20314 -1.488281,-0.0607 -1.488281,-0.75345 0,-0.60877 -1.100819,-0.8141 -1.445907,-0.26975 -0.204581,0.32269 -0.52769,0.14083 -1.368908,-0.76998 -0.605655,-0.65574 -1.101225,-1.3138 -1.101225,-1.46244 0,-0.62672 0.410651,-1.26142 0.816487,-1.26142 0.459129,0 0.579327,-0.37979 0.230477,-0.72864 -0.113379,-0.11337 -0.418356,-0.031 -0.677478,0.18294 -0.410286,0.33866 -0.448131,0.21695 -0.293522,-0.94258 0.165134,-1.23849 0.126012,-1.33119 -0.557589,-1.33119 -0.404208,0 -0.816486,0.13237 -0.91674,0.29456 -0.100221,0.16219 -0.496266,-0.0141 -0.880049,-0.39171 -0.624607,-0.61452 -0.642959,-0.70885 -0.172083,-0.90279 0.404804,-0.16671 0.47199,-0.41955 0.290939,-1.09657 -0.266047,-0.99481 -1.071814,-1.29174 -1.820044,-0.67076 -0.276638,0.22958 -0.778502,0.37077 -1.115694,0.31368 -0.400198,-0.0678 -0.564632,0.0408 -0.47284,0.31316 0.07735,0.22944 0.410097,0.43152 0.73949,0.44906 1.350786,0.072 1.420476,0.11202 1.121378,0.64648 -0.174378,0.31157 -0.180589,0.91064 -0.0155,1.48621 0.336221,1.17237 0.361554,2.25451 0.04547,1.93838 -0.12704,-0.12702 -0.232935,-0.46584 -0.235128,-0.75241 -0.0021,-0.28657 -0.285833,-0.57294 -0.630452,-0.63665 -0.934172,-0.17261 -1.674668,-0.95186 -1.508435,-1.5875 0.09596,-0.36698 -0.312286,-1.01103 -1.18029,-1.8619 -0.729903,-0.71549 -1.163521,-1.30121 -0.963766,-1.30121 0.464455,0 0.479866,-2.08367 0.01757,-2.36937 -0.189917,-0.11737 -0.547596,-0.69715 -0.794783,-1.28881 -0.355647,-0.85116 -0.577869,-1.03503 -1.064535,-0.88056 -0.349006,0.11075 -0.614949,0.0502 -0.614949,-0.13953 0,-0.18391 -0.211273,-0.33435 -0.469739,-0.33435 -0.258466,0 -0.470256,-0.12993 -0.470256,-0.28887 0,-0.15896 -0.528443,-0.45087 -1.174605,-0.64854 -0.646162,-0.19767 -1.492024,-0.51403 -1.879472,-0.70331 -0.387445,-0.18929 -0.80004,-0.24849 -0.91674,-0.13178 -0.116702,0.11671 -0.536759,-0.0931 -0.933793,-0.46612 -0.522128,-0.49048 -0.669661,-0.88711 -0.532784,-1.43247 0.178858,-0.71255 0.122325,-0.74783 -1.031461,-0.64027 z"
         id="path236" /><path
         style="fill:#ffffff;fill-opacity:1;stroke-width:0.499999"
         d="m -120.50701,478.15346 c -1.39724,-0.0574 -2.14309,0.59817 -0.8909,0.7829 0.38203,0.0564 0.72683,0.32707 0.76636,0.60203 0.10881,0.75692 2.19385,3.36049 3.57963,4.46949 0.67577,0.54081 1.23599,1.1662 1.24488,1.38958 0.009,0.22342 0.43863,0.64647 0.95447,0.94 0.51583,0.29353 0.93838,0.64101 0.93948,0.77256 10e-4,0.13158 0.75542,0.58408 1.67586,1.00511 0.92048,0.42103 1.85416,0.98262 2.07481,1.2485 0.22065,0.26588 0.58367,0.48369 0.80667,0.48369 0.223,0 0.45207,0.11958 0.50953,0.26613 0.18719,0.47771 2.91094,2.05855 3.41478,1.9818 0.2699,-0.0411 0.746,0.20682 1.05782,0.55138 0.59186,0.654 1.24074,0.53062 1.99677,-0.38034 0.4689,-0.56501 -0.16497,-2.02674 -0.99529,-2.29495 -0.32059,-0.10355 -1.09578,-0.63964 -1.72289,-1.19114 -0.62711,-0.55152 -1.91568,-1.47544 -2.86339,-2.0531 -3.08074,-1.87791 -3.75488,-2.35741 -3.76256,-2.67581 -0.0113,-0.46707 -1.3057,-1.6017 -2.12028,-1.8588 -0.39234,-0.12382 -1.3525,-0.77852 -2.13372,-1.45469 -0.78126,-0.67617 -1.54708,-1.22938 -1.70223,-1.22938 -0.1551,0 -0.5547,-0.29259 -0.8878,-0.65009 -0.40674,-0.43659 -1.04451,-0.66804 -1.942,-0.70487 z"
         id="path219" /><path
         style="fill:#ffffff;fill-opacity:1;stroke-width:0.499999"
         d="m -39.582747,457.90198 c -0.514453,0.0225 -3.198587,3.83361 -3.379639,4.79868 -0.148248,0.79023 0.0357,1.47956 0.791166,2.96622 0.923488,1.81732 1.051629,1.93684 2.08101,1.93684 1.194484,0 2.321398,0.47374 2.716114,1.14205 0.399007,0.67561 1.148899,0.4927 1.472778,-0.35915 0.239387,-0.62966 0.512833,-0.7829 1.394747,-0.7829 0.843472,0 1.223889,-0.19363 1.645894,-0.83768 0.403987,-0.61658 0.446918,-0.87196 0.162264,-0.96686 -0.254206,-0.0847 -0.153795,-0.31783 0.293522,-0.68007 0.444809,-0.3602 0.608964,-0.73728 0.473873,-1.08933 -0.113662,-0.29621 -0.338634,-0.45697 -0.500228,-0.35709 -0.161628,0.0999 -0.378567,0.0446 -0.482141,-0.12299 -0.103574,-0.16761 -0.395226,-0.2257 -0.648022,-0.12867 -0.27087,0.10392 -0.834074,-0.22413 -1.371493,-0.79944 -0.833511,-0.89228 -0.988779,-0.94515 -1.801957,-0.61133 -0.489362,0.20087 -1.120817,0.33689 -1.403532,0.30231 -0.28268,-0.0346 -1.031261,0.22758 -1.662947,0.58239 -1.024868,0.57563 -1.199526,0.59416 -1.622124,0.17157 -0.615835,-0.61582 -0.362949,-1.33835 0.981853,-2.80655 0.986082,-1.07656 1.46245,-2.38435 0.858862,-2.358 z"
         id="path197" /><path
         style="fill:#ffffff;fill-opacity:1;stroke-width:0.499999"
         d="m -25.558797,454.93576 c -0.636865,-0.0429 -1.71399,0.20247 -2.71508,0.77101 -0.543247,0.30853 -1.776452,0.7248 -2.740918,0.92501 -1.072111,0.22256 -1.753898,0.5271 -1.753898,0.78289 0,0.25792 -0.229731,0.35817 -0.599446,0.26149 -0.671978,-0.17574 -1.45915,0.92506 -1.08934,1.52342 0.784542,1.26942 2.315621,2.03753 2.315621,1.16169 0,-0.19635 0.276464,-0.27756 0.630453,-0.18501 0.395467,0.10343 0.734782,-0.0289 0.909505,-0.35501 0.217924,-0.40672 0.745702,-0.51987 2.423625,-0.51987 1.83197,0 2.132758,0.0765 2.058789,0.52452 -0.114758,0.695 0.474232,1.03068 1.017509,0.57981 0.336068,-0.27893 0.359263,-0.57114 0.103869,-1.3038 -0.238791,-0.68503 -0.230402,-1.04342 0.03101,-1.30483 0.271656,-0.27165 0.185081,-0.49848 -0.352433,-0.92036 -0.669816,-0.52575 -0.679867,-0.58521 -0.164848,-0.98185 0.759385,-0.58482 0.562451,-0.91619 -0.07441,-0.95911 z"
         id="path195" /><path
         style="fill:#ffffff;fill-opacity:1;stroke-width:0.499999"
         d="m -96.312618,447.55274 c -0.313602,0 -0.400098,0.30757 -0.307991,1.09658 0.111156,0.95205 0.03962,1.09657 -0.543636,1.09657 -0.78686,0 -1.862717,1.06376 -1.564246,1.54668 0.299725,0.48498 1.283593,0.40733 1.735295,-0.13694 0.6216,-0.74899 1.006834,-0.54777 0.7953,0.41547 -0.106987,0.487 -0.03815,1.29675 0.152962,1.79938 0.309814,0.81494 0.260007,0.98907 -0.457336,1.6061 -0.98862,0.85037 -1.009956,1.21908 -0.09922,1.69292 0.973613,0.50655 0.95444,0.46343 0.543119,1.23197 -0.444777,0.83108 0.105868,1.55574 1.247469,1.64176 0.395467,0.0298 0.875337,0.30456 1.066602,0.61081 0.446251,0.71454 1.138464,0.72009 1.132231,0.009 -0.006,-0.68204 -0.287,-1.07504 -1.091407,-1.52549 -0.388103,-0.21736 -0.589366,-0.60521 -0.52865,-1.01854 0.05388,-0.36703 -0.04755,-0.66715 -0.225309,-0.66715 -0.177728,0 -0.236604,-0.22592 -0.130741,-0.50177 0.105859,-0.27586 0.0025,-0.61903 -0.22996,-0.76275 -0.348975,-0.21569 -0.352125,-0.39346 -0.01757,-1.01854 0.338793,-0.63304 0.322691,-0.99995 -0.09715,-2.23656 -0.276227,-0.81364 -0.416734,-1.61771 -0.312126,-1.78697 0.307464,-0.49749 -0.588361,-3.09232 -1.067635,-3.09232 z"
         id="path194" /><path
         style="fill:#ffffff;fill-opacity:1;stroke-width:0.499999"
         d="m -105.01235,445.98643 c -0.59966,0 -0.85133,1.26794 -0.45733,2.30425 0.18186,0.47834 0.33073,1.22638 0.33073,1.66243 0,1.26955 0.95624,2.61113 1.86913,2.62258 0.95216,0.0119 2.08307,0.77373 1.59577,1.07487 -0.59744,0.36926 -0.38525,1.77922 0.29456,1.95699 0.34462,0.0901 0.62683,0.35005 0.62683,0.57723 0,0.22714 0.14347,0.79032 0.31885,1.2516 0.25314,0.6658 0.462903,0.7999 1.018022,0.65112 0.384628,-0.10311 1.01687,-0.18936 1.404566,-0.19172 0.844131,-0.005 0.971793,-1.01614 0.206706,-1.63659 -0.273973,-0.2222 -1.033366,-0.95605 -1.687236,-1.63039 -1.021608,-1.05362 -1.189608,-1.42813 -1.195278,-2.66289 -0.004,-0.79031 -0.18297,-1.85965 -0.39842,-2.3766 -0.21542,-0.51691 -0.40497,-1.15126 -0.42117,-1.40973 -0.0506,-0.80719 -1.23467,-0.55049 -1.44435,0.31316 l -0.19017,0.78341 -0.22996,-0.89452 c -0.3122,-1.21517 -1.12081,-2.3952 -1.64125,-2.3952 z"
         id="path192" /><path
         style="fill:#ffffff;stroke-width:0.499999"
         d="m -250.01796,421.57862 c -0.2605,0.0335 -0.50305,0.23665 -0.73639,0.6103 -0.48852,0.78221 -0.25274,1.23403 0.65835,1.26039 l 0.68678,0.0196 -0.70486,0.28371 c -0.41895,0.16838 -0.72141,0.57344 -0.74518,0.99839 -0.0796,1.42332 -0.1965,1.99441 -0.72295,3.53415 -0.29457,0.86156 -0.74996,1.8043 -1.01234,2.09444 -0.53973,0.5968 -1.32286,2.6295 -1.34359,3.48765 -0.0103,0.42883 0.14094,0.5203 0.61288,0.37052 0.8461,-0.26856 0.78985,0.26167 -0.13332,1.2578 -0.65495,0.7067 -0.71559,0.94743 -0.4377,1.7446 0.2501,0.71741 0.21502,1.08881 -0.1571,1.65674 -0.80782,1.23291 -0.97874,2.91278 -0.38809,3.81424 0.4241,0.64728 0.4572,0.98106 0.17777,1.79989 -0.25918,0.75956 -0.24129,1.38848 0.0734,2.57194 0.38534,1.4492 0.36268,1.70195 -0.30437,3.37498 -0.39656,0.9946 -0.77768,2.54499 -0.84646,3.44579 -0.18964,2.48337 -0.4804,3.38277 -1.61076,4.98006 -0.5692,0.8043 -1.12874,1.96212 -1.24333,2.57297 -0.35806,1.90862 -3.34545,3.21781 -5.24774,2.2996 -0.55243,-0.26665 -1.74828,-0.81425 -2.65721,-1.21647 -1.5286,-0.67643 -1.63811,-0.7957 -1.46296,-1.59318 0.1465,-0.66696 0.0731,-0.86248 -0.32401,-0.86248 -0.77298,0 -0.23334,-0.62933 0.97152,-1.13275 0.58203,-0.2432 1.05833,-0.58086 1.05833,-0.75086 0,-0.17002 0.27377,-0.30902 0.60823,-0.30902 0.88757,0 1.0307,-0.4641 0.33693,-1.09192 -0.4332,-0.39206 -0.85619,-0.48676 -1.48053,-0.33177 -0.94609,0.23485 -2.28099,1.32522 -2.28874,1.86966 -0.0138,0.96583 -0.50654,1.16106 -1.7477,0.69246 -0.67323,-0.25421 -1.78761,-0.55596 -2.47685,-0.67076 -0.92152,-0.15346 -1.58531,-0.56297 -2.50683,-1.54719 -0.68924,-0.73618 -2.06503,-1.72207 -3.05769,-2.19057 -0.99266,-0.46849 -1.72387,-0.98315 -1.62471,-1.1436 0.34126,-0.55215 -0.20817,-1.51045 -1.12913,-1.9699 -0.86061,-0.42934 -0.95425,-0.41482 -1.39319,0.21187 -0.37849,0.54033 -0.47078,0.56948 -0.47078,0.15038 0,-0.78578 -0.66874,-1.0387 -1.11879,-0.42323 -0.37293,0.51001 -0.41888,0.50458 -0.73484,-0.0858 -0.18524,-0.34616 -1.40459,-1.29481 -2.70991,-2.1084 -2.15596,-1.34374 -2.35518,-1.55253 -2.17351,-2.27635 0.10998,-0.43825 0.73765,-1.43966 1.39474,-2.22518 0.65712,-0.7855 1.24804,-1.71004 1.3131,-2.05466 0.0842,-0.44611 0.4107,-0.6546 1.13378,-0.7245 0.90109,-0.0871 1.01596,-0.01 1.01596,0.68626 0,0.43151 -0.17571,0.89325 -0.39016,1.02578 -0.61634,0.38092 1.97295,0.89241 3.89486,0.76946 0.70905,-0.0453 0.61485,-1.28674 -0.0977,-1.28674 -0.6023,0 -0.60169,-0.63818 0,-1.36478 0.45812,-0.55197 0.22542,-1.14153 -0.45062,-1.14153 -0.24829,0 -0.45165,-0.14376 -0.45165,-0.31936 0,-0.33819 -1.48451,-0.0931 -2.03709,0.33641 -0.50834,0.3951 -1.26906,-0.41679 -1.26039,-1.34514 0.006,-0.65164 0.13206,-0.81823 0.52349,-0.69401 0.90461,0.28713 2.19285,-1.45009 2.32544,-3.13573 0.0468,-0.59467 0.44203,-1.26038 1.09502,-1.84381 0.84846,-0.75811 0.95847,-0.99888 0.64854,-1.42007 -0.20526,-0.27898 -0.45582,-0.7542 -0.55707,-1.05575 -0.20548,-0.61193 -0.59923,-0.71228 -0.89762,-0.22944 -0.39685,0.64211 -0.84451,-0.11231 -0.67748,-1.14153 0.20132,-1.24063 -0.25476,-1.3888 -1.2945,-0.42013 -0.84298,0.78533 -3.50727,1.95914 -3.50727,1.54512 0,-0.16618 0.11028,-0.30231 0.24546,-0.30231 0.13515,0 0.49693,-0.42517 0.80408,-0.94516 0.30716,-0.51996 0.68611,-0.86672 0.84181,-0.77049 0.80174,0.49548 4.06074,-2.55036 4.06074,-3.79512 0,-0.93382 -0.63246,-0.66994 -1.46193,0.6103 -0.94459,1.45793 -2.42419,2.54959 -3.29747,2.43241 -0.29157,-0.0391 -0.75603,0.27363 -1.0325,0.69556 -0.27643,0.42191 -0.74313,0.85047 -1.03663,0.95188 -0.29353,0.10144 -1.09773,0.53311 -1.78697,0.95912 -0.68924,0.42603 -1.42895,0.7806 -1.64434,0.78806 -0.55309,0.0193 -0.48884,-0.909 0.078,-1.12654 0.60817,-0.23337 0.60817,-0.73949 0,-0.73949 -0.25845,0 -0.46974,0.13757 -0.46974,0.30592 0,0.16836 -0.59939,0.30344 -1.3317,0.30024 -0.73231,-0.003 -1.79611,-1.5e-4 -2.3642,0.006 -0.68675,0.008 -1.31695,-0.2543 -1.87999,-0.78341 -0.6678,-0.62754 -1.11137,-0.77679 -2.09961,-0.70435 -1.19332,0.0875 -1.25015,0.051 -1.18959,-0.76946 0.048,-0.65016 -0.078,-0.86145 -0.51211,-0.86145 -0.31642,0 -0.64883,0.2817 -0.73898,0.62632 -0.23725,0.90731 -0.66775,0.77439 -1.5136,-0.46767 -0.83995,-1.23336 -0.97926,-1.29084 -1.52859,-0.62891 -0.63995,0.77108 -0.83962,0.54841 -0.86248,-0.96376 -0.0119,-0.78875 -0.1114,-1.52421 -0.22117,-1.63401 -0.33552,-0.33549 -1.27195,0.45559 -1.17461,0.99219 0.0757,0.41714 -0.0461,0.45111 -0.70797,0.19947 -1.52278,-0.57896 -3.6127,0.0755 -3.6127,1.1312 0,0.23738 0.19869,0.43201 0.44184,0.43201 0.24312,0 0.80734,0.43387 1.25367,0.96428 0.65521,0.77867 0.84829,0.869 1.00149,0.46974 0.10435,-0.27194 0.4926,-0.49454 0.86299,-0.49454 0.51324,0 0.7678,0.30283 1.07022,1.27176 0.43098,1.38099 0.30052,1.93026 -0.39481,1.66346 -0.24402,-0.0937 -0.73677,0.10289 -1.09502,0.43667 -0.50165,0.46738 -1.14556,0.61591 -2.80138,0.64647 -1.9396,0.0358 -2.16663,-0.0248 -2.32234,-0.62012 -0.10776,-0.41211 -0.34139,-0.59474 -0.6227,-0.48679 -0.24775,0.0951 -0.59939,0.0239 -0.78135,-0.15813 -0.23225,-0.23225 0.0596,-0.65549 0.97979,-1.42059 1.7332,-1.44102 1.90369,-1.79343 1.30793,-2.70267 -0.63852,-0.97452 -1.46444,-1.1792 -2.53008,-0.62632 -0.46746,0.24251 -0.9215,0.36937 -1.00924,0.28163 -0.0877,-0.0877 -0.33483,-0.0143 -0.5488,0.1633 -0.27588,0.22897 -0.73101,0.13036 -1.5658,-0.33848 l -1.17719,-0.66094 -0.73432,0.85421 c -0.70115,0.81595 -0.86718,1.21243 -0.75913,1.81023 0.0269,0.14859 -0.19077,0.44521 -0.48369,0.65939 -0.29474,0.21553 -0.45075,0.60281 -0.34933,0.86713 0.14057,0.36631 0.64541,0.46615 2.16576,0.42736 2.45861,-0.0627 3.62717,0.42891 3.62717,1.52601 0,0.68736 -0.17224,0.82545 -1.24075,0.99632 -0.85413,0.13658 -1.32357,0.40399 -1.50741,0.85886 -0.14681,0.36335 -0.27587,0.53739 -0.2868,0.38706 -0.0453,-0.62429 -0.95963,0.56816 -0.95963,1.2516 0,0.46003 -0.18377,0.74517 -0.48008,0.74517 -0.26389,0 -0.57028,0.24675 -0.68109,0.54829 -0.11083,0.30152 -0.39613,0.66508 -0.63407,0.80822 -0.33435,0.20114 -0.34966,0.3608 -0.0667,0.70177 0.2014,0.24267 0.48183,0.36974 0.6227,0.28267 0.14089,-0.087 0.3348,-0.031 0.43098,0.12454 0.22079,0.35729 -0.575,1.03742 -1.12655,0.96273 -0.94387,-0.12785 -1.15281,0.0896 -1.50843,1.572 -0.25199,1.05047 -0.56798,1.61656 -0.97462,1.74563 -0.61508,0.19521 -1.53479,1.64996 -1.53479,2.42776 0,0.23791 0.34589,0.61722 0.76843,0.84335 0.78888,0.4222 0.88022,0.82809 0.32401,1.43661 -0.35679,0.39034 -3.25086,0.3334 -4.69532,-0.0925 -1.05135,-0.31001 -2.03657,-0.18712 -2.03657,0.25373 0,0.15968 -0.14928,0.2899 -0.33176,0.2899 -0.18248,0 -0.24633,-0.13782 -0.14211,-0.30644 0.31178,-0.50445 -5.08545,-5.64565 -5.92677,-5.64565 -0.40058,0 -0.90376,-0.21178 -1.11828,-0.47025 -0.2145,-0.25847 -0.79556,-0.46974 -1.29139,-0.46974 -0.69393,0 -0.90176,0.14456 -0.90176,0.6289 0,0.53404 -0.0874,0.57469 -0.57981,0.26717 -0.47633,-0.29747 -0.7052,-0.23738 -1.27847,0.33589 -0.64773,0.6477 -0.72687,0.65983 -1.08882,0.16485 -0.2675,-0.36584 -0.60437,-0.466 -1.07126,-0.31781 -0.70995,0.22532 -0.92985,1.23624 -0.34726,1.59629 0.21973,0.13581 0.15777,0.40087 -0.1819,0.77618 -0.49798,0.55028 -0.53717,0.54858 -1.13637,-0.0506 -0.67381,-0.67378 -1.36477,-0.63763 -1.36477,0.0713 0,1.02875 -1.37176,1.69037 -1.95234,0.94154 -0.34083,-0.43963 -0.42341,-0.44324 -0.7121,-0.0279 -0.33009,0.47484 -0.2765,1.25285 0.15813,2.28978 0.20092,0.47937 0.10028,0.55142 -0.65371,0.46974 -0.68471,-0.0742 -0.91866,0.0487 -1.01079,0.5302 -0.21444,1.12106 -0.37189,1.18748 -3.27008,1.37459 -0.76626,0.0494 -0.69168,0.97514 0.0786,0.97514 0.65764,0 0.8005,0.49318 0.34933,1.20509 -0.15079,0.23794 -0.13213,0.95593 0.0429,1.64538 0.22648,0.89228 0.20842,1.34628 -0.0677,1.67897 -0.20812,0.25079 -0.28788,0.60306 -0.17673,0.78289 0.27154,0.43937 0.0882,0.41267 -0.97358,-0.14107 -0.49356,-0.25742 -0.72129,-0.46868 -0.50592,-0.46974 0.2154,0 0.39171,-0.21385 0.39171,-0.47232 0,-0.25848 0.21127,-0.46974 0.46974,-0.46974 0.49252,0 0.6212,-0.37099 0.25528,-0.73691 -0.11819,-0.11819 -0.61812,0.22667 -1.11104,0.76636 -0.78772,0.86244 -0.96086,0.92878 -1.42989,0.54984 -0.67066,-0.54187 -2.12872,-0.56417 -2.0221,-0.031 0.0431,0.2154 -0.0623,0.39171 -0.23461,0.39171 -0.17229,0 -0.31367,-0.14083 -0.31367,-0.31316 0,-0.17229 -0.21127,-0.31367 -0.46974,-0.31367 -0.67133,0 -0.5805,0.54552 0.15658,0.93999 0.75885,0.40614 0.78699,0.73436 0.1204,1.40095 -0.46587,0.46588 -0.46201,0.55511 0.0486,1.11931 0.30504,0.33705 0.73597,0.61288 0.95756,0.61288 0.58965,0 0.87889,0.62593 0.47543,1.0294 -0.19177,0.19177 -0.34882,0.8423 -0.34882,1.44539 0,0.68873 -0.1099,0.98587 -0.29559,0.79891 -0.26403,-0.2658 -2.52388,-4.51622 -2.52388,-4.74699 0,-0.0513 0.2113,-0.0935 0.46974,-0.0935 0.25847,0 0.47026,-0.22641 0.47026,-0.50333 0,-0.30871 -0.17433,-0.43653 -0.4501,-0.33072 -0.24734,0.0949 -0.51087,0.004 -0.58601,-0.20154 -0.21302,-0.58322 -1.19999,0.13555 -1.76734,1.28726 -0.26749,0.543 -0.634,0.99085 -0.81442,0.99477 -0.41952,0.009 -2.46242,2.13824 -2.93367,3.05769 -0.48559,0.9475 -0.1001,4.77342 0.50436,5.00538 0.57007,0.21876 -0.25127,1.02715 -1.69137,1.6645 -0.55136,0.24403 -1.17433,0.76499 -1.38441,1.15755 -0.21008,0.39254 -0.49914,0.71365 -0.64234,0.71365 -0.14319,0 -0.26045,0.32792 -0.26045,0.72916 0,0.91752 -1.56055,3.30285 -2.72334,4.16254 -1.02585,0.75842 -4.16623,1.92107 -6.658,2.46444 -0.95726,0.20876 -1.88129,0.42499 -2.05362,0.48111 -0.17229,0.0561 -0.9935,-0.0102 -1.82469,-0.14728 -1.4346,-0.23667 -1.56539,-0.19663 -2.57814,0.78497 -0.80047,0.77584 -1.40065,1.06065 -2.4045,1.1405 -2.03549,0.1619 -2.53828,0.32453 -3.35587,1.08624 -0.4137,0.38541 -0.97486,0.74254 -1.24695,0.79323 -2.32598,0.43333 -2.84479,0.45228 -2.84479,0.10594 0,-0.2494 -0.30515,-0.30531 -0.92346,-0.1695 -0.86085,0.18907 -0.91915,0.14292 -0.86144,-0.68006 0.0423,-0.60341 -0.0865,-0.88264 -0.40773,-0.88264 -0.25847,0 -0.47026,0.16432 -0.47026,0.36535 0,0.63752 -0.49238,0.88726 -0.80615,0.40877 -0.25794,-0.39336 -0.36984,-0.37179 -0.76584,0.14727 -0.25519,0.33446 -0.46406,0.86689 -0.46406,1.18288 0,0.38774 -0.30571,0.63538 -0.93999,0.76222 -0.51695,0.1034 -0.94,0.31563 -0.94,0.47181 0,0.15618 -0.24674,0.37473 -0.54828,0.48524 -0.53745,0.19698 -0.99656,0.56845 -2.59933,2.10272 -0.43884,0.4201 -1.4258,1.00094 -2.19315,1.29087 -3.50231,1.32337 -4.30788,1.96728 -4.85758,3.884 -0.16846,0.58733 -0.457,1.11834 -0.64131,1.17978 -0.58782,0.19595 -0.99592,-1.22743 -0.68006,-2.37144 0.41312,-1.49616 -0.13052,-1.95558 -1.16427,-0.98443 -0.43304,0.40682 -0.78755,0.90517 -0.78755,1.10794 0,0.20278 -0.35213,1.03157 -0.78289,1.84175 -0.89879,1.69034 -0.97912,2.45402 -0.31523,3.00498 0.76494,0.63484 0.26438,3.5921 -0.88367,5.22087 -1.27016,1.802 -1.5323,4.37938 -0.56999,5.60276 0.36058,0.45842 0.74595,1.31418 0.85628,1.90221 0.1103,0.58804 0.38586,1.17285 0.61237,1.29966 0.22651,0.12679 0.68547,0.86534 1.02009,1.64073 0.33462,0.77539 0.87502,1.64775 1.20096,1.9389 0.45754,0.40868 0.56677,0.85497 0.47904,1.95802 -0.0625,0.78579 -0.22375,1.42885 -0.35864,1.42885 -0.32485,0 -0.62203,-1.15952 -0.62735,-2.44791 -0.003,-0.85468 -0.11267,-1.02017 -0.61908,-0.93948 -0.39431,0.0629 -0.94526,-0.29536 -1.53531,-0.99838 l -0.92035,-1.09658 -0.40256,0.87798 c -0.34269,0.74793 -0.32396,1.01045 0.12557,1.77147 0.68101,1.15282 0.6697,1.20668 -0.21446,1.03767 -0.57361,-0.10967 -0.87253,-0.5263 -1.31775,-1.83607 -0.40997,-1.20618 -0.73807,-1.69447 -1.13791,-1.69447 -0.86249,0 -0.69066,1.46935 0.38447,3.28921 0.50898,0.86153 1.02321,1.77809 1.14257,2.03656 0.11935,0.25848 0.86676,1.20464 1.66088,2.10272 1.90589,2.15537 3.56139,5.24778 3.36362,6.2823 -0.18698,0.97817 0.44208,2.54595 1.35185,3.36931 0.84857,0.76795 1.64601,2.26508 1.40973,2.64738 -0.097,0.15695 0.2242,0.75209 0.71366,1.3224 1.25539,1.46283 1.55911,2.49876 1.73271,5.90455 0.14023,2.75084 0.25912,3.19825 1.49655,5.63945 0.73922,1.4583 1.45171,2.72674 1.58336,2.81895 0.74819,0.52387 1.18421,2.55846 1.01699,4.74389 -0.0965,1.26188 -0.19973,3.37499 -0.22944,4.69584 -0.0297,1.32083 -0.12469,2.44993 -0.21084,2.50941 -0.0862,0.0595 -0.46988,0.37211 -0.85318,0.69453 -0.65585,0.55171 -0.74396,0.55552 -1.49241,0.0651 -0.77322,-0.50662 -0.80363,-0.49843 -1.10433,0.29249 -0.44201,1.16258 -0.38215,2.81129 0.14831,4.08089 0.39008,0.93358 0.57044,1.06724 1.21957,0.90434 0.92554,-0.23231 2.50989,0.51909 3.80545,1.80454 1.50527,1.49354 4.24502,2.44594 7.02851,2.44274 1.30366,-0.003 3.07518,0.0624 3.93671,0.14263 1.2386,0.11533 1.91118,-0.0207 3.21428,-0.65009 0.90641,-0.43789 1.5771,-0.91125 1.49034,-1.05162 -0.0867,-0.14038 0.22801,-0.35185 0.6997,-0.47025 1.04733,-0.26286 1.69656,-0.76687 1.46658,-1.13895 -0.0941,-0.15219 0.58788,-0.25961 1.51567,-0.23823 2.03107,0.0468 3.17456,-0.46484 2.95073,-1.32085 -0.0863,-0.32988 -0.056,-0.59996 0.0677,-0.59996 0.12367,0 0.53838,-0.2917 0.92139,-0.64854 0.75422,-0.70265 2.03132,-0.83828 9.6697,-1.02733 2.95624,-0.0732 3.86106,-1.6e-4 3.98425,0.32091 0.17097,0.44553 1.74563,0.5877 1.74563,0.15762 0,-0.14174 0.99986,-0.28449 2.22157,-0.3173 1.98919,-0.0534 2.23821,0.006 2.3859,0.57103 0.20823,0.79626 0.46368,0.79699 0.95911,0.004 0.21543,-0.34499 0.73053,-0.62631 1.14619,-0.62631 1.16572,0 1.76842,-0.3309 2.07584,-1.13947 0.15483,-0.40727 0.49421,-0.74052 0.75448,-0.74052 0.30035,0 0.60491,-0.52246 0.83354,-1.43041 0.4024,-1.59805 1.05369,-2.14721 2.93832,-2.47891 0.68924,-0.12129 1.6058,-0.41137 2.03657,-0.64441 0.43079,-0.23302 2.28113,-1.14122 4.11189,-2.01796 3.1455,-1.50638 3.40395,-1.57682 4.70514,-1.2852 1.73119,0.38796 4.02639,0.1983 7.63054,-0.63045 2.73283,-0.62838 3.43079,-0.87034 6.42235,-2.22519 1.56715,-0.70977 6.31122,-1.22126 10.55646,-1.13791 1.67547,0.0329 2.73368,-0.087 3.04478,-0.3452 0.59605,-0.49469 2.66692,0.22162 5.10304,1.76475 1.56927,0.99404 3.53984,1.39102 3.53984,0.71313 0,-0.451 1.53998,-0.0304 2.59829,0.70952 0.48157,0.33674 1.35705,0.61237 1.94562,0.61237 0.58856,0 1.23565,0.19898 1.43764,0.44235 0.27646,0.33311 0.47198,0.35524 0.79168,0.0899 0.4318,-0.35835 0.42991,-0.36064 0.88573,1.11105 0.10261,0.33128 0.43914,0.40444 1.25316,0.27233 0.72538,-0.11771 1.11311,-0.0573 1.11311,0.17364 0,0.19483 -0.22788,0.3545 -0.50643,0.3545 -0.35216,0 -0.45701,0.19035 -0.34313,0.6258 0.0901,0.34443 0.0488,0.69794 -0.092,0.78496 -0.14081,0.087 0.16586,0.63442 0.68161,1.21698 0.63998,0.72284 1.12821,1.0094 1.53789,0.90227 0.82802,-0.21653 2.16783,0.72925 2.16783,1.53014 0,0.37931 0.60364,1.22143 1.41904,1.98076 0.98313,0.91556 1.35741,1.47997 1.21956,1.83916 -0.1112,0.2898 -0.0462,0.51832 0.14779,0.51832 0.19074,0 0.34675,0.27779 0.34675,0.61702 0,0.40473 -0.15334,0.55774 -0.44596,0.44545 -0.253,-0.0971 -0.59153,0.10182 -0.7829,0.4594 -0.46585,0.87048 -0.42598,1.03889 0.22169,0.92914 0.56869,-0.0963 1.09967,0.24787 2.44274,1.58492 0.58426,0.5816 0.84506,0.66759 1.18184,0.38809 0.33139,-0.27504 0.52714,-0.24498 0.83768,0.12919 0.22278,0.26842 0.58907,0.41719 0.81442,0.33073 0.22535,-0.0865 0.50072,-0.01 0.61185,0.17001 0.13973,0.22609 0.30494,0.22379 0.53537,-0.007 0.2354,-0.2354 0.20204,-0.49628 -0.11369,-0.88884 -0.52943,-0.65833 -1.23042,-1.87963 -1.23042,-2.14405 0,-0.10287 0.17187,-0.12944 0.38189,-0.0594 0.38306,0.12769 1.65126,-1.3438 1.99781,-2.31821 0.10176,-0.28609 1.35864,-1.06 2.7926,-1.71979 2.45853,-1.13122 2.65793,-1.29851 3.49539,-2.92643 0.62185,-1.20881 1.09909,-1.75616 1.59267,-1.82625 0.40648,-0.0577 0.70918,-0.32323 0.71468,-0.62684 0.008,-0.46627 0.0473,-0.461 0.34158,0.045 0.2593,0.44588 0.20846,0.66187 -0.23202,0.98392 -0.49025,0.35849 -0.51257,0.52612 -0.17002,1.27796 0.36013,0.79036 0.31577,0.94933 -0.51314,1.83555 -1.38084,1.47627 -1.94252,2.43829 -1.94252,3.32744 0,0.44413 -0.16855,0.97622 -0.37466,1.18236 -0.29085,0.29083 -0.26243,0.46257 0.12764,0.7674 0.36899,0.28834 0.42987,0.58013 0.22841,1.0976 -0.21838,0.56097 -0.52006,0.70487 -1.47742,0.70487 -1.10805,0 -1.24757,0.10188 -1.77147,1.28933 -0.46548,1.05502 -0.49278,1.33595 -0.14935,1.54822 0.23082,0.14264 0.57863,0.1279 0.77256,-0.0331 0.19394,-0.16095 0.43183,-0.21312 0.52917,-0.11576 0.0974,0.0974 0.6328,-0.0583 1.18959,-0.34623 0.611,-0.31596 1.36281,-0.45351 1.89653,-0.34675 0.53226,0.10644 0.98112,0.025 1.12706,-0.20464 0.37118,-0.58382 1.32145,-3.35741 1.15032,-3.35741 -0.0831,0 0.0901,-0.4076 0.38447,-0.90589 l 0.53485,-0.90589 1.07436,1.56166 c 0.98387,1.43029 1.05659,1.6914 0.86299,3.09904 -0.11626,0.84542 -0.32406,1.53686 -0.46199,1.53686 -0.1379,0 -0.68646,0.40735 -1.21904,0.90485 -1.34914,1.26029 -1.82943,1.37655 -2.58124,0.62477 -0.73972,-0.73975 -1.58148,-0.70504 -5.03897,0.20722 -2.31706,0.61137 -2.77998,1.15391 -1.83865,2.15594 0.54158,0.57647 0.96611,0.65982 3.27939,0.64389 1.99321,-0.0138 2.79887,-0.14576 3.22461,-0.52813 0.3638,-0.32668 0.87749,-0.44983 1.43092,-0.34262 0.98552,0.19095 1.84484,-0.36323 1.5906,-1.02578 -0.13258,-0.34549 0.14211,-0.447 1.20923,-0.447 0.75935,0 1.53898,-0.15819 1.73271,-0.35191 0.84968,-0.84969 4.24211,1.34482 5.55418,3.59306 1.3807,2.36585 1.49428,2.93562 0.72812,3.64939 -0.49934,0.46524 -0.5861,0.72438 -0.32866,0.98185 0.19235,0.19235 0.28816,0.50984 0.21291,0.7059 -0.14769,0.38486 3.5339,4.38722 4.85965,5.28288 0.44466,0.30041 1.27368,0.54715 1.84226,0.54829 1.27154,0.003 2.88252,0.79623 2.88252,1.42007 0,0.25405 0.10589,0.47315 0.23512,0.48731 0.12924,0.0143 0.62273,0.0896 1.09658,0.16743 0.62703,0.10308 0.86144,0.0109 0.86144,-0.339 0,-0.54798 1.71428,-0.68892 2.03657,-0.16743 0.1065,0.1723 0.68763,0.31316 1.2914,0.31316 0.92849,0 2.83937,0.70311 5.20485,1.91461 0.2992,0.15322 0.79958,0.27854 1.11207,0.27854 0.3125,0 0.7215,0.15305 0.90847,0.34003 0.36902,0.36901 1.90786,-0.26331 3.07475,-1.26349 0.88803,-0.76115 2.93632,-1.89601 3.42202,-1.89601 0.22537,0 0.7461,0.26291 1.15703,0.58446 0.41094,0.32152 1.50135,0.66469 2.42311,0.76274 0.92176,0.0981 1.91945,0.39901 2.21743,0.6687 0.29799,0.26966 0.76928,0.49041 1.04749,0.49041 0.2782,0 0.72656,0.31509 0.99632,0.70021 0.41923,0.59852 0.58027,0.64445 1.10742,0.31523 0.54379,-0.33959 0.674,-0.2742 1.10174,0.55294 0.50509,0.97676 1.20039,1.21503 1.61024,0.5519 h 0.002 c 0.13125,-0.21235 0.25804,-0.64801 0.28164,-0.96842 0.0446,-0.60578 0.65114,-1.13841 1.30586,-1.1467 0.20868,-0.003 1.12524,-0.61004 2.03657,-1.34978 4.22201,-3.42704 5.70242,-3.96585 11.0014,-4.00389 2.57504,-0.0185 3.36755,-0.13824 4.12688,-0.62219 0.51693,-0.32948 1.2394,-0.73212 1.60558,-0.89452 0.81605,-0.36197 1.21818,-2.15122 0.72606,-3.23132 -0.26926,-0.59095 -0.24041,-1.0193 0.12764,-1.90015 0.26135,-0.62552 0.56411,-1.74208 0.67283,-2.48098 0.10871,-0.73893 0.23138,-1.55486 0.27285,-1.81333 0.0415,-0.25847 0.34318,-0.96322 0.67024,-1.56631 0.32706,-0.60307 0.81291,-1.50662 1.07952,-2.00763 0.26662,-0.50099 0.57918,-0.85364 0.69453,-0.78342 0.11535,0.0702 0.57139,-0.21215 1.01389,-0.62786 0.64075,-0.60193 0.7299,-0.84649 0.43615,-1.20045 -0.27476,-0.33104 -0.27928,-0.58758 -0.0176,-1.00665 0.19324,-0.30941 0.45177,-1.09893 0.57464,-1.7539 0.13653,-0.72774 0.63196,-1.59934 1.27435,-2.24173 0.57815,-0.57816 1.05161,-1.34137 1.05161,-1.69602 0,-0.35464 0.66929,-1.76408 1.48777,-3.13211 1.27044,-2.12351 1.6599,-2.53913 2.66288,-2.84065 0.64616,-0.19426 1.17512,-0.52638 1.17512,-0.73794 0,-0.21156 0.49349,-0.61868 1.09658,-0.90485 1.00426,-0.47657 1.09657,-0.63479 1.09657,-1.87741 0,-0.8518 0.18306,-1.50846 0.49248,-1.76526 0.65134,-0.54055 1.56622,-2.37647 1.8588,-3.73053 0.12909,-0.59742 0.39158,-1.33765 0.58343,-1.64486 0.25891,-0.41457 0.25214,-0.71293 -0.0258,-1.15807 -0.36912,-0.59102 -0.16454,-1.97845 0.42943,-2.91455 0.14023,-0.22098 0.26929,-0.47247 0.2868,-0.55862 0.0175,-0.0861 0.11403,-0.36785 0.21498,-0.62632 0.26415,-0.67635 0.96629,-3.80463 1.01957,-4.54287 0.0534,-0.73972 0.34639,-1.56489 0.96584,-2.72025 0.44034,-0.82129 0.36822,-3.78072 -0.12093,-4.95525 -0.10764,-0.25847 -0.20602,-1.87979 -0.21859,-3.60288 -0.0212,-2.89978 -0.0688,-3.13315 -0.63975,-3.13315 -0.54128,0 -0.6076,0.1917 -0.54209,1.56632 l 0.0744,1.56683 -0.61599,-0.78342 c -0.68647,-0.87288 -0.79559,-1.45874 -0.3023,-1.62315 0.22599,-0.0754 0.21608,-0.82937 -0.0326,-2.4319 -0.2773,-1.78726 -0.27347,-2.61429 0.0181,-3.58738 0.2729,-0.91088 0.28234,-1.29668 0.0331,-1.37976 -0.55278,-0.18425 -0.40723,-1.13474 0.49196,-3.20807 0.68339,-1.57578 0.77054,-2.04199 0.47025,-2.52284 -0.20258,-0.32438 -0.36845,-0.80322 -0.36845,-1.06402 0,-0.68673 -0.86003,-0.58212 -1.25315,0.15245 -0.22736,0.42481 -0.23073,0.62683 -0.0109,0.62683 0.56068,0 0.35348,0.8034 -0.38654,1.49862 -0.60986,0.57292 -0.81738,0.6139 -1.4578,0.28938 -0.74146,-0.37568 -1.08181,-0.82751 -1.39681,-1.85311 -0.0904,-0.29419 -0.71792,-0.88427 -1.39475,-1.31155 -0.67682,-0.42725 -1.37601,-1.17358 -1.55339,-1.6583 -0.53735,-1.46841 -1.89965,-2.68363 -2.76469,-2.46651 -0.52044,0.1306 -0.74724,0.0546 -0.74724,-0.25012 0,-0.24064 -0.21127,-0.61333 -0.46974,-0.82785 -0.25846,-0.2145 -0.47026,-0.65822 -0.47026,-0.98599 0,-0.66236 -1.28032,-1.29669 -2.03346,-1.00769 -0.32919,0.12634 -0.47284,-0.0194 -0.47284,-0.47904 0,-0.36306 0.15858,-0.62495 0.35243,-0.58188 0.19385,0.0431 0.41712,-0.0978 0.49609,-0.31316 0.0824,-0.22479 -0.10583,-0.3917 -0.44183,-0.3917 -0.50717,0 -0.58364,-0.24841 -0.57412,-1.86139 0.01,-1.70045 -0.0814,-1.95713 -1.05679,-2.96416 -1.15923,-1.19681 -1.75761,-1.18989 -1.45469,0.017 0.18702,0.74515 0.17404,0.75096 -0.57929,0.25735 -0.42393,-0.27776 -0.99528,-0.84726 -1.26969,-1.26607 -0.27441,-0.41878 -0.79373,-0.76171 -1.15394,-0.76171 -0.54948,0 -0.63301,0.15143 -0.51728,0.93999 0.15373,1.04736 0.13145,1.06764 -0.68833,0.62891 -0.65166,-0.34878 -1.05645,-1.77743 -0.99322,-3.50677 0.0315,-0.86021 -0.10138,-1.20044 -0.52141,-1.33377 -0.35065,-0.11128 -0.67508,-0.67887 -0.85835,-1.5012 -0.22069,-0.99022 -0.52605,-1.44213 -1.21595,-1.79937 -0.72568,-0.37576 -2.36833,-1.78137 -2.36833,-2.02675 0,-0.0268 0.48398,-0.0628 1.07539,-0.0796 1.54654,-0.0438 1.77516,-0.27616 1.2547,-1.27382 -0.24567,-0.47094 -0.44749,-1.02418 -0.44855,-1.22939 -0.003,-0.66873 -0.71386,-0.83241 -1.13171,-0.26096 -0.38349,0.52445 -0.46935,0.50535 -1.44022,-0.31213 -0.86972,-0.73231 -1.04884,-0.78661 -1.13533,-0.34571 -0.0876,0.44659 -0.24414,0.40487 -1.06247,-0.28371 -0.52765,-0.44399 -1.12601,-0.7432 -1.32964,-0.66507 -0.20362,0.0781 -0.53491,-0.12179 -0.73639,-0.44442 -0.20147,-0.32261 -0.55888,-0.51304 -0.79426,-0.42271 -0.26552,0.10189 -0.57653,-0.19456 -0.81959,-0.78135 -0.5372,-1.29691 -1.09744,-1.71811 -1.7787,-1.33687 -0.42878,0.23998 -0.73552,0.10439 -1.41955,-0.62787 -0.70809,-0.758 -1.0408,-0.8973 -1.76165,-0.73897 -0.63939,0.14044 -1.11937,0.0128 -1.71308,-0.45424 -0.74465,-0.58576 -0.80801,-0.79529 -0.64699,-2.15491 0.20711,-1.7487 -0.25215,-2.85977 -1.18235,-2.85977 -0.45479,0 -0.59371,-0.15613 -0.48628,-0.54777 0.52544,-1.9154 0.50093,-2.91967 -0.10955,-4.46846 -0.35441,-0.89916 -0.5617,-1.89582 -0.46044,-2.21485 0.13834,-0.43588 -0.0149,-0.63011 -0.61753,-0.78135 -0.44108,-0.1107 -1.15893,-0.62516 -1.59474,-1.14308 -0.64036,-0.76102 -0.76422,-1.18291 -0.6475,-2.19883 0.0794,-0.69141 0.0337,-1.48571 -0.10129,-1.76527 -0.71992,-1.49085 -1.16726,-3.46814 -0.85524,-3.78013 0.23223,-0.23223 0.22095,-0.44102 -0.0377,-0.6997 -0.26712,-0.26712 -0.27449,-0.48155 -0.0274,-0.77928 0.48999,-0.59042 0.13517,-1.25066 -0.98288,-1.82883 -0.53496,-0.27665 -1.2474,-0.77716 -1.58285,-1.11259 -0.33546,-0.33547 -0.75063,-0.60979 -0.92294,-0.60979 -0.17231,0 -0.31368,-0.19626 -0.31368,-0.43563 0,-0.23937 -0.27171,-0.76781 -0.6041,-1.1746 -0.47869,-0.58582 -0.68579,-0.65983 -0.99528,-0.35554 -0.30855,0.30335 -0.48856,0.30335 -0.85628,0 -0.36802,-0.30358 -0.49329,-0.30297 -0.59635,0.003 -0.0717,0.2131 -0.37897,0.69508 -0.68316,1.07074 -0.71243,0.87979 -1.46812,0.59488 -1.74305,-0.65681 -0.11647,-0.5303 -0.42282,-1.38708 -0.68058,-1.90376 -0.29676,-0.59489 -0.39206,-1.28771 -0.25993,-1.88929 0.12616,-0.57438 0.0608,-1.12756 -0.16485,-1.3994 -0.21145,-0.25476 -0.32432,-1.06392 -0.26045,-1.86707 0.0815,-1.02428 -0.002,-1.41748 -0.30179,-1.41748 -0.27275,0 -0.34703,-0.21504 -0.216,-0.62787 0.13249,-0.41746 0.0347,-0.69164 -0.29198,-0.817 -0.27034,-0.10375 -0.49144,-0.38364 -0.49144,-0.62219 0,-0.23857 -0.27181,-0.60361 -0.60358,-0.8108 -0.54221,-0.33861 -0.55957,-0.46039 -0.1726,-1.20871 0.50665,-0.97975 0.13427,-1.55236 -1.00976,-1.55236 -0.65052,0 -0.72086,-0.14481 -0.72243,-1.48828 -0.002,-1.91852 -0.50572,-3.71255 -1.18494,-4.22042 -0.29485,-0.22048 -0.5364,-0.60998 -0.5364,-0.8661 0,-0.25609 -0.27167,-0.51836 -0.6041,-0.58239 -0.33243,-0.064 -0.80088,-0.31255 -1.04077,-0.55242 -0.30447,-0.30448 -0.58286,-0.44071 -0.84335,-0.40721 z"
         id="path169" /><path
         style="fill:#ffffff;fill-opacity:1;stroke-width:0.499999"
         d="m -134.10669,419.37462 c -0.25357,-0.0633 -0.48163,0.0731 -0.48163,0.4594 0,0.41749 -0.0978,0.41272 -0.78445,-0.0372 -0.63244,-0.41437 -0.87573,-0.43882 -1.25315,-0.12558 -0.66026,0.54795 -0.58167,1.28087 0.15813,1.47433 0.34462,0.0901 0.62632,0.35283 0.62632,0.58394 0,0.94682 2.62301,2.02344 6.34431,2.60346 0.12924,0.0201 0.23513,-0.11016 0.23513,-0.28938 0,-0.50668 -2.54597,-2.80523 -3.32331,-3.00034 -0.39183,-0.0983 -0.77829,-0.50463 -0.88522,-0.93069 -0.10345,-0.41218 -0.38257,-0.67467 -0.63613,-0.73794 z"
         id="path167" /><path
         style="fill:#ffffff;fill-opacity:1;stroke-width:0.499999"
         d="m -144.12314,411.53479 c -0.23691,0.0306 -0.49814,0.18452 -0.59531,0.4377 -0.10332,0.26929 0.32086,0.88015 1.06299,1.53065 0.67921,0.59539 1.23506,1.14771 1.23506,1.22732 0,0.30154 -2.03596,0.18703 -2.42569,-0.13643 -0.22438,-0.18621 -0.32491,-0.60057 -0.22324,-0.92087 0.24747,-0.7797 -0.30283,-0.7359 -1.26504,0.10077 -0.8936,0.77697 -0.97457,1.38662 -0.34623,2.59777 0.60891,1.17367 1.3644,1.60144 3.00705,1.70222 0.77539,0.0476 1.46867,0.14395 1.54047,0.21446 0.26715,0.26241 3.01931,0.10766 3.47214,-0.19534 0.40775,-0.27283 0.39125,-0.37464 -0.12299,-0.76739 -0.32598,-0.24897 -0.74853,-0.51759 -0.93947,-0.59686 -0.22689,-0.0942 -0.18748,-0.25485 0.11368,-0.46406 0.55979,-0.3888 0.32732,-0.67005 -0.66145,-0.80047 -1.52295,-0.20087 -1.82614,-0.4793 -1.48829,-1.36787 0.26414,-0.69472 0.20139,-0.90627 -0.40927,-1.37614 -0.39691,-0.30539 -0.89773,-0.55841 -1.11311,-0.56224 -0.21539,-0.004 -0.39171,-0.1481 -0.39171,-0.3204 0,-0.24064 -0.21267,-0.3334 -0.44959,-0.30282 z"
         id="path151" /><path
         style="fill:#ffffff;fill-opacity:1;stroke-width:0.499999"
         d="m -140.07067,408.39131 c -0.88765,0 -1.09657,0.1196 -1.09657,0.62684 0,0.34462 0.1256,0.62631 0.27905,0.62631 0.15345,0 0.35229,0.45853 0.44183,1.01855 0.0896,0.56001 0.23509,1.30024 0.3235,1.64486 0.0884,0.34462 0.17181,0.7218 0.185,0.83819 0.0336,0.29699 4.77568,4.331 5.09116,4.331 0.14223,0 0.25838,-0.36316 0.25838,-0.80718 0,-0.47932 -0.38193,-1.18962 -0.93999,-1.7477 -0.51699,-0.517 -1.02755,-1.28934 -1.13482,-1.71669 -0.10724,-0.42736 -0.51003,-0.98331 -0.89503,-1.23559 -0.48338,-0.3167 -0.65743,-0.68088 -0.56276,-1.17615 0.0794,-0.41524 -0.0714,-0.89019 -0.35812,-1.1281 -0.27231,-0.22601 -0.49506,-0.60497 -0.49506,-0.84232 0,-0.28438 -0.37406,-0.43202 -1.09657,-0.43202 z"
         id="path148" /><path
         style="fill:#ffffff;fill-opacity:1;stroke-width:0.499999"
         d="m -164.79784,403.79676 c -0.41622,0.1597 -0.50011,0.65249 -0.46251,2.7218 0.049,2.69827 0.46241,3.17417 1.09503,1.26038 0.26593,-0.80446 0.38799,-0.91697 0.54673,-0.50332 0.14093,0.36726 0.40219,0.46992 0.84078,0.33073 0.34979,-0.11102 0.60993,-0.0854 0.57826,0.0568 -0.12801,0.57452 0.45845,1.35496 1.01802,1.35496 0.51157,0 0.54162,0.0862 0.21498,0.60926 -0.31279,0.50086 -0.28185,0.71737 0.17311,1.22008 0.53373,0.58978 2.28792,1.0709 2.8019,0.76843 0.38607,-0.2272 -0.41572,-1.03146 -1.02836,-1.03146 -0.40446,0 -0.50814,-0.19133 -0.40256,-0.74363 0.13988,-0.73165 0.1638,-0.72389 1.44487,0.46613 0.71637,0.66542 1.54054,1.21122 1.83193,1.21336 0.29136,0.003 0.62538,0.1584 0.74208,0.34726 0.14593,0.23614 0.35693,0.19858 0.67592,-0.1204 0.40954,-0.40952 0.40124,-0.55955 -0.0729,-1.28313 -0.29528,-0.45066 -0.80279,-0.81959 -1.12758,-0.81959 -0.32482,0 -0.59041,-0.17579 -0.59066,-0.39119 -5.3e-4,-0.52157 -2.26543,-3.05459 -2.7311,-3.05459 -0.20145,0 -0.58546,0.31312 -0.8537,0.69608 l -0.48782,0.69608 v -0.81442 c 0,-1.14921 -0.70228,-1.67164 -1.54203,-1.14721 -0.35812,0.22365 -0.65112,0.61254 -0.65112,0.86403 0,0.34631 -0.0876,0.36925 -0.36225,0.0946 -0.25877,-0.25879 -0.26708,-0.47901 -0.0284,-0.76791 0.47025,-0.56925 -0.91397,-2.29507 -1.62264,-2.02313 z"
         id="path145" /><path
         style="fill:#ffffff;fill-opacity:1;stroke-width:0.499999"
         d="m -154.82636,402.76271 c -0.23645,0.0275 -0.43925,0.16906 -0.43925,0.40463 0,0.70001 3.01794,3.18045 6.03064,4.9568 0.89968,0.53044 1.81557,1.22133 2.03554,1.53531 0.21993,0.31401 0.78583,0.62965 1.2578,0.70125 0.47197,0.0716 0.98144,0.15091 1.13223,0.17673 0.15079,0.0259 0.18511,-0.41098 0.076,-0.971 -0.22467,-1.15273 -1.57925,-2.4209 -3.483,-3.2613 -0.68924,-0.30427 -1.85997,-1.00734 -2.6019,-1.56218 -0.74194,-0.5548 -1.76275,-1.09926 -2.26808,-1.21026 -0.50534,-0.11099 -0.99881,-0.3324 -1.09709,-0.49144 -0.13583,-0.21978 -0.40641,-0.30607 -0.64286,-0.27854 z"
         id="path143" /><path
         style="fill:#ffffff;fill-opacity:1;stroke-width:0.499999"
         d="m -165.46189,398.17178 c -0.84321,0.32358 -0.46575,1.08014 1.45315,2.91352 1.82252,1.74132 2.37798,2.05726 4.51393,2.56883 1.93432,0.46329 2.71968,0.40599 2.60398,-0.19017 -0.0593,-0.3053 -0.34713,-0.55663 -0.63924,-0.55862 -0.29211,-0.003 -0.70543,-0.17832 -0.91881,-0.39171 -0.21338,-0.21338 -0.60676,-0.39243 -0.87385,-0.39791 -0.60869,-0.0124 -1.40765,-0.62247 -1.64434,-1.25522 -0.25756,-0.68857 -3.95052,-2.89758 -4.49482,-2.68872 z"
         id="path140" /><path
         style="fill:#ffffff;stroke-width:0.499999"
         d="m -175.7889,388.76408 c -0.14807,-0.18354 -0.36721,-0.12917 -0.71676,0.0899 -0.75196,0.47128 -0.80354,1.34377 -0.16433,2.78588 0.56325,1.27071 0.62833,1.49373 0.69143,2.37453 0.0437,0.61055 2.03894,2.78536 2.5554,2.78536 0.23344,0 0.2982,0.2783 0.17725,0.76016 -0.154,0.6136 0.0344,0.9463 0.9772,1.72341 0.64246,0.52956 1.42649,0.96273 1.74202,0.96273 0.32016,0 0.48375,0.14495 0.37052,0.32815 -0.33193,0.53707 0.10089,1.23816 0.76429,1.23816 0.33986,0 0.71052,-0.14962 0.82372,-0.33279 0.11321,-0.18317 -0.0411,-0.60622 -0.34313,-0.94 -0.52708,-0.58242 -0.52188,-0.60719 0.12609,-0.60719 0.46628,0 0.6749,0.19411 0.6749,0.62683 0,0.72705 0.39544,0.81264 0.90692,0.19637 0.36454,-0.43926 0.16717,-1.44952 -0.28319,-1.44952 -0.13702,0 -0.38487,-0.38941 -0.55087,-0.86558 -0.37879,-1.08662 -1.87883,-2.89388 -2.40192,-2.89388 -0.21645,0 -1.06004,-0.90817 -1.87482,-2.01797 -1.04856,-1.42822 -1.71492,-2.04599 -2.27996,-2.1146 -0.67922,-0.0824 -0.81418,-0.27817 -0.90538,-1.31258 -0.0646,-0.7324 -0.14132,-1.15384 -0.28938,-1.33739 z"
         id="path134" /><path
         style="fill:#ffffff;stroke-width:0.499999"
         d="m -202.60174,372.8834 c -0.29847,-0.0247 -0.55016,0.0764 -0.95704,0.2868 -1.0842,0.56066 -1.095,0.71424 -0.11318,1.64538 0.5632,0.53414 1.06117,0.70477 1.85777,0.63614 0.5985,-0.0515 1.1895,0.008 1.31362,0.13177 0.12411,0.12412 0.48697,0.22583 0.80615,0.22583 0.46258,0 0.54013,0.15859 0.38344,0.7829 -0.17132,0.6826 -0.0935,0.78341 0.60513,0.78341 0.44089,0 0.91434,-0.20062 1.05213,-0.44596 0.20373,-0.36275 0.50142,-0.27515 1.59319,0.46973 0.73842,0.50382 1.47865,0.91623 1.64486,0.91623 0.1662,0 0.3023,0.12687 0.3023,0.28215 0,0.3515 2.07448,1.59732 2.65979,1.59732 0.23708,0 0.94338,0.62508 1.56941,1.38906 1.11943,1.36612 1.12817,1.39931 0.54105,1.98644 -0.57746,0.57746 -0.61999,0.57806 -1.29811,0.0289 -0.63002,-0.51017 -0.77258,-0.52067 -1.4087,-0.10387 -0.44085,0.28885 -1.05866,0.39391 -1.63814,0.27802 -1.42332,-0.28466 -1.81406,0.40695 -1.04283,1.84588 0.3397,0.63381 0.61753,1.47419 0.61753,1.86707 0,0.64455 -0.12278,0.70223 -1.2547,0.59428 -1.69464,-0.1616 -2.39182,0.11148 -1.87534,0.73381 0.21282,0.25641 0.25413,0.46612 0.092,0.46612 -0.16215,0 -0.51063,0.45592 -0.77463,1.01337 -0.43862,0.92615 -0.61231,1.01806 -2.01487,1.06299 -0.84419,0.027 -1.85196,0.15109 -2.23965,0.27595 -0.64146,0.20653 -0.70487,0.12645 -0.70487,-0.8878 0,-0.61301 0.14747,-1.20558 0.32814,-1.31723 0.22516,-0.13915 0.21516,-0.34025 -0.0326,-0.63872 -0.58769,-0.70811 -1.46557,0.01 -1.69861,1.38906 l -0.20567,1.21905 -1.86293,0.21084 c -1.02446,0.11588 -2.01371,0.11729 -2.19832,0.003 -0.46708,-0.28866 -4.77012,-0.30563 -5.2312,-0.0207 -1.06423,0.65772 0.1349,2.70267 1.58491,2.70267 0.56226,0 0.9113,0.21969 2.16731,1.36581 0.53149,0.48501 0.77093,0.52265 1.42575,0.22428 0.67219,-0.30626 0.92779,-0.24961 1.75339,0.38705 0.84739,0.6535 1.23825,0.73243 3.17293,0.64131 1.26471,-0.0596 2.94186,-0.38855 3.92947,-0.7705 3.09758,-1.19792 3.78186,-1.56737 4.88653,-2.64015 0.59955,-0.58224 1.27182,-0.98907 1.49396,-0.90382 0.63787,0.24477 2.00596,-0.40266 2.39779,-1.13481 0.28452,-0.53163 0.25662,-0.77895 -0.13746,-1.2144 -0.6466,-0.71448 -0.62529,-0.96738 0.0827,-0.96738 1.00278,0 1.71623,-1.1229 1.69292,-2.66444 -0.0144,-0.95443 0.17162,-1.63618 0.5762,-2.11356 l 0.59737,-0.70487 -0.0594,1.11879 c -0.0561,1.06027 1.04441,3.42408 1.59421,3.42408 0.42254,0 1.51891,-1.73816 1.7446,-2.76572 0.18838,-0.8577 0.0591,-1.2355 -0.82217,-2.40554 -0.57513,-0.76353 -1.25699,-1.39304 -1.51567,-1.39836 -0.25868,-0.005 -1.31609,-0.807 -2.34973,-1.7818 -1.03364,-0.97481 -2.93687,-2.33298 -4.2292,-3.01791 -1.29232,-0.68492 -2.76328,-1.53662 -3.26905,-1.8929 -0.50577,-0.35632 -1.38686,-0.64803 -1.95802,-0.64803 -0.57116,0 -1.03869,-0.0977 -1.03869,-0.21755 0,-0.11986 -0.5852,-0.50773 -1.30018,-0.86145 -0.59226,-0.29303 -0.93711,-0.44351 -1.23559,-0.46819 z"
         id="path117" /><path
         style="fill:#ffffff;fill-opacity:1;stroke-width:0.499999"
         d="m -321.19812,369.05831 c -1.39583,0.0191 -3.55792,0.654 -3.55792,1.24489 0,0.21894 0.59936,0.66213 1.3317,0.98495 0.73232,0.32276 1.44402,0.76722 1.58182,0.98754 0.33575,0.53681 1.15962,0.51155 1.15962,-0.0357 0,-0.24003 0.21127,-0.51783 0.46974,-0.61702 0.58832,-0.22577 0.62135,-1.87721 0.047,-2.35386 -0.18664,-0.1549 -0.5667,-0.2172 -1.03198,-0.21084 z"
         id="path110" /><path
         style="fill:#ffffff;stroke-width:0.499999"
         d="m -307.57828,360.77148 c -1.19377,0 -2.47531,0.53808 -3.41529,1.43454 -0.49281,0.47 -1.28404,0.81656 -2.03657,0.89141 -1.78739,0.17783 -2.94589,0.7731 -2.71353,1.39423 0.17142,0.45824 0.12959,0.46211 -0.41651,0.0393 -0.33382,-0.25847 -0.71214,-0.63292 -0.84078,-0.83199 -0.26778,-0.41429 -2.66835,-0.20588 -3.29075,0.28577 -0.66149,0.5225 -0.44655,1.17254 0.38757,1.17254 0.59418,0 0.8877,0.26022 1.23714,1.09657 0.25463,0.60942 0.68238,1.09657 0.96273,1.09657 0.27741,0 0.42315,0.13104 0.32401,0.29146 -0.29133,0.47141 0.3931,0.71306 2.28513,0.80667 2.47557,0.12247 3.49746,0.57446 3.49746,1.54667 0,0.47932 0.43801,1.21835 1.13482,1.91513 0.98401,0.98401 1.27167,1.10874 2.16834,0.94051 0.56867,-0.10668 1.10546,-0.0781 1.19269,0.063 0.1597,0.25839 1.11418,0.22692 3.57446,-0.11731 1.53419,-0.21463 3.01001,0.0666 2.72955,0.52039 -0.10509,0.17007 -0.34772,0.21278 -0.53899,0.0946 -0.19126,-0.11821 -0.94723,-0.20673 -1.68,-0.19688 -1.12709,0.0151 -1.48557,0.1917 -2.32544,1.14825 -0.98739,1.12461 -0.99705,1.12783 -1.82262,0.58239 -0.99992,-0.66061 -2.74424,-0.57818 -3.69745,0.17467 -0.99446,0.78544 -0.49011,1.84278 1.01389,2.12493 1.20946,0.22691 2.27575,1.0604 2.49959,1.9544 0.45109,1.8015 0.99156,3.44227 1.33893,4.06436 0.33428,0.59861 0.6051,0.69846 1.62109,0.59686 0.77023,-0.077 1.27427,0.0186 1.36685,0.25993 0.19319,0.50348 2.01159,1.1324 2.23397,0.77256 0.0944,-0.15277 -0.32893,-0.61794 -0.94051,-1.03353 -0.9647,-0.6555 -1.04866,-0.80822 -0.63459,-1.15186 0.26249,-0.21783 0.47749,-0.63742 0.47749,-0.93225 0,-0.29479 0.0774,-0.61332 0.17208,-0.70796 0.20831,-0.20831 1.70189,0.4498 1.70533,0.75137 0.006,0.51594 2.02286,1.58235 3.20858,1.69654 0.71446,0.0688 1.37784,0.24794 1.47433,0.39791 0.0965,0.14996 0.88045,0.69942 1.74202,1.2206 1.30376,0.78866 1.92046,0.95355 3.67936,0.98443 1.50608,0.0265 2.40649,0.21583 3.13314,0.65888 0.56078,0.34192 1.178,0.62206 1.37149,0.6227 0.19349,0 1.03911,0.31256 1.87947,0.69298 0.8404,0.38042 1.59851,0.70542 1.68466,0.72243 2.03543,0.40154 4.29814,1.40318 4.73562,2.09652 0.10594,0.16793 0.52743,0.47232 0.9369,0.67644 0.40944,0.20413 0.79793,0.64984 0.86299,0.99012 0.0651,0.34028 0.42024,0.92163 0.78962,1.29191 0.36941,0.37029 0.86267,1.2159 1.09606,1.87948 0.23339,0.6636 0.76196,1.56842 1.1746,2.01073 0.67514,0.72371 0.71387,0.90901 0.38603,1.84949 -0.29843,0.85609 -0.28198,1.10752 0.091,1.38907 0.58594,0.44233 0.58586,1.75338 0,1.75338 -1.43682,0 -2.89328,0.7916 -3.68867,2.00453 -0.46344,0.70675 -1.08956,1.64933 -1.39113,2.09444 -0.30157,0.44511 -0.59658,1.22029 -0.65577,1.7229 l -0.10749,0.91363 h 4.03852 c 3.71405,0 4.06632,-0.0501 4.38577,-0.62631 0.50771,-0.91575 0.83852,-1.07311 1.62626,-0.7736 0.41056,0.1561 1.1772,0.13703 1.83813,-0.0455 0.62368,-0.17219 1.40175,-0.22789 1.7291,-0.12402 0.32734,0.1039 1.90877,1.46518 3.51399,3.02514 4.11948,4.00333 3.86949,3.81361 4.54908,3.44992 0.69928,-0.37425 4.3401,-0.14587 5.32939,0.33434 0.5126,0.24882 0.81553,0.23682 1.15755,-0.047 0.37619,-0.31221 0.56777,-0.26268 1.02009,0.26562 0.77912,0.90992 1.24064,0.81903 2.47221,-0.4868 0.91973,-0.9752 1.14349,-1.07847 1.56941,-0.72502 0.32038,0.26591 0.57181,0.30045 0.70797,0.0966 0.11609,-0.17381 0.45758,-0.40706 0.75912,-0.51832 0.35709,-0.13176 0.54829,-0.53381 0.54829,-1.15238 0,-0.75115 0.13573,-0.9493 0.64802,-0.9493 0.51528,0 0.60476,-0.13476 0.43873,-0.65784 -0.17761,-0.55959 -0.11052,-0.62616 0.44907,-0.44855 0.75968,0.24109 0.86621,-0.20661 0.20619,-0.86661 -0.56293,-0.56293 -0.29775,-1.70585 0.45114,-1.94355 0.30741,-0.0976 0.62952,-0.44657 0.71572,-0.77618 0.15457,-0.59108 0.32822,-0.6428 2.33887,-0.69608 0.63506,-0.0169 1.01803,-0.18711 1.01803,-0.45217 0,-0.23374 0.28221,-0.42478 0.62683,-0.42478 0.34462,0 0.62632,0.14435 0.62632,0.32091 0,0.35893 1.13489,0.85285 2.32596,1.01234 0.43088,0.0577 0.88268,0.20417 1.00407,0.32556 0.12139,0.12139 0.68703,0.22066 1.25677,0.22066 1.33063,0 3.68666,1.31164 3.81062,2.12132 0.0523,0.34131 0.43985,0.94443 0.86145,1.34048 0.42159,0.39608 0.76687,1.02639 0.76687,1.40043 0,0.70729 0.70082,1.4813 1.64435,1.81591 0.30154,0.10695 0.54829,0.39536 0.54829,0.64079 0,0.24543 0.21179,0.52764 0.47025,0.62684 0.25846,0.0992 0.46974,0.46647 0.46974,0.81648 0,0.4871 0.20462,0.63666 0.87126,0.63666 0.69591,0 1.12096,0.34612 2.1146,1.72134 0.68404,0.9467 1.38471,1.67432 1.55702,1.61696 0.17231,-0.0574 0.77117,0.0864 1.33118,0.31936 0.67711,0.28172 1.01854,0.3099 1.01854,0.0847 0,-0.21029 0.26709,-0.25156 0.70487,-0.10903 0.3877,0.12623 1.24538,0.25202 1.90583,0.27957 0.66044,0.0276 1.3156,0.23651 1.45624,0.46405 0.16584,0.26834 0.45952,0.325 0.83561,0.16175 0.70301,-0.30517 1.37248,-0.2146 1.95492,0.26458 0.23933,0.1969 0.96669,0.33058 1.61643,0.29714 0.77093,-0.0397 1.23996,0.0928 1.35031,0.38034 0.093,0.24236 0.70136,0.71351 1.35134,1.04696 1.02253,0.52459 1.35181,0.55695 2.44378,0.2403 0.87701,-0.25432 1.62683,-0.27305 2.45876,-0.0605 h 5.2e-4 c 0.94687,0.24196 1.25502,0.21202 1.47484,-0.14366 0.37954,-0.6141 -0.0836,-1.00543 -1.2392,-1.04697 -1.20642,-0.0434 -1.46082,-0.63292 -0.46819,-1.0852 1.15253,-0.52512 0.91043,-0.8839 -0.61133,-0.90692 -0.7532,-0.0114 -1.80314,-0.2455 -2.33371,-0.51987 -0.53057,-0.27437 -1.23681,-0.49868 -1.56889,-0.49868 -0.33208,0 -0.7664,-0.19594 -0.96532,-0.43563 -0.29074,-0.35031 -0.1698,-0.5031 0.6165,-0.77721 1.47118,-0.51284 0.96593,-1.09343 -1.29553,-1.4888 -3.19605,-0.55875 -3.48144,-0.75914 -2.64893,-1.85983 0.25298,-0.33446 0.46477,-0.77924 0.47026,-0.98857 0.0144,-0.54933 -1.20094,-1.11719 -1.81591,-0.84853 -0.28808,0.12583 -0.66485,0.2505 -0.83716,0.27698 -0.17231,0.0265 -0.56185,0.16158 -0.86558,0.30024 -0.72672,0.33177 -1.48415,-0.31062 -1.48415,-1.25883 0,-0.43601 -0.31204,-0.94253 -0.76326,-1.23817 -0.41987,-0.27511 -0.85702,-0.94766 -0.971,-1.495 -0.3099,-1.48817 -0.95862,-2.32725 -1.97146,-2.54972 -0.54486,-0.11967 -1.05008,-0.51317 -1.26504,-0.98495 -0.19684,-0.43201 -0.49815,-0.69877 -0.66972,-0.59273 -0.17158,0.10605 -0.31213,0.0379 -0.31213,-0.15141 0,-0.18931 -0.56391,-0.89693 -1.25315,-1.57251 -0.68924,-0.67562 -1.25316,-1.51563 -1.25316,-1.86707 0,-0.35912 -0.20562,-0.63924 -0.46973,-0.63924 -0.25847,0 -0.47026,-0.21127 -0.47026,-0.46974 0,-0.3742 0.49495,-0.47769 2.42828,-0.50643 1.3354,-0.0198 2.69426,-0.007 3.01997,0.0274 0.46282,0.0494 0.53881,-0.0624 0.34726,-0.51211 -0.1348,-0.31644 -0.28142,-0.95878 -0.32556,-1.42731 -0.15444,-1.6393 -2.88039,-4.03009 -4.07314,-3.57239 -0.39411,0.15124 -2.40081,-0.67464 -4.52944,-1.86397 -0.43077,-0.24069 -1.43343,-0.52614 -2.22828,-0.63407 l -1.44539,-0.19637 0.0961,-1.66863 c 0.0933,-1.61679 0.0493,-1.7177 -1.41646,-3.25458 -0.83206,-0.87241 -1.78402,-1.58647 -2.11563,-1.58647 -0.33161,0 -0.87682,-0.20692 -1.21129,-0.45992 -0.57136,-0.43214 -0.57338,-0.46037 -0.0367,-0.46974 1.02192,-0.0177 0.4733,-1.10184 -0.57826,-1.14256 -1.83499,-0.0711 -2.02934,-0.1269 -2.02934,-0.57981 0,-0.66458 -1.0132,-1.10589 -2.56418,-1.11725 -0.97459,-0.007 -1.59281,-0.22182 -2.21382,-0.76842 -0.47385,-0.41707 -0.86145,-0.87761 -0.86145,-1.02371 0,-0.14613 -0.16713,-0.43276 -0.37155,-0.63717 -0.2867,-0.28671 -0.50169,-0.25404 -0.93999,0.14262 -0.53157,0.48107 -0.56793,0.47171 -0.56793,-0.14262 0,-0.92361 -0.42594,-1.07927 -1.02836,-0.37569 -0.4771,0.55721 -0.61628,0.5684 -1.98127,0.15761 -0.80752,-0.24304 -1.61675,-0.59046 -1.79834,-0.77204 -0.1816,-0.18161 -0.58426,-0.33022 -0.89504,-0.33022 -0.31078,0 -1.09127,-0.2817 -1.73426,-0.62632 -0.64298,-0.34462 -1.3159,-0.62683 -1.49552,-0.62683 -0.17961,0 -1.14203,-0.42305 -2.13837,-0.93999 -1.11554,-0.57878 -2.28566,-0.93948 -3.04581,-0.93948 -0.67894,0 -1.23455,-0.12723 -1.23455,-0.28267 0,-0.44979 -1.80652,-0.95978 -4.18475,-1.18081 -1.58771,-0.14756 -2.7594,-0.49313 -4.23747,-1.25005 -1.12366,-0.57544 -2.27493,-1.04645 -2.55798,-1.04645 -0.28306,0 -0.7697,-0.2817 -1.08159,-0.62632 -0.31187,-0.34462 -0.86219,-0.63354 -1.22318,-0.64182 -0.36097,-0.008 -1.14978,-0.28282 -1.75287,-0.6103 -0.60306,-0.32747 -1.40782,-0.76354 -1.788,-0.96893 -0.5918,-0.31975 -1.01988,-0.21137 -2.97605,0.75292 -2.18971,1.0794 -2.36324,1.11424 -4.1646,0.83458 -1.03386,-0.16052 -3.21909,-0.45158 -4.85604,-0.64647 -1.63695,-0.1949 -3.0235,-0.47983 -3.08094,-0.63356 -0.0574,-0.15369 -0.5979,-0.27957 -1.20097,-0.27957 -1.29158,0 -1.31205,0.72686 -0.0248,0.88005 0.44794,0.0533 0.98304,0.30006 1.18907,0.54829 0.20601,0.24823 0.68158,0.45165 1.05679,0.45165 0.37523,0 0.81611,0.12479 0.97978,0.27751 0.1637,0.15269 1.02773,0.48692 1.9203,0.74259 1.24465,0.35652 1.9893,0.39233 3.19464,0.15399 0.86434,-0.17089 1.96687,-0.20671 2.44998,-0.0796 l 0.8785,0.23099 -1.37718,0.59687 c -0.75748,0.32824 -1.64563,0.51178 -1.97352,0.40772 -0.85807,-0.27236 -2.04315,0.62571 -2.28617,1.7322 -0.11483,0.52276 -0.36275,0.95033 -0.55087,0.95033 -0.58751,0 -1.48669,1.00676 -1.51257,1.69343 -0.0135,0.36097 -0.096,0.47998 -0.18293,0.26459 -0.25056,-0.62095 -1.04594,-0.4548 -1.04594,0.21859 0,0.33573 -0.35063,0.98904 -0.77928,1.45159 -0.66185,0.71414 -0.95334,0.81264 -1.93269,0.65371 -1.3022,-0.21133 -1.66222,-0.61128 -1.66915,-1.85415 -0.004,-0.65112 -0.15797,-0.86145 -0.63149,-0.86145 -0.45069,0 -0.62632,-0.20894 -0.62632,-0.74414 0,-1.6424 -0.38419,-2.70216 -0.97927,-2.70216 -0.42923,0 -0.59018,0.23192 -0.59841,0.86144 l -0.0114,0.86197 -0.78548,-0.94 c -0.78438,-0.9389 -0.80539,-1.1988 -0.2713,-3.36775 0.17248,-0.70038 0.10642,-0.86196 -0.35398,-0.86196 -0.50673,0 -0.51433,-0.0408 -0.0739,-0.39119 0.8605,-0.68461 0.9725,-2.02269 0.23151,-2.76366 -0.44416,-0.44418 -0.6001,-0.89065 -0.47956,-1.37098 0.31081,-1.23835 -0.70977,-1.82937 -2.72438,-1.57768 -1.11027,0.13872 -1.78389,0.0948 -1.91978,-0.12505 -0.34999,-0.56626 -4.03018,-2.22984 -4.93252,-2.22984 z"
         id="path93" /><path
         style="fill:#ffffff;fill-opacity:1;stroke-width:0.499999"
         d="m -322.12984,358.90079 c -0.22699,0.0334 -0.43305,0.17501 -0.43305,0.39791 0,0.22402 0.17634,0.58352 0.39171,0.79892 0.21539,0.21537 0.39472,0.56062 0.39842,0.76739 0.004,0.22619 0.36309,0.33765 0.90176,0.27957 0.73329,-0.0791 0.85858,-2.1e-4 0.69091,0.43667 -0.11761,0.30654 0.009,0.76989 0.29766,1.08882 0.47868,0.52893 0.55443,0.51933 1.61747,-0.20205 0.61349,-0.41633 1.34256,-0.77387 1.62005,-0.79427 0.2775,-0.0204 0.69115,-0.0118 0.91933,0.0191 0.61396,0.0832 1.25925,-0.55929 1.17564,-1.17047 -0.0402,-0.29403 -0.57517,-0.80921 -1.18908,-1.14515 -0.99978,-0.54708 -1.35713,-0.57692 -3.42201,-0.28681 -1.26799,0.17817 -2.35223,0.20631 -2.40967,0.0625 -0.0841,-0.21053 -0.33215,-0.28556 -0.55914,-0.25218 z"
         id="path92" /></g></g><style
     id="style_css_sheet"
     type="text/css">

/*
 * Below are Cascading Style Sheet (CSS) definitions in use in this file,
 * which allow easily changing how countries are displayed.
 *
 * The styles are applied in the order in which they are defined (and re-defined) here in the preamble.
 */

/*
 * Circles around small countries and territories
 *
 * Change opacity to 1 to display all circles
 */
.circlexx
{
	opacity: 0;
	fill: #c0c0c0;
	stroke: #000000;
	stroke-width: 0.5;
}

/*
 * Smaller circles around subnational territories: Australian external territories, Chinese SARs, Dutch special municipalities, and French DOMs (overseas regions/departments) [but not French COMs (overseas collectivities)]
 *
 * Change opacity to 1 to display all circles
 */
.subxx
{
	opacity: 0;
	fill: #c0c0c0;
	stroke: #000000;
	stroke-width: 0.3;
}


/*
 * Land
 * (all land, as opposed to water, should belong to this class; in order to modify the coastline for land pieces with no borders on them a special class &quot;coastxx&quot; has been added below)
 */
.landxx
{
	fill: #c0c0c0;
	stroke: #ffffff;
	stroke-width: 0.5;
	fill-rule: evenodd;
}

/*
 * Styles for coastlines of islands and continents with no borders on them
 * (all of them should also belong to the class &quot;landxx&quot; - to allow for all land to be modified at once by refining &quot;landxx&quot; style's definition further down)
 */
.coastxx
{
	stroke-width: 0.2;
}


/*
 * Styles for territories without permanent population (the largest of which is Antarctica)
 *
 * Change opacity to 0 to hide all territories
 */
.antxx
{
	opacity: 1;
	fill: #c0c0c0;
}

/*
 * Circles around small countries without permanent population
 *
 * Change opacity to 1 to display all circles
 */
.noxx
{
	opacity: 0;
	fill: #c0c0c0;
	stroke: #000000;
	stroke-width: 0.5;
}


/*
 * Styles for territories with limited or no recognition
 * (all of them - including Taiwan - are overlays (i.e. duplicate layers) over their &quot;host&quot; countries, and so not showing them doesn't leave any gaps on the map)
 *
 * Change opacity to 1 to display all territories
 */
.limitxx
{
	opacity: 0;
	fill: #c0c0c0;
	stroke: #ffffff;
	stroke-width: 0.2;
	fill-rule: evenodd;
}

/*
 * Smaller circles around small territories with limited or no recognition
 *
 * Change opacity to 1 to display all circles
 */
.unxx
{
	opacity: 0;
	fill: #c0c0c0;
	stroke: #000000;
	stroke-width: 0.3;
}


/*
 * Oceans, seas, and large lakes
 */
.oceanxx
{
	opacity: 1;
	fill: #ffffff;
	stroke: #000000;
	stroke-width: 0.5;
}

/*
 * Reserved class names:
 *
 * .eu - for members of European Union
 * .eaeu - for members of Eurasian Economic Union
 */


/*
 * Additional style rules
 *
 * The following are examples of colouring countries.
 * These can be substituted with custom styles to colour the countries on the map.
 *
 * Colour a few countries:
 *
 * .gb, .au, .nc
 * {
 * 	fill: #ff0000;
 * }
 *
 * Colour a few small-country circles (along with the countries):
 *
 * .ms, .ky
 * {
 * 	opacity: 1;
 * 	fill: #ff0000;
 * }
 *
 */


	</style></svg>
