<?xml version="1.0" encoding="UTF-8" standalone="no"?>
<!-- Created with Inkscape (http://www.inkscape.org/) -->

<svg
   width="160mm"
   height="160mm"
   viewBox="0 0 159.99999 160.00001"
   version="1.1"
   id="svg5"
   inkscape:version="1.1.2 (0a00cf5339, 2022-02-04)"
   sodipodi:docname="screenshot.svg"
   inkscape:export-filename="screenshot.png"
   inkscape:export-xdpi="127"
   inkscape:export-ydpi="127"
   xmlns:inkscape="http://www.inkscape.org/namespaces/inkscape"
   xmlns:sodipodi="http://sodipodi.sourceforge.net/DTD/sodipodi-0.dtd"
   xmlns="http://www.w3.org/2000/svg"
   xmlns:svg="http://www.w3.org/2000/svg">
  <sodipodi:namedview
     id="namedview7"
     pagecolor="#ffffff"
     bordercolor="#666666"
     borderopacity="1.0"
     inkscape:pageshadow="2"
     inkscape:pageopacity="0.0"
     inkscape:pagecheckerboard="0"
     inkscape:document-units="mm"
     showgrid="false"
     inkscape:zoom="1.870853"
     inkscape:cx="284.89678"
     inkscape:cy="482.93478"
     inkscape:window-width="2186"
     inkscape:window-height="1440"
     inkscape:window-x="0"
     inkscape:window-y="0"
     inkscape:window-maximized="1"
     inkscape:current-layer="layer1"
     inkscape:showpageshadow="2"
     inkscape:deskcolor="#d1d1d1" />
  <defs
     id="defs2">
    <inkscape:perspective
       sodipodi:type="inkscape:persp3d"
       inkscape:vp_x="61.003862 : 44.612156 : 1"
       inkscape:vp_y="0 : 663.24883 : 0"
       inkscape:vp_z="200.2861 : 44.612156 : 1"
       inkscape:persp3d-origin="130.64504 : 11.781346 : 1"
       id="perspective240" />
    <inkscape:perspective
       sodipodi:type="inkscape:persp3d"
       inkscape:vp_x="103.97237 : 40.653577 : 1"
       inkscape:vp_y="0 : 454.17892 : 0"
       inkscape:vp_z="199.34991 : 40.653577 : 1"
       inkscape:persp3d-origin="151.66113 : 18.171725 : 1"
       id="perspective240-3" />
    <inkscape:perspective
       sodipodi:type="inkscape:persp3d"
       inkscape:vp_x="125.34217 : 44.620416 : 1"
       inkscape:vp_y="0 : 752.10365 : 0"
       inkscape:vp_z="193.09662 : 51.972526 : 1"
       inkscape:persp3d-origin="167.05562 : 11.547226 : 1"
       id="perspective240-3-9" />
  </defs>
  <g
     inkscape:label="Layer 1"
     inkscape:groupmode="layer"
     id="layer1"
     transform="translate(-271.80194,218.23845)">
    <g
       id="g10299"
       transform="translate(-6.1719209,-6.171952)">
      <g
         id="g10278">
        <g
           id="g2061"
           style="fill:#8686bf;fill-opacity:1"
           transform="translate(11.656948,-23.953085)">
          <rect
             style="color:#000000;overflow:visible;fill:#8686bf;fill-opacity:1;fill-rule:evenodd;stroke:none;stroke-width:10.1306;stroke-linejoin:miter;stroke-miterlimit:4;stroke-dasharray:10.1306, 10.1306;stroke-dashoffset:101.306;stroke-opacity:1;stop-color:#000000"
             id="rect13773"
             width="10"
             height="30"
             x="272.48886"
             y="-145.38936" />
          <rect
             style="color:#000000;overflow:visible;fill:#8686bf;fill-opacity:1;fill-rule:evenodd;stroke:none;stroke-width:10.1306;stroke-linejoin:miter;stroke-miterlimit:4;stroke-dasharray:10.1306, 10.1306;stroke-dashoffset:101.306;stroke-opacity:1;stop-color:#000000"
             id="rect13773-7"
             width="10"
             height="30"
             x="272.48886"
             y="-100.83747" />
          <path
             id="path14179"
             style="overflow:visible;fill:#8686bf;fill-opacity:1;fill-rule:evenodd;stroke-width:10.3171;stroke-dasharray:10.3171, 10.3171;stroke-dashoffset:103.171;stop-color:#000000"
             d="m 294.48905,-44.285273 a 12,12 0 0 1 -12.0003,-12.0003 h -9.9999 a 22.000322,22 0 0 0 22.0002,22.0002 z" />
          <path
             id="path14179-7"
             style="overflow:visible;fill:#8686bf;fill-opacity:1;fill-rule:evenodd;stroke-width:10.3171;stroke-dasharray:10.3171, 10.3171;stroke-dashoffset:103.171;stop-color:#000000"
             d="m 282.48875,-159.94125 a 12,12 0 0 1 12.0003,-12.00031 v -9.9999 a 22,22.000322 0 0 0 -22.0002,22.00021 z" />
          <rect
             style="color:#000000;overflow:visible;fill:#8686bf;fill-opacity:1;fill-rule:evenodd;stroke:none;stroke-width:10.1306;stroke-linejoin:miter;stroke-miterlimit:4;stroke-dasharray:10.1306, 10.1306;stroke-dashoffset:101.306;stroke-opacity:1;stop-color:#000000"
             id="rect13773-5"
             width="10"
             height="30"
             x="-181.94144"
             y="-383.59283"
             transform="rotate(90)" />
          <rect
             style="color:#000000;overflow:visible;fill:#8686bf;fill-opacity:1;fill-rule:evenodd;stroke:none;stroke-width:10.1306;stroke-linejoin:miter;stroke-miterlimit:4;stroke-dasharray:10.1306, 10.1306;stroke-dashoffset:101.306;stroke-opacity:1;stop-color:#000000"
             id="rect13773-7-3"
             width="10"
             height="30"
             x="-181.94144"
             y="-339.04092"
             transform="rotate(90)" />
          <path
             id="path14179-7-6"
             style="overflow:visible;fill:#8686bf;fill-opacity:1;fill-rule:evenodd;stroke-width:10.3171;stroke-dasharray:10.3171, 10.3171;stroke-dashoffset:103.171;stop-color:#000000"
             d="m 398.14472,-171.94156 a 12,12 0 0 1 12.00031,12.0003 h 9.9999 a 22.000322,22 0 0 0 -22.00021,-22.0002 z" />
          <rect
             style="color:#000000;overflow:visible;fill:#8686bf;fill-opacity:1;fill-rule:evenodd;stroke:none;stroke-width:10.1306;stroke-linejoin:miter;stroke-miterlimit:4;stroke-dasharray:10.1306, 10.1306;stroke-dashoffset:101.306;stroke-opacity:1;stop-color:#000000"
             id="rect13773-2"
             width="10"
             height="30"
             x="-420.1449"
             y="70.837486"
             transform="scale(-1)" />
          <rect
             style="color:#000000;overflow:visible;fill:#8686bf;fill-opacity:1;fill-rule:evenodd;stroke:none;stroke-width:10.1306;stroke-linejoin:miter;stroke-miterlimit:4;stroke-dasharray:10.1306, 10.1306;stroke-dashoffset:101.306;stroke-opacity:1;stop-color:#000000"
             id="rect13773-7-9"
             width="10"
             height="30"
             x="-420.1449"
             y="115.38937"
             transform="scale(-1)" />
          <path
             id="path14179-7-2"
             style="overflow:visible;fill:#8686bf;fill-opacity:1;fill-rule:evenodd;stroke-width:10.3171;stroke-dasharray:10.3171, 10.3171;stroke-dashoffset:103.171;stop-color:#000000"
             d="m 410.14502,-56.28558 a 12,12 0 0 1 -12.0003,12.00031 v 9.9999 a 22,22.000322 0 0 0 22.0002,-22.00021 z" />
          <rect
             style="color:#000000;overflow:visible;fill:#8686bf;fill-opacity:1;fill-rule:evenodd;stroke:none;stroke-width:10.1306;stroke-linejoin:miter;stroke-miterlimit:4;stroke-dasharray:10.1306, 10.1306;stroke-dashoffset:101.306;stroke-opacity:1;stop-color:#000000"
             id="rect13773-5-7"
             width="10"
             height="30"
             x="34.285393"
             y="309.04092"
             transform="rotate(-90)" />
        </g>
        <g
           id="g5484">
          <path
             id="rect6333"
             style="color:#000000;overflow:visible;fill:#8686bf;fill-opacity:1;fill-rule:evenodd;stroke:none;stroke-width:77.3957;stroke-linejoin:bevel;stroke-miterlimit:4;stroke-dasharray:232.186, 77.3957;stroke-dashoffset:116.093;stroke-opacity:1;stop-color:#000000"
             d="M 144.79297 355.08594 C 130.53036 355.08594 119.04688 366.56747 119.04688 380.83008 L 119.04688 555.65234 C 119.04688 569.91496 130.53036 581.39648 144.79297 581.39648 L 555.65234 581.39648 C 569.91496 581.39648 581.39648 569.91496 581.39648 555.65234 L 581.39648 380.83008 C 581.39648 366.56747 569.91496 355.08594 555.65234 355.08594 L 144.79297 355.08594 z M 350.22266 384.59961 A 83.642022 83.642022 0 0 1 433.86523 468.24219 A 83.642022 83.642022 0 0 1 350.22266 551.88281 A 83.642022 83.642022 0 0 1 266.58008 468.24219 A 83.642022 83.642022 0 0 1 350.22266 384.59961 z M 350.22266 430.44727 A 37.795276 37.795276 0 0 0 312.42773 468.24219 A 37.795276 37.795276 0 0 0 350.22266 506.03711 A 37.795276 37.795276 0 0 0 388.01758 468.24219 A 37.795276 37.795276 0 0 0 350.22266 430.44727 z "
             transform="matrix(0.26458333,0,0,0.26458333,277.97386,-212.0665)" />
          <path
             style="fill:#8686bf;fill-opacity:1;fill-rule:evenodd;stroke:none;stroke-width:0.264583px;stroke-linecap:butt;stroke-linejoin:miter;stroke-opacity:1"
             d="m 336.91365,-116.2425 8.59525,-7.83875 4.29763,-3.91937 c 5.51428,-5.02894 5.0535,-3.91937 12.56401,-3.91937 h 8.26638 8.26638 c 6.17999,0 8.31158,0.0412 12.56401,3.91937 l 4.29762,3.91937 8.59526,7.83875"
             id="path7713"
             sodipodi:nodetypes="ccsscsscc" />
        </g>
      </g>
    </g>
  </g>
</svg>
