<?xml version="1.0" encoding="UTF-8" standalone="no"?>
<!-- Created with Inkscape (http://www.inkscape.org/) -->

<svg
   width="26mm"
   height="26mm"
   viewBox="0 0 26 26.000003"
   version="1.1"
   id="svg1"
   xml:space="preserve"
   inkscape:version="1.4.2 (1:1.4.2+202505120738+ebf0e940d0)"
   sodipodi:docname="wikidata-light.svg"
   xmlns:inkscape="http://www.inkscape.org/namespaces/inkscape"
   xmlns:sodipodi="http://sodipodi.sourceforge.net/DTD/sodipodi-0.dtd"
   xmlns="http://www.w3.org/2000/svg"
   xmlns:svg="http://www.w3.org/2000/svg"><sodipodi:namedview
     id="namedview1"
     pagecolor="#ffffff"
     bordercolor="#666666"
     borderopacity="1.0"
     inkscape:showpageshadow="2"
     inkscape:pageopacity="0.0"
     inkscape:pagecheckerboard="0"
     inkscape:deskcolor="#d1d1d1"
     inkscape:document-units="mm"
     inkscape:zoom="2.0995091"
     inkscape:cx="16.194262"
     inkscape:cy="54.536559"
     inkscape:window-width="1885"
     inkscape:window-height="1030"
     inkscape:window-x="3875"
     inkscape:window-y="1093"
     inkscape:window-maximized="0"
     inkscape:current-layer="layer1"
     inkscape:pageshadow="2"
     showgrid="false" /><defs
     id="defs1"><inkscape:perspective
       id="perspective4854"
       sodipodi:type="inkscape:persp3d"
       inkscape:vp_z="135.00001 : 38.799487 : 1"
       inkscape:vp_y="0 : 1000 : 0"
       inkscape:vp_x="0 : 38.799487 : 1"
       inkscape:persp3d-origin="67.500004 : 12.966154 : 1">
		</inkscape:perspective><inkscape:perspective
       id="perspective10537"
       sodipodi:type="inkscape:persp3d"
       inkscape:vp_z="1.0000001 : -38.200513 : 1"
       inkscape:vp_y="0 : 1000 : 0"
       inkscape:vp_x="0 : -38.200513 : 1"
       inkscape:persp3d-origin="0.50000002 : -38.36718 : 1">
		</inkscape:perspective></defs><g
     inkscape:label="Layer 1"
     inkscape:groupmode="layer"
     id="layer1"
     transform="translate(-141.05645,-93.20552)"><g
       id="g22"><g
         id="g18"
         transform="matrix(0.96710144,0,0,0.84256793,4.6405541,20.739116)"><path
           d="m 141.05645,109.74237 h 0.96912 V 93.127691 h -0.96912 z m 2.00296,0 h 2.97188 V 93.127691 h -2.97188 z m 3.94121,-16.614679 v 16.614089 h 2.97189 V 93.127691 Z"
           style="fill:#990000;stroke-width:0.0332317"
           id="path1" /><path
           d="m 164.96862,109.74356 h 0.96933 V 93.127689 h -0.96933 z m 2.00316,-16.615871 v 16.615871 h 0.96913 V 93.127689 Z m -15.99789,16.615871 h 0.96913 V 93.127691 h -0.96913 z m 2.00317,-16.615869 v 16.615279 h 0.96933 V 93.127691 Z"
           style="fill:#339966;stroke-width:0.0332317"
           id="path2" /><path
           d="m 154.94736,109.74356 h 2.97229 V 93.127691 h -2.97229 z m 3.94122,0 h 1.03363 V 93.127691 h -1.03363 z m 2.00296,-16.615869 v 16.615279 h 2.97189 V 93.127691 Z"
           style="fill:#006699;stroke-width:0.0332317"
           id="path3" /></g><path
         d="m 164.26792,93.20552 v 5.923675 h -1.47564 V 93.20552 h 1.47564 m -2.79437,0 -1.92932,2.781629 2.61625,3.142046 h -1.84877 l -2.34487,-2.777386 v 2.777386 h -1.47561 V 93.20552 h 1.47561 v 2.667139 l 1.88268,-2.667139 h 1.62403 m -6.34769,0 v 5.923675 h -1.47561 V 93.20552 h 1.47561 m -7.26786,2.137109 -1.83179,3.862891 h -0.63604 l -2.60353,-6 h 1.56466 l 1.39505,3.273499 1.52226,-3.273499 h 1.18727 l 1.52227,3.273499 1.38657,-3.273499 h 1.56466 l -2.59504,6 h -0.63605 L 147.858,95.342629"
         style="font-family:'Gill Sans MT';fill:#484848;fill-opacity:1;stroke:none;stroke-width:0.0571321"
         id="path4"
         sodipodi:nodetypes="cccccccccccccccccccccccccccccccccccc" /><path
         d="m 163.8519,113.20502 2.66285,6 h -1.60631 l -0.4939,-1.1854 h -2.68432 l -0.44668,1.1854 h -1.58482 l 2.41802,-6 h 1.73516 m 0.12025,3.76665 -0.96635,-2.33214 -0.88045,2.33214 h 1.8468 m -3.48746,-3.76665 v 1.0995 h -2.17323 v 4.9005 h -1.49463 v -4.9005 h -2.17321 v -1.0995 h 5.84107 m -7.73085,0 2.66285,6 h -1.6063 l -0.49391,-1.1854 h -2.68432 l -0.44668,1.1854 h -1.58482 l 2.41804,-6 h 1.73514 m 0.12027,3.76665 -0.96636,-2.33214 -0.88047,2.33214 h 1.84683 m -10.21761,-3.76665 h 2.64567 c 1.02218,10e-6 1.82962,0.2806 2.42233,0.8418 0.59554,0.55835 0.89332,1.28133 0.89334,2.16894 -2e-5,0.93057 -0.30208,1.66213 -0.90623,2.1947 -0.60128,0.5297 -1.46027,0.79456 -2.57694,0.79456 h -2.47817 v -6 m 1.49463,1.0995 v 3.80099 h 0.97495 c 0.63278,0 1.11667,-0.17323 1.45168,-0.51968 0.33499,-0.34931 0.5025,-0.80886 0.50251,-1.37866 -1e-5,-0.58983 -0.17039,-1.05368 -0.5111,-1.39155 -0.33787,-0.34073 -0.82462,-0.51109 -1.46027,-0.5111 h -0.95777"
         style="font-family:'Gill Sans MT';fill:#484848;fill-opacity:1;stroke:none;stroke-width:0.0578683"
         id="path4-0"
         sodipodi:nodetypes="ccccccccccccccccccccccccccccccccccccccccsccccsccccc" /></g></g></svg>
